<ttFont>
        <CharString name=".notdef">
          0 600 838 rmoveto
          -19 0 -17 9 -13 17 -129 219 -64 115 0 11 0 41 20 21 41 0 rrcurveto
          365 hlineto
          40 0 20 -21 0 -41 0 -11 -64 -114 -128 -219 -12 -18 -18 -9 -22 0 rrcurveto
          184 -707 rmoveto
          -365 hlineto
          -41 0 -20 20 0 41 0 13 64 114 128 217 14 20 16 9 20 0 23 0 17 -10 12 -20 128 -216 64 -114 0 -13 0 -41 -20 -20 -40 0 rrcurveto
          -485 253 rmoveto
          -42 0 -21 19 0 39 rrcurveto
          515 vlineto
          0 39 21 20 42 0 20 0 17 -8 14 -15 125 -182 62 -97 0 -13 0 -13 -62 -98 -125 -183 -14 -15 -17 -8 -20 0 rrcurveto
          603 hmoveto
          -17 0 -17 8 -15 15 -125 183 -62 98 0 13 0 12 62 98 125 182 15 15 17 8 17 0 43 0 21 -20 0 -39 rrcurveto
          -515 vlineto
          0 -39 -21 -19 -43 0 rrcurveto
          76 -364 rmoveto
          25 0 21 9 17 18 16 18 8 19 0 21 rrcurveto
          1187 vlineto
          0 23 -8 21 -16 17 -17 18 -21 9 -25 0 rrcurveto
          -756 hlineto
          -25 0 -20 -9 -17 -17 -16 -17 -8 -20 0 -25 rrcurveto
          -1187 vlineto
          0 -21 8 -19 16 -18 17 -18 20 -9 25 0 rrcurveto
          endchar
        </CharString>
        <CharString name="A">
          0 766 492 rmoveto
          -332 hlineto
          -18 0 -14 6 -11 12 -10 12 -5 13 0 14 0 6 56 185 113 366 9 27 18 14 28 0 28 0 18 -14 9 -27 113 -366 56 -185 0 -6 0 -14 -5 -13 -10 -12 -11 -12 -14 -6 -18 0 rrcurveto
          283 -502 rmoveto
          20 0 17 7 14 15 14 15 7 16 0 19 0 7 -1 8 -2 7 rrcurveto
          -379 1220 rlineto
          -11 32 -18 26 -25 19 -26 19 -28 10 -31 0 -31 0 -28 -10 -26 -19 -25 -19 -18 -26 -11 -32 rrcurveto
          -379 -1220 rlineto
          -2 -7 -1 -8 0 -7 0 -19 7 -16 14 -15 14 -15 17 -7 20 0 16 0 15 5 12 9 13 9 9 12 5 16 rrcurveto
          85 266 rlineto
          10 31 21 15 32 0 rrcurveto
          462 hlineto
          32 0 21 -15 10 -31 rrcurveto
          85 -266 rlineto
          5 -16 9 -12 13 -9 12 -9 15 -5 16 0 rrcurveto
          endchar
        </CharString>
        <CharString name="AE">
          0 1120 20 rmoveto
          36 0 23 24 0 35 0 36 -23 23 -36 0 rrcurveto
          -182 hlineto
          -29 0 -30 25 -7 29 rrcurveto
          -86 413 rlineto
          0 27 26 26 26 0 rrcurveto
          225 hlineto
          36 0 23 24 0 35 0 36 -23 23 -36 0 rrcurveto
          -256 hlineto
          -29 0 -30 25 -6 28 rrcurveto
          -84 379 rlineto
          0 27 25 27 27 0 rrcurveto
          348 hlineto
          35 0 24 23 0 36 -1 36 -23 23 -35 0 rrcurveto
          -619 hlineto
          -28 0 -21 -16 -8 -27 rrcurveto
          -353 -1217 rlineto
          -2 -8 -1 -6 0 -8 0 -45 31 -33 47 0 37 0 28 22 10 36 rrcurveto
          66 245 rlineto
          6 28 30 22 28 0 rrcurveto
          323 hlineto
          29 0 30 -25 7 -28 rrcurveto
          50 -252 rlineto
          6 -30 21 -18 31 0 rrcurveto
          -207 475 rmoveto
          -241 hlineto
          -27 0 -25 27 0 26 rrcurveto
          1 9 142 586 rlineto
          5 21 22 13 15 0 16 0 23 -14 4 -21 rrcurveto
          117 -594 rlineto
          0 -27 -26 -26 -26 0 rrcurveto
          endchar
        </CharString>
        <CharString name="Aacute">
          0 766 492 rmoveto
          -332 hlineto
          -18 0 -14 6 -11 12 -10 12 -5 13 0 14 0 6 56 185 113 366 9 27 18 14 28 0 28 0 18 -14 9 -27 113 -366 56 -185 0 -6 0 -14 -5 -13 -10 -12 -11 -12 -14 -6 -18 0 rrcurveto
          283 -502 rmoveto
          20 0 17 7 14 15 14 15 7 16 0 19 0 7 -1 8 -2 7 rrcurveto
          -379 1220 rlineto
          -11 32 -18 26 -25 19 -26 19 -28 10 -31 0 -31 0 -28 -10 -26 -19 -25 -19 -18 -26 -11 -32 rrcurveto
          -379 -1220 rlineto
          -2 -7 -1 -8 0 -7 0 -19 7 -16 14 -15 14 -15 17 -7 20 0 16 0 15 5 12 9 13 9 9 12 5 16 rrcurveto
          85 266 rlineto
          10 31 21 15 32 0 rrcurveto
          462 hlineto
          32 0 21 -15 10 -31 rrcurveto
          85 -266 rlineto
          5 -16 9 -12 13 -9 12 -9 15 -5 16 0 rrcurveto
          -588 1595 rmoveto
          6 0 4 1 7 3 rrcurveto
          283 109 rlineto
          29 11 14 23 0 29 0 13 -3 11 -7 12 -14 22 -20 10 -25 0 -13 0 -10 -3 -11 -6 rrcurveto
          -261 -153 rlineto
          -16 -9 -6 -12 0 -17 0 -8 2 -5 4 -8 8 -16 12 -7 17 0 rrcurveto
          endchar
        </CharString>
        <CharString name="Acircumflex">
          0 766 492 rmoveto
          -332 hlineto
          -18 0 -14 6 -11 12 -10 12 -5 13 0 14 0 6 56 185 113 366 9 27 18 14 28 0 28 0 18 -14 9 -27 113 -366 56 -185 0 -6 0 -14 -5 -13 -10 -12 -11 -12 -14 -6 -18 0 rrcurveto
          283 -502 rmoveto
          20 0 17 7 14 15 14 15 7 16 0 19 0 7 -1 8 -2 7 rrcurveto
          -379 1220 rlineto
          -11 32 -18 26 -25 19 -26 19 -28 10 -31 0 -31 0 -28 -10 -26 -19 -25 -19 -18 -26 -11 -32 rrcurveto
          -379 -1220 rlineto
          -2 -7 -1 -8 0 -7 0 -19 7 -16 14 -15 14 -15 17 -7 20 0 16 0 15 5 12 9 13 9 9 12 5 16 rrcurveto
          85 266 rlineto
          10 31 21 15 32 0 rrcurveto
          462 hlineto
          32 0 21 -15 10 -31 rrcurveto
          85 -266 rlineto
          5 -16 9 -12 13 -9 12 -9 15 -5 16 0 rrcurveto
          -696 1605 rmoveto
          9 0 7 2 9 6 rrcurveto
          176 113 rlineto
          14 8 17 6 16 0 15 0 17 -6 14 -8 rrcurveto
          178 -113 rlineto
          8 -5 7 -2 9 0 15 0 10 4 10 12 9 10 3 8 0 12 0 15 -5 11 -12 10 rrcurveto
          -176 144 rlineto
          -29 24 -35 13 -38 0 -37 0 -35 -13 -29 -24 rrcurveto
          -177 -143 rlineto
          -12 -10 -5 -11 0 -15 0 -13 3 -9 9 -10 10 -11 10 -5 15 0 rrcurveto
          endchar
        </CharString>
        <CharString name="Adieresis">
          0 766 492 rmoveto
          -332 hlineto
          -18 0 -14 6 -11 12 -10 12 -5 13 0 14 0 6 56 185 113 366 9 27 18 14 28 0 28 0 18 -14 9 -27 113 -366 56 -185 0 -6 0 -14 -5 -13 -10 -12 -11 -12 -14 -6 -18 0 rrcurveto
          283 -502 rmoveto
          20 0 17 7 14 15 14 15 7 16 0 19 0 7 -1 8 -2 7 rrcurveto
          -379 1220 rlineto
          -11 32 -18 26 -25 19 -26 19 -28 10 -31 0 -31 0 -28 -10 -26 -19 -25 -19 -18 -26 -11 -32 rrcurveto
          -379 -1220 rlineto
          -2 -7 -1 -8 0 -7 0 -19 7 -16 14 -15 14 -15 17 -7 20 0 16 0 15 5 12 9 13 9 9 12 5 16 rrcurveto
          85 266 rlineto
          10 31 21 15 32 0 rrcurveto
          462 hlineto
          32 0 21 -15 10 -31 rrcurveto
          85 -266 rlineto
          5 -16 9 -12 13 -9 12 -9 15 -5 16 0 rrcurveto
          -664 1603 rmoveto
          28 0 24 10 19 18 19 19 10 23 0 28 0 29 -10 23 -19 19 -19 19 -24 9 -28 0 -29 0 -25 -9 -19 -19 -19 -19 -10 -23 0 -29 0 -28 10 -23 19 -19 19 -18 25 -10 29 0 rrcurveto
          431 hmoveto
          29 0 25 10 19 18 19 19 10 23 0 28 0 29 -10 23 -19 19 -19 19 -25 9 -29 0 -28 0 -24 -9 -19 -19 -20 -19 -9 -23 0 -29 0 -28 9 -23 20 -19 19 -18 24 -10 28 0 rrcurveto
          endchar
        </CharString>
        <CharString name="Agrave">
          0 766 492 rmoveto
          -332 hlineto
          -18 0 -14 6 -11 12 -10 12 -5 13 0 14 0 6 56 185 113 366 9 27 18 14 28 0 28 0 18 -14 9 -27 113 -366 56 -185 0 -6 0 -14 -5 -13 -10 -12 -11 -12 -14 -6 -18 0 rrcurveto
          283 -502 rmoveto
          20 0 17 7 14 15 14 15 7 16 0 19 0 7 -1 8 -2 7 rrcurveto
          -379 1220 rlineto
          -11 32 -18 26 -25 19 -26 19 -28 10 -31 0 -31 0 -28 -10 -26 -19 -25 -19 -18 -26 -11 -32 rrcurveto
          -379 -1220 rlineto
          -2 -7 -1 -8 0 -7 0 -19 7 -16 14 -15 14 -15 17 -7 20 0 16 0 15 5 12 9 13 9 9 12 5 16 rrcurveto
          85 266 rlineto
          10 31 21 15 32 0 rrcurveto
          462 hlineto
          32 0 21 -15 10 -31 rrcurveto
          85 -266 rlineto
          5 -16 9 -12 13 -9 12 -9 15 -5 16 0 rrcurveto
          -288 1595 rmoveto
          17 0 12 7 8 16 4 8 2 5 0 8 0 17 -7 12 -15 9 rrcurveto
          -261 153 rlineto
          -12 6 -10 3 -12 0 -25 0 -20 -10 -14 -22 -7 -12 -3 -11 0 -13 0 -29 14 -23 29 -11 rrcurveto
          283 -109 rlineto
          6 -3 5 -1 6 0 rrcurveto
          endchar
        </CharString>
        <CharString name="Aring">
          0 766 492 rmoveto
          -332 hlineto
          -18 0 -14 6 -11 12 -10 12 -5 13 0 14 0 6 56 185 113 366 9 27 18 14 28 0 28 0 18 -14 9 -27 113 -366 56 -185 0 -6 0 -14 -5 -13 -10 -12 -11 -12 -14 -6 -18 0 rrcurveto
          283 -502 rmoveto
          20 0 17 7 14 15 14 15 7 16 0 19 0 7 -1 8 -2 7 rrcurveto
          -379 1220 rlineto
          -11 32 -18 26 -25 19 -26 19 -28 10 -31 0 -31 0 -28 -10 -26 -19 -25 -19 -18 -26 -11 -32 rrcurveto
          -379 -1220 rlineto
          -2 -7 -1 -8 0 -7 0 -19 7 -16 14 -15 14 -15 17 -7 20 0 16 0 15 5 12 9 13 9 9 12 5 16 rrcurveto
          85 266 rlineto
          10 31 21 15 32 0 rrcurveto
          462 hlineto
          32 0 21 -15 10 -31 rrcurveto
          85 -266 rlineto
          5 -16 9 -12 13 -9 12 -9 15 -5 16 0 rrcurveto
          -448 1940 rmoveto
          -64 0 -52 -20 -40 -39 -40 -38 -21 -48 0 -56 0 -54 21 -47 40 -39 40 -39 52 -19 64 0 65 0 52 19 40 39 40 39 20 47 0 54 0 56 -20 48 -40 38 -40 39 -52 20 -65 0 rrcurveto
          -66 vmoveto
          40 0 31 -12 23 -25 23 -24 11 -33 0 -41 0 -41 -11 -32 -23 -24 -23 -25 -31 -12 -40 0 -37 0 -31 12 -24 25 -23 24 -12 32 0 41 0 41 12 33 23 24 24 25 31 12 37 0 rrcurveto
          endchar
        </CharString>
        <CharString name="Atilde">
          0 766 492 rmoveto
          -332 hlineto
          -18 0 -14 6 -11 12 -10 12 -5 13 0 14 0 6 56 185 113 366 9 27 18 14 28 0 28 0 18 -14 9 -27 113 -366 56 -185 0 -6 0 -14 -5 -13 -10 -12 -11 -12 -14 -6 -18 0 rrcurveto
          283 -502 rmoveto
          20 0 17 7 14 15 14 15 7 16 0 19 0 7 -1 8 -2 7 rrcurveto
          -379 1220 rlineto
          -11 32 -18 26 -25 19 -26 19 -28 10 -31 0 -31 0 -28 -10 -26 -19 -25 -19 -18 -26 -11 -32 rrcurveto
          -379 -1220 rlineto
          -2 -7 -1 -8 0 -7 0 -19 7 -16 14 -15 14 -15 17 -7 20 0 16 0 15 5 12 9 13 9 9 12 5 16 rrcurveto
          85 266 rlineto
          10 31 21 15 32 0 rrcurveto
          462 hlineto
          32 0 21 -15 10 -31 rrcurveto
          85 -266 rlineto
          5 -16 9 -12 13 -9 12 -9 15 -5 16 0 rrcurveto
          -330 1620 rmoveto
          71 0 55 33 47 72 6 9 2 7 0 10 0 20 -8 17 -20 6 -9 5 -6 1 -8 0 -15 0 -11 -5 -10 -12 -8 -10 -9 -10 -8 -6 -19 -17 -25 -10 -25 0 -28 0 -31 10 -23 19 rrcurveto
          -22 16 -22 15 -25 16 -24 14 -27 7 -36 0 -48 0 -38 -15 -34 -32 -19 -20 -17 -19 -16 -23 -6 -9 -2 -7 0 -10 0 -19 7 -14 19 -9 8 -4 5 -1 8 0 16 0 12 5 10 14 rrcurveto
          20 24 rlineto
          20 20 27 11 28 0 29 0 29 -11 24 -18 22 -16 24 -16 26 -16 24 -15 26 -7 34 0 rrcurveto
          endchar
        </CharString>
        <CharString name="B">
          0 638 140 rmoveto
          -225 hlineto
          -18 0 -14 6 -12 12 -12 13 -6 15 0 17 rrcurveto
          388 vlineto
          0 18 6 14 12 12 12 12 14 6 18 0 rrcurveto
          226 1 rlineto
          81 -2 66 -24 51 -46 51 -47 25 -56 0 -65 0 -78 -27 -66 -53 -52 -54 -52 -65 -26 -76 0 rrcurveto
          654 vmoveto
          -225 hlineto
          -18 0 -14 6 -12 12 -12 12 -6 14 0 18 rrcurveto
          341 vlineto
          0 18 6 14 12 12 12 12 14 6 18 0 rrcurveto
          225 hlineto
          60 0 52 -19 44 -38 44 -39 22 -53 0 -67 0 -66 -22 -58 -45 -50 -45 -50 -51 -25 -59 0 rrcurveto
          -1 -794 rmoveto
          76 0 69 18 63 36 63 37 50 48 38 61 37 61 19 71 0 81 0 123 -46 89 -93 54 -2 1 -6 4 -11 7 -18 11 -9 13 0 15 0 14 10 15 20 14 36 27 27 36 17 45 rrcurveto
          15 41 8 54 0 68 0 60 -16 56 -32 54 -32 53 -43 44 -55 36 -55 35 -61 18 -69 0 rrcurveto
          -353 hlineto
          -20 0 -18 -7 -14 -15 -15 -15 -7 -17 0 -20 rrcurveto
          -1252 vlineto
          0 -20 7 -18 15 -14 14 -15 18 -7 20 0 rrcurveto
          endchar
        </CharString>
        <CharString name="C">
          0 726 -10 rmoveto
          93 0 83 13 73 25 36 12 18 22 0 33 0 49 -20 25 -41 0 -5 0 -5 -1 -5 -3 -47 -24 -74 -12 -99 0 -122 3 -98 50 -73 99 -73 99 -37 139 0 180 0 183 40 141 80 99 rrcurveto
          81 101 99 51 115 0 107 0 70 -9 33 -18 7 -4 6 -2 4 0 13 0 11 4 10 9 15 13 8 18 0 22 0 69 -101 34 -202 0 -161 0 -130 -64 -98 -127 -95 -130 -49 -176 -3 -222 rrcurveto
          0 -205 49 -170 98 -135 98 -127 130 -64 161 0 rrcurveto
          endchar
        </CharString>
        <CharString name="Ccedilla">
          0 726 -10 rmoveto
          92 0 83 13 74 25 36 12 18 22 0 33 0 29 -8 21 -15 13 -8 7 -13 4 -17 0 -5 0 -5 -1 -5 -3 -47 -24 -74 -12 -99 0 -122 3 -98 51 -73 98 -73 99 -37 139 0 180 rrcurveto
          0 183 40 141 80 99 79 98 95 51 109 3 114 0 74 -9 34 -18 7 -4 6 -2 4 0 13 0 11 4 10 9 15 13 8 18 0 22 0 69 -101 34 -202 0 -161 0 -130 -64 -98 -127 rrcurveto
          -95 -130 -49 -176 -3 -222 0 -206 49 -170 98 -134 98 -127 130 -64 161 0 rrcurveto
          -148 -467 rmoveto
          68 0 55 15 49 33 46 33 22 43 0 63 0 39 -12 31 -29 33 -24 27 -37 17 -55 7 -18 3 -19 20 0 20 rrcurveto
          59 vlineto
          0 29 -18 18 -29 0 -26 0 -18 -16 -2 -27 rrcurveto
          -11 -139 rlineto
          0 -11 4 -5 13 -1 39 -2 33 -6 25 -8 38 -13 24 -32 0 -42 0 -35 -16 -29 -27 -16 -26 -14 -34 -7 -37 0 -33 0 -33 4 -31 10 -5 1 -3 1 -5 0 -17 0 -11 -6 -8 -15 rrcurveto
          -4 -8 -1 -5 0 -8 0 -19 8 -14 20 -6 rrcurveto
          29 -9 rlineto
          37 -8 38 -5 41 0 rrcurveto
          endchar
        </CharString>
        <CharString name="D">
          0 445 140 rmoveto
          -32 hlineto
          -18 0 -14 6 -13 12 -12 13 -6 14 0 18 rrcurveto
          994 vlineto
          0 18 6 14 12 12 13 12 15 6 17 0 52 0 49 -2 47 -3 47 -3 44 -9 42 -14 42 -15 38 -24 34 -34 31 -31 23 -39 14 -48 14 -48 9 -55 4 -61 4 -62 2 -80 0 -99 rrcurveto
          0 -173 -37 -126 -73 -77 -74 -77 -118 -39 -162 0 rrcurveto
          -140 vmoveto
          140 0 115 21 88 41 89 42 65 67 43 92 43 92 21 123 0 154 rrcurveto
          176 vlineto
          0 140 -21 114 -42 86 -41 87 -62 63 -83 41 -83 41 -105 20 -128 0 rrcurveto
          -200 hlineto
          -20 0 -18 -7 -14 -15 -15 -15 -7 -17 0 -20 rrcurveto
          -1252 vlineto
          0 -20 7 -18 15 -14 14 -15 18 -7 20 0 rrcurveto
          endchar
        </CharString>
        <CharString name="E">
          0 968 hmoveto
          19 0 17 7 13 14 14 13 7 17 0 19 0 19 -7 17 -14 13 -13 14 -17 7 -19 0 rrcurveto
          -525 hlineto
          -18 0 -14 6 -13 12 -12 13 -6 14 0 17 rrcurveto
          366 vlineto
          0 18 6 14 12 12 13 12 15 6 17 0 rrcurveto
          468 hlineto
          19 0 17 7 13 14 14 13 7 17 0 19 0 19 -7 17 -14 13 -13 14 -17 7 -19 0 rrcurveto
          -468 hlineto
          -18 0 -14 6 -13 12 -12 13 -6 14 0 18 rrcurveto
          364 vlineto
          0 18 6 14 12 13 13 12 14 6 18 0 rrcurveto
          525 hlineto
          19 0 17 7 13 14 14 13 7 17 0 19 0 19 -7 17 -14 13 -13 14 -17 7 -19 0 rrcurveto
          -654 hlineto
          -20 0 -18 -7 -14 -15 -15 -14 -7 -17 0 -20 rrcurveto
          -1254 vlineto
          0 -20 7 -17 15 -14 14 -15 18 -7 20 0 rrcurveto
          endchar
        </CharString>
        <CharString name="Eacute">
          0 968 20 rmoveto
          19 0 17 7 13 14 14 13 7 17 0 19 0 19 -7 17 -14 13 -13 14 -17 7 -19 0 rrcurveto
          -525 hlineto
          -18 0 -14 6 -13 12 -12 13 -6 14 0 17 rrcurveto
          346 vlineto
          0 18 6 14 12 12 13 12 15 6 17 0 rrcurveto
          468 hlineto
          19 0 17 7 13 14 14 13 7 17 0 19 0 19 -7 17 -14 13 -13 14 -17 7 -19 0 rrcurveto
          -468 hlineto
          -18 0 -14 6 -13 12 -12 13 -6 14 0 18 rrcurveto
          344 vlineto
          0 18 6 14 12 13 13 12 14 6 18 0 rrcurveto
          525 hlineto
          19 0 17 7 13 14 14 13 7 17 0 19 0 19 -7 17 -14 13 -13 14 -17 7 -19 0 rrcurveto
          -654 hlineto
          -20 0 -18 -7 -14 -15 -15 -14 -7 -17 0 -20 rrcurveto
          -1214 vlineto
          0 -20 7 -17 15 -14 14 -15 18 -7 20 0 rrcurveto
          147 1565 rmoveto
          6 0 4 1 7 3 rrcurveto
          283 109 rlineto
          29 11 14 23 0 29 0 13 -3 11 -7 12 -14 22 -20 10 -25 0 -13 0 -10 -3 -11 -6 rrcurveto
          -261 -153 rlineto
          -16 -9 -6 -12 0 -17 0 -8 2 -5 4 -8 8 -16 12 -7 17 0 rrcurveto
          endchar
        </CharString>
        <CharString name="Ecircumflex">
          0 968 20 rmoveto
          19 0 17 7 13 14 14 13 7 17 0 19 0 19 -7 17 -14 13 -13 14 -17 7 -19 0 rrcurveto
          -525 hlineto
          -18 0 -14 6 -13 12 -12 13 -6 14 0 17 rrcurveto
          346 vlineto
          0 18 6 14 12 12 13 12 15 6 17 0 rrcurveto
          468 hlineto
          19 0 17 7 13 14 14 13 7 17 0 19 0 19 -7 17 -14 13 -13 14 -17 7 -19 0 rrcurveto
          -468 hlineto
          -18 0 -14 6 -13 12 -12 13 -6 14 0 18 rrcurveto
          344 vlineto
          0 18 6 14 12 13 13 12 14 6 18 0 rrcurveto
          525 hlineto
          19 0 17 7 13 14 14 13 7 17 0 19 0 19 -7 17 -14 13 -13 14 -17 7 -19 0 rrcurveto
          -654 hlineto
          -20 0 -18 -7 -14 -15 -15 -14 -7 -17 0 -20 rrcurveto
          -1214 vlineto
          0 -20 7 -17 15 -14 14 -15 18 -7 20 0 rrcurveto
          39 1575 rmoveto
          9 0 7 2 9 6 rrcurveto
          176 113 rlineto
          14 8 17 6 16 0 15 0 17 -6 14 -8 rrcurveto
          178 -113 rlineto
          8 -5 7 -2 9 0 15 0 10 4 10 12 9 10 3 8 0 12 0 15 -5 11 -12 10 rrcurveto
          -176 144 rlineto
          -29 24 -35 13 -38 0 -37 0 -35 -13 -29 -24 rrcurveto
          -177 -143 rlineto
          -12 -10 -5 -11 0 -15 0 -13 3 -9 9 -10 10 -11 10 -5 15 0 rrcurveto
          endchar
        </CharString>
        <CharString name="Edieresis">
          0 968 20 rmoveto
          19 0 17 7 13 14 14 13 7 17 0 19 0 19 -7 17 -14 13 -13 14 -17 7 -19 0 rrcurveto
          -525 hlineto
          -18 0 -14 6 -13 12 -12 13 -6 14 0 17 rrcurveto
          346 vlineto
          0 18 6 14 12 12 13 12 15 6 17 0 rrcurveto
          468 hlineto
          19 0 17 7 13 14 14 13 7 17 0 19 0 19 -7 17 -14 13 -13 14 -17 7 -19 0 rrcurveto
          -468 hlineto
          -18 0 -14 6 -13 12 -12 13 -6 14 0 18 rrcurveto
          344 vlineto
          0 18 6 14 12 13 13 12 14 6 18 0 rrcurveto
          525 hlineto
          19 0 17 7 13 14 14 13 7 17 0 19 0 19 -7 17 -14 13 -13 14 -17 7 -19 0 rrcurveto
          -654 hlineto
          -20 0 -18 -7 -14 -15 -15 -14 -7 -17 0 -20 rrcurveto
          -1214 vlineto
          0 -20 7 -17 15 -14 14 -15 18 -7 20 0 rrcurveto
          71 1573 rmoveto
          28 0 24 10 19 18 19 19 10 23 0 28 0 29 -10 23 -19 19 -19 19 -24 9 -28 0 -29 0 -25 -9 -19 -19 -19 -19 -10 -23 0 -29 0 -28 10 -23 19 -19 19 -18 25 -10 29 0 rrcurveto
          431 hmoveto
          29 0 25 10 19 18 19 19 10 23 0 28 0 29 -10 23 -19 19 -19 19 -25 9 -29 0 -28 0 -24 -9 -19 -19 -20 -19 -9 -23 0 -29 0 -28 9 -23 20 -19 19 -18 24 -10 28 0 rrcurveto
          endchar
        </CharString>
        <CharString name="Egrave">
          0 968 20 rmoveto
          19 0 17 7 13 14 14 13 7 17 0 19 0 19 -7 17 -14 13 -13 14 -17 7 -19 0 rrcurveto
          -525 hlineto
          -18 0 -14 6 -13 12 -12 13 -6 14 0 17 rrcurveto
          346 vlineto
          0 18 6 14 12 12 13 12 15 6 17 0 rrcurveto
          468 hlineto
          19 0 17 7 13 14 14 13 7 17 0 19 0 19 -7 17 -14 13 -13 14 -17 7 -19 0 rrcurveto
          -468 hlineto
          -18 0 -14 6 -13 12 -12 13 -6 14 0 18 rrcurveto
          344 vlineto
          0 18 6 14 12 13 13 12 14 6 18 0 rrcurveto
          525 hlineto
          19 0 17 7 13 14 14 13 7 17 0 19 0 19 -7 17 -14 13 -13 14 -17 7 -19 0 rrcurveto
          -654 hlineto
          -20 0 -18 -7 -14 -15 -15 -14 -7 -17 0 -20 rrcurveto
          -1214 vlineto
          0 -20 7 -17 15 -14 14 -15 18 -7 20 0 rrcurveto
          447 1565 rmoveto
          17 0 12 7 8 16 4 8 2 5 0 8 0 17 -7 12 -15 9 rrcurveto
          -261 153 rlineto
          -12 6 -10 3 -12 0 -25 0 -20 -10 -14 -22 -7 -12 -3 -11 0 -13 0 -29 14 -23 29 -11 rrcurveto
          283 -109 rlineto
          6 -3 5 -1 6 0 rrcurveto
          endchar
        </CharString>
        <CharString name="Eth">
          0 445 160 rmoveto
          -32 hlineto
          -18 0 -14 6 -13 12 -12 13 -6 14 0 18 rrcurveto
          954 vlineto
          0 18 6 14 12 12 13 12 15 6 17 0 52 0 49 -1 47 -3 47 -3 44 -9 42 -14 42 -15 38 -25 34 -34 31 -31 23 -39 14 -48 14 -48 9 -55 4 -61 4 -62 2 -67 0 -72 rrcurveto
          0 -173 -37 -126 -73 -77 -74 -77 -118 -39 -162 0 rrcurveto
          -140 vmoveto
          140 0 115 21 88 41 89 42 65 67 43 92 43 92 21 123 0 154 rrcurveto
          136 vlineto
          0 140 -21 114 -42 86 -41 87 -62 63 -83 41 -83 41 -105 20 -128 0 rrcurveto
          -200 hlineto
          -20 0 -18 -7 -14 -15 -15 -15 -7 -17 0 -20 rrcurveto
          -1212 vlineto
          0 -20 7 -18 15 -14 14 -15 18 -7 20 0 rrcurveto
          276 610 rmoveto
          19 0 17 7 13 14 14 13 7 17 0 19 0 19 -7 17 -14 13 -13 14 -17 7 -19 0 rrcurveto
          -430 hlineto
          -19 0 -17 -7 -13 -14 -14 -13 -7 -17 0 -19 0 -19 7 -17 14 -13 13 -14 17 -7 19 0 rrcurveto
          endchar
        </CharString>
        <CharString name="F">
          0 310 -10 rmoveto
          19 0 17 7 13 14 14 13 7 17 0 19 rrcurveto
          508 vlineto
          0 18 6 14 12 12 13 12 15 6 17 0 rrcurveto
          460 hlineto
          19 0 17 7 13 14 14 13 7 17 0 19 0 19 -7 17 -14 13 -13 14 -17 7 -19 0 rrcurveto
          -460 hlineto
          -18 0 -14 6 -13 12 -12 13 -6 14 0 18 rrcurveto
          344 vlineto
          0 18 6 14 12 13 13 12 14 6 18 0 rrcurveto
          537 hlineto
          19 0 17 7 13 14 14 13 7 17 0 19 0 19 -7 17 -14 13 -13 14 -17 7 -19 0 rrcurveto
          -666 hlineto
          -20 0 -18 -7 -14 -15 -15 -14 -7 -17 0 -20 rrcurveto
          -1247 vlineto
          0 -19 7 -17 14 -13 13 -14 17 -7 19 0 rrcurveto
          endchar
        </CharString>
        <CharString name="G">
          0 606 -10 rmoveto
          140 0 117 53 95 105 21 24 10 30 0 35 rrcurveto
          448 vlineto
          0 9 -2 7 -5 5 -4 5 -6 2 -7 0 rrcurveto
          -319 hlineto
          -16 0 -15 -6 -13 -11 -13 -11 -7 -16 0 -20 0 -25 8 -19 15 -14 15 -14 16 -7 15 0 rrcurveto
          150 hlineto
          40 0 20 -21 0 -41 rrcurveto
          -238 vlineto
          0 -29 -11 -24 -23 -18 -59 -45 -67 -23 -75 0 -116 0 -84 45 -53 89 -53 90 -28 117 -3 146 rrcurveto
          167 vlineto
          0 74 9 71 19 69 43 181 98 90 152 0 123 0 83 -74 41 -148 10 -33 22 -17 36 0 17 0 15 7 13 13 13 13 6 17 0 22 0 5 -2 8 -3 12 -54 210 -125 105 -195 0 rrcurveto
          -121 0 -92 -31 -62 -62 -120 -118 -62 -178 -3 -238 rrcurveto
          -165 vlineto
          2 -104 18 -101 34 -98 34 -97 50 -79 65 -59 65 -60 85 -30 103 0 rrcurveto
          endchar
        </CharString>
        <CharString name="H">
          0 950 -10 rmoveto
          19 0 17 7 13 14 14 13 7 17 0 19 rrcurveto
          1280 vlineto
          0 19 -7 17 -14 13 -13 14 -17 7 -19 0 -19 0 -17 -7 -13 -14 -14 -13 -7 -17 0 -19 rrcurveto
          -507 vlineto
          0 -18 -6 -14 -12 -13 -13 -12 -14 -6 -18 0 rrcurveto
          -434 hlineto
          -18 0 -14 6 -12 12 -12 13 -6 15 0 17 rrcurveto
          507 vlineto
          0 19 -7 17 -14 13 -14 14 -17 7 -19 0 -19 0 -17 -7 -13 -14 -14 -13 -7 -17 0 -19 rrcurveto
          -1280 vlineto
          0 -19 7 -17 14 -13 13 -14 17 -7 19 0 19 0 17 7 14 14 14 13 7 17 0 19 rrcurveto
          508 vlineto
          0 18 6 14 12 12 12 12 14 6 18 0 rrcurveto
          434 hlineto
          17 0 15 -6 13 -12 12 -12 6 -14 0 -18 rrcurveto
          -508 vlineto
          0 -19 7 -17 14 -13 13 -14 17 -7 19 0 rrcurveto
          endchar
        </CharString>
        <CharString name="I">
          0 920 hmoveto
          19 0 17 7 13 14 14 13 7 17 0 19 0 19 -7 17 -14 13 -13 14 -17 7 -19 0 rrcurveto
          -188 hlineto
          -17 0 -14 6 -13 12 -12 13 -6 14 0 18 rrcurveto
          994 vlineto
          0 18 6 14 12 12 13 12 14 6 17 0 rrcurveto
          188 hlineto
          19 0 17 7 13 14 14 13 7 17 0 19 0 19 -7 17 -14 14 -13 14 -17 7 -19 0 rrcurveto
          -640 hlineto
          -19 0 -17 -7 -13 -14 -14 -14 -7 -17 0 -19 0 -19 7 -17 14 -13 13 -14 17 -7 19 0 rrcurveto
          187 hlineto
          17 0 15 -6 13 -12 12 -12 6 -14 0 -18 rrcurveto
          -994 vlineto
          0 -18 -6 -14 -12 -13 -13 -12 -14 -6 -18 0 rrcurveto
          -187 hlineto
          -19 0 -17 -7 -13 -14 -14 -13 -7 -17 0 -19 0 -19 7 -17 14 -13 13 -14 17 -7 19 0 rrcurveto
          endchar
        </CharString>
        <CharString name="Iacute">
          0 920 20 rmoveto
          19 0 17 7 13 14 14 13 7 17 0 19 0 19 -7 17 -14 13 -13 14 -17 7 -19 0 rrcurveto
          -188 hlineto
          -17 0 -14 6 -13 12 -12 13 -6 14 0 18 rrcurveto
          954 vlineto
          0 18 6 14 12 12 13 12 14 6 17 0 rrcurveto
          188 hlineto
          19 0 17 7 13 14 14 13 7 17 0 19 0 19 -7 17 -14 14 -13 14 -17 7 -19 0 rrcurveto
          -640 hlineto
          -19 0 -17 -7 -13 -14 -14 -14 -7 -17 0 -19 0 -19 7 -17 14 -13 13 -14 17 -7 19 0 rrcurveto
          187 hlineto
          17 0 15 -6 13 -12 12 -12 6 -14 0 -18 rrcurveto
          -954 vlineto
          0 -18 -6 -14 -12 -13 -13 -12 -14 -6 -18 0 rrcurveto
          -187 hlineto
          -19 0 -17 -7 -13 -14 -14 -13 -7 -17 0 -19 0 -19 7 -17 14 -13 13 -14 17 -7 19 0 rrcurveto
          181 1565 rmoveto
          6 0 4 1 7 3 rrcurveto
          283 109 rlineto
          29 11 14 23 0 29 0 13 -3 11 -7 12 -14 22 -20 10 -25 0 -13 0 -10 -3 -11 -6 rrcurveto
          -261 -153 rlineto
          -16 -9 -6 -12 0 -17 0 -8 2 -5 4 -8 8 -16 12 -7 17 0 rrcurveto
          endchar
        </CharString>
        <CharString name="Icircumflex">
          0 920 20 rmoveto
          19 0 17 7 13 14 14 13 7 17 0 19 0 19 -7 17 -14 13 -13 14 -17 7 -19 0 rrcurveto
          -188 hlineto
          -17 0 -14 6 -13 12 -12 13 -6 14 0 18 rrcurveto
          954 vlineto
          0 18 6 14 12 12 13 12 14 6 17 0 rrcurveto
          188 hlineto
          19 0 17 7 13 14 14 13 7 17 0 19 0 19 -7 17 -14 14 -13 14 -17 7 -19 0 rrcurveto
          -640 hlineto
          -19 0 -17 -7 -13 -14 -14 -14 -7 -17 0 -19 0 -19 7 -17 14 -13 13 -14 17 -7 19 0 rrcurveto
          187 hlineto
          17 0 15 -6 13 -12 12 -12 6 -14 0 -18 rrcurveto
          -954 vlineto
          0 -18 -6 -14 -12 -13 -13 -12 -14 -6 -18 0 rrcurveto
          -187 hlineto
          -19 0 -17 -7 -13 -14 -14 -13 -7 -17 0 -19 0 -19 7 -17 14 -13 13 -14 17 -7 19 0 rrcurveto
          73 1575 rmoveto
          9 0 7 2 9 6 rrcurveto
          176 113 rlineto
          14 8 17 6 16 0 15 0 17 -6 14 -8 rrcurveto
          178 -113 rlineto
          8 -5 7 -2 9 0 15 0 10 4 10 12 9 10 3 8 0 12 0 15 -5 11 -12 10 rrcurveto
          -176 144 rlineto
          -29 24 -35 13 -38 0 -37 0 -35 -13 -29 -24 rrcurveto
          -177 -143 rlineto
          -12 -10 -5 -11 0 -15 0 -13 3 -9 9 -10 10 -11 10 -5 15 0 rrcurveto
          endchar
        </CharString>
        <CharString name="Idieresis">
          0 920 20 rmoveto
          19 0 17 7 13 14 14 13 7 17 0 19 0 19 -7 17 -14 13 -13 14 -17 7 -19 0 rrcurveto
          -188 hlineto
          -17 0 -14 6 -13 12 -12 13 -6 14 0 18 rrcurveto
          954 vlineto
          0 18 6 14 12 12 13 12 14 6 17 0 rrcurveto
          188 hlineto
          19 0 17 7 13 14 14 13 7 17 0 19 0 19 -7 17 -14 14 -13 14 -17 7 -19 0 rrcurveto
          -640 hlineto
          -19 0 -17 -7 -13 -14 -14 -14 -7 -17 0 -19 0 -19 7 -17 14 -13 13 -14 17 -7 19 0 rrcurveto
          187 hlineto
          17 0 15 -6 13 -12 12 -12 6 -14 0 -18 rrcurveto
          -954 vlineto
          0 -18 -6 -14 -12 -13 -13 -12 -14 -6 -18 0 rrcurveto
          -187 hlineto
          -19 0 -17 -7 -13 -14 -14 -13 -7 -17 0 -19 0 -19 7 -17 14 -13 13 -14 17 -7 19 0 rrcurveto
          105 1573 rmoveto
          28 0 24 10 19 18 19 19 10 23 0 28 0 29 -10 23 -19 19 -19 19 -24 9 -28 0 -29 0 -25 -9 -19 -19 -19 -19 -10 -23 0 -29 0 -28 10 -23 19 -19 19 -18 25 -10 29 0 rrcurveto
          431 hmoveto
          29 0 25 10 19 18 19 19 10 23 0 28 0 29 -10 23 -19 19 -19 19 -25 9 -29 0 -28 0 -24 -9 -19 -19 -20 -19 -9 -23 0 -29 0 -28 9 -23 20 -19 19 -18 24 -10 28 0 rrcurveto
          endchar
        </CharString>
        <CharString name="Igrave">
          0 920 20 rmoveto
          19 0 17 7 13 14 14 13 7 17 0 19 0 19 -7 17 -14 13 -13 14 -17 7 -19 0 rrcurveto
          -188 hlineto
          -17 0 -14 6 -13 12 -12 13 -6 14 0 18 rrcurveto
          954 vlineto
          0 18 6 14 12 12 13 12 14 6 17 0 rrcurveto
          188 hlineto
          19 0 17 7 13 14 14 13 7 17 0 19 0 19 -7 17 -14 14 -13 14 -17 7 -19 0 rrcurveto
          -640 hlineto
          -19 0 -17 -7 -13 -14 -14 -14 -7 -17 0 -19 0 -19 7 -17 14 -13 13 -14 17 -7 19 0 rrcurveto
          187 hlineto
          17 0 15 -6 13 -12 12 -12 6 -14 0 -18 rrcurveto
          -954 vlineto
          0 -18 -6 -14 -12 -13 -13 -12 -14 -6 -18 0 rrcurveto
          -187 hlineto
          -19 0 -17 -7 -13 -14 -14 -13 -7 -17 0 -19 0 -19 7 -17 14 -13 13 -14 17 -7 19 0 rrcurveto
          481 1565 rmoveto
          17 0 12 7 8 16 4 8 2 5 0 8 0 17 -7 12 -15 9 rrcurveto
          -261 153 rlineto
          -12 6 -10 3 -12 0 -25 0 -20 -10 -14 -22 -7 -12 -3 -11 0 -13 0 -29 14 -23 29 -11 rrcurveto
          283 -109 rlineto
          6 -3 5 -1 6 0 rrcurveto
          endchar
        </CharString>
        <CharString name="J">
          0 590 -10 rmoveto
          73 0 66 16 59 33 59 32 47 44 35 56 34 56 17 63 0 71 rrcurveto
          947 vlineto
          0 19 -7 17 -14 15 -15 14 -17 7 -21 0 rrcurveto
          -413 hlineto
          -19 0 -17 -7 -13 -13 -14 -14 -7 -17 0 -19 0 -19 7 -16 14 -14 14 -15 16 -7 19 0 rrcurveto
          285 hlineto
          17 0 15 -6 12 -11 12 -11 6 -15 0 -18 rrcurveto
          -817 vlineto
          0 -63 -22 -54 -45 -46 -30 -30 -32 -20 -33 -9 -34 -9 -42 -5 -49 0 -68 0 -55 16 -43 32 -43 32 -28 40 -14 48 -10 34 -23 17 -36 0 -20 0 -17 -7 -14 -14 -13 -13 -7 -16 0 -19 rrcurveto
          0 -57 32 -58 64 -60 45 -45 50 -29 53 -14 53 -15 61 -7 70 0 rrcurveto
          endchar
        </CharString>
        <CharString name="K">
          0 1002 -10 rmoveto
          20 0 16 7 14 14 13 14 7 16 0 18 0 11 -3 12 -6 11 rrcurveto
          -413 682 rlineto
          -6 10 -3 10 0 10 0 15 5 13 9 12 rrcurveto
          330 451 rlineto
          10 14 5 15 0 14 0 18 -6 17 -13 14 -13 15 -17 7 -20 0 -22 0 -18 -9 -15 -17 rrcurveto
          -430 -574 rlineto
          -11 -16 -17 -8 -21 0 -12 0 -9 6 -7 11 -6 11 -3 26 0 39 rrcurveto
          461 vlineto
          0 20 -7 16 -14 14 -13 13 -17 7 -19 0 -19 0 -17 -7 -13 -13 -14 -14 -7 -16 0 -20 rrcurveto
          -1281 vlineto
          0 -18 7 -17 14 -13 13 -14 17 -7 19 0 19 0 17 7 13 14 14 13 7 17 0 18 rrcurveto
          362 vlineto
          0 26 8 23 15 20 rrcurveto
          91 131 rlineto
          15 15 17 8 18 0 22 0 18 -10 14 -21 rrcurveto
          361 -586 rlineto
          15 -25 21 -12 27 0 rrcurveto
          endchar
        </CharString>
        <CharString name="L">
          0 982 hmoveto
          18 0 16 7 14 14 13 13 7 16 0 19 0 20 -6 17 -14 14 -13 13 -17 7 -22 0 rrcurveto
          -461 hlineto
          -30 0 -26 11 -20 21 -21 21 -10 26 0 30 rrcurveto
          1089 vlineto
          0 19 -6 17 -12 14 -12 14 -17 7 -22 1 -22 0 -17 -7 -13 -13 -13 -14 -6 -17 0 -19 rrcurveto
          -1221 vlineto
          0 -33 12 -28 23 -23 23 -23 28 -12 33 0 rrcurveto
          endchar
        </CharString>
        <CharString name="M">
          0 968 -10 rmoveto
          19 0 16 7 14 14 15 14 7 16 0 20 rrcurveto
          1260 vlineto
          0 24 -9 21 -18 17 -17 18 -22 9 -24 0 -18 0 -17 -5 -15 -9 -14 -10 -11 -13 -6 -16 rrcurveto
          -211 -550 rlineto
          -13 -32 -19 -16 -25 0 -26 0 -20 16 -13 32 rrcurveto
          -212 550 rlineto
          -6 16 -11 13 -15 10 -14 9 -17 5 -18 0 -24 0 -20 -9 -17 -18 -17 -17 -9 -21 0 -24 rrcurveto
          -1260 vlineto
          0 -20 7 -17 14 -13 13 -14 17 -7 19 0 19 0 16 7 14 14 14 13 7 17 0 20 rrcurveto
          833 vlineto
          0 41 11 20 23 0 16 0 13 -15 12 -29 rrcurveto
          133 -349 rlineto
          7 -19 12 -14 17 -10 16 -9 18 -5 19 0 20 0 18 5 17 11 16 10 12 14 7 17 rrcurveto
          133 350 rlineto
          11 29 13 14 15 0 10 0 9 -4 8 -7 7 -7 4 -17 0 -26 rrcurveto
          -833 vlineto
          0 -20 7 -17 14 -13 13 -14 17 -7 19 0 rrcurveto
          endchar
        </CharString>
        <CharString name="N">
          0 941 -10 rmoveto
          24 0 21 9 17 17 18 18 9 21 0 25 rrcurveto
          1260 vlineto
          0 20 -7 16 -14 14 -13 13 -17 7 -19 0 -19 0 -17 -7 -13 -13 -14 -14 -7 -16 0 -20 rrcurveto
          -880 vlineto
          0 -41 -10 -20 -19 0 -16 0 -15 14 -15 29 rrcurveto
          -474 915 rlineto
          -19 35 -27 18 -35 0 -24 0 -22 -9 -17 -18 -18 -17 -9 -21 0 -24 rrcurveto
          -1260 vlineto
          0 -20 7 -17 14 -13 13 -14 17 -7 19 0 20 0 17 7 13 14 14 13 7 17 0 20 rrcurveto
          880 vlineto
          0 40 10 20 21 0 15 0 14 -14 14 -27 rrcurveto
          474 -916 rlineto
          18 -36 28 -18 36 0 rrcurveto
          endchar
        </CharString>
        <CharString name="Ntilde">
          0 941 -10 rmoveto
          24 0 21 9 17 17 18 18 9 21 0 25 rrcurveto
          1260 vlineto
          0 20 -7 16 -14 14 -13 13 -17 7 -19 0 -19 0 -17 -7 -13 -13 -14 -14 -7 -16 0 -20 rrcurveto
          -880 vlineto
          0 -27 -13 -14 -27 0 -16 0 -11 8 -8 15 rrcurveto
          -474 915 rlineto
          -20 35 -27 18 -34 0 -24 0 -22 -9 -17 -18 -18 -17 -9 -21 0 -24 rrcurveto
          -1260 vlineto
          0 -20 7 -17 14 -13 13 -14 17 -7 19 0 20 0 17 7 13 14 14 13 7 17 0 20 rrcurveto
          880 vlineto
          0 27 13 13 26 0 15 0 11 -7 9 -14 rrcurveto
          474 -916 rlineto
          20 -36 28 -18 34 0 rrcurveto
          -222 1620 rmoveto
          71 0 55 33 47 72 6 9 2 7 0 10 0 20 -8 17 -20 6 -9 5 -6 1 -8 0 -15 0 -11 -5 -10 -12 -8 -10 -9 -10 -8 -6 -19 -17 -25 -10 -25 0 -28 0 -31 10 -23 19 rrcurveto
          -22 16 -22 15 -25 16 -24 14 -27 7 -36 0 -48 0 -38 -15 -34 -32 -19 -20 -17 -19 -16 -23 -6 -9 -2 -7 0 -10 0 -19 7 -14 19 -9 8 -4 5 -1 8 0 16 0 12 5 10 14 rrcurveto
          20 24 rlineto
          20 20 27 11 28 0 29 0 29 -11 24 -18 22 -16 24 -16 26 -16 24 -15 26 -7 34 0 rrcurveto
          endchar
        </CharString>
        <CharString name="O">
          0 600 130 rmoveto
          -114 0 -82 67 -49 133 -37 99 -18 124 0 147 0 147 18 124 37 99 49 133 82 67 114 0 114 0 82 -68 49 -135 37 -99 18 -123 0 -145 0 -144 -18 -123 -36 -100 -49 -135 -82 -68 -115 0 rrcurveto
          -140 vmoveto
          139 0 105 54 71 107 83 125 42 183 0 241 0 60 -3 63 -7 67 -7 66 -13 64 -18 62 -19 61 -26 56 -33 49 -33 49 -41 40 -51 29 -51 29 -63 15 -74 0 -138 0 -104 -54 -72 -108 rrcurveto
          -85 -127 -42 -183 0 -238 0 -348 84 -222 167 -96 51 -29 63 -15 75 0 rrcurveto
          endchar
        </CharString>
        <CharString name="Oacute">
          0 600 130 rmoveto
          -114 0 -82 67 -49 133 -37 99 -18 124 0 147 0 147 18 124 37 99 49 133 82 67 114 0 114 0 82 -68 49 -135 37 -99 18 -123 0 -145 0 -144 -18 -123 -36 -100 -49 -135 -82 -68 -115 0 rrcurveto
          -140 vmoveto
          139 0 105 54 71 107 83 125 42 183 0 241 0 60 -3 63 -7 67 -7 66 -13 64 -18 62 -19 61 -26 56 -33 49 -33 49 -41 40 -51 29 -51 29 -63 15 -74 0 -138 0 -104 -54 -72 -108 rrcurveto
          -85 -127 -42 -183 0 -238 0 -348 84 -222 167 -96 51 -29 63 -15 75 0 rrcurveto
          -139 1595 rmoveto
          6 0 4 1 7 3 rrcurveto
          283 109 rlineto
          29 11 14 23 0 29 0 13 -3 11 -7 12 -14 22 -20 10 -25 0 -13 0 -10 -3 -11 -6 rrcurveto
          -261 -153 rlineto
          -16 -9 -6 -12 0 -17 0 -8 2 -5 4 -8 8 -16 12 -7 17 0 rrcurveto
          endchar
        </CharString>
        <CharString name="Ocircumflex">
          0 600 130 rmoveto
          -114 0 -82 67 -49 133 -37 99 -18 124 0 147 0 147 18 124 37 99 49 133 82 67 114 0 114 0 82 -68 49 -135 37 -99 18 -123 0 -145 0 -144 -18 -123 -36 -100 -49 -135 -82 -68 -115 0 rrcurveto
          -140 vmoveto
          139 0 105 54 71 107 83 125 42 183 0 241 0 60 -3 63 -7 67 -7 66 -13 64 -18 62 -19 61 -26 56 -33 49 -33 49 -41 40 -51 29 -51 29 -63 15 -74 0 -138 0 -104 -54 -72 -108 rrcurveto
          -85 -127 -42 -183 0 -238 0 -348 84 -222 167 -96 51 -29 63 -15 75 0 rrcurveto
          -247 1605 rmoveto
          9 0 7 2 9 6 rrcurveto
          176 113 rlineto
          14 8 17 6 16 0 15 0 17 -6 14 -8 rrcurveto
          178 -113 rlineto
          8 -5 7 -2 9 0 15 0 10 4 10 12 9 10 3 8 0 12 0 15 -5 11 -12 10 rrcurveto
          -176 144 rlineto
          -29 24 -35 13 -38 0 -37 0 -35 -13 -29 -24 rrcurveto
          -177 -143 rlineto
          -12 -10 -5 -11 0 -15 0 -13 3 -9 9 -10 10 -11 10 -5 15 0 rrcurveto
          endchar
        </CharString>
        <CharString name="Odieresis">
          0 600 130 rmoveto
          -114 0 -82 67 -49 133 -37 99 -18 124 0 147 0 147 18 124 37 99 49 133 82 67 114 0 114 0 82 -68 49 -135 37 -99 18 -123 0 -145 0 -144 -18 -123 -36 -100 -49 -135 -82 -68 -115 0 rrcurveto
          -140 vmoveto
          139 0 105 54 71 107 83 125 42 183 0 241 0 60 -3 63 -7 67 -7 66 -13 64 -18 62 -19 61 -26 56 -33 49 -33 49 -41 40 -51 29 -51 29 -63 15 -74 0 -138 0 -104 -54 -72 -108 rrcurveto
          -85 -127 -42 -183 0 -238 0 -348 84 -222 167 -96 51 -29 63 -15 75 0 rrcurveto
          -215 1603 rmoveto
          28 0 24 10 19 18 19 19 10 23 0 28 0 29 -10 23 -19 19 -19 19 -24 9 -28 0 -29 0 -25 -9 -19 -19 -19 -19 -10 -23 0 -29 0 -28 10 -23 19 -19 19 -18 25 -10 29 0 rrcurveto
          431 hmoveto
          29 0 25 10 19 18 19 19 10 23 0 28 0 29 -10 23 -19 19 -19 19 -25 9 -29 0 -28 0 -24 -9 -19 -19 -20 -19 -9 -23 0 -29 0 -28 9 -23 20 -19 19 -18 24 -10 28 0 rrcurveto
          endchar
        </CharString>
        <CharString name="Ograve">
          0 600 130 rmoveto
          -114 0 -82 67 -49 133 -37 99 -18 124 0 147 0 147 18 124 37 99 49 133 82 67 114 0 114 0 82 -68 49 -135 37 -99 18 -123 0 -145 0 -144 -18 -123 -36 -100 -49 -135 -82 -68 -115 0 rrcurveto
          -140 vmoveto
          139 0 105 54 71 107 83 125 42 183 0 241 0 60 -3 63 -7 67 -7 66 -13 64 -18 62 -19 61 -26 56 -33 49 -33 49 -41 40 -51 29 -51 29 -63 15 -74 0 -138 0 -104 -54 -72 -108 rrcurveto
          -85 -127 -42 -183 0 -238 0 -348 84 -222 167 -96 51 -29 63 -15 75 0 rrcurveto
          161 1595 rmoveto
          17 0 12 7 8 16 4 8 2 5 0 8 0 17 -7 12 -15 9 rrcurveto
          -261 153 rlineto
          -12 6 -10 3 -12 0 -25 0 -20 -10 -14 -22 -7 -12 -3 -11 0 -13 0 -29 14 -23 29 -11 rrcurveto
          283 -109 rlineto
          6 -3 5 -1 6 0 rrcurveto
          endchar
        </CharString>
        <CharString name="Oslash">
          0 600 130 rmoveto
          -114 0 -82 67 -49 133 -37 99 -18 124 0 147 0 147 18 124 37 99 49 133 82 67 114 0 114 0 82 -68 49 -135 37 -99 18 -123 0 -145 0 -144 -18 -123 -36 -100 -49 -135 -82 -68 -115 0 rrcurveto
          -140 vmoveto
          139 0 105 54 71 107 83 125 42 183 0 241 0 60 -3 63 -7 67 -7 66 -13 64 -18 62 -19 61 -26 56 -33 49 -33 49 -41 40 -51 29 -51 29 -63 15 -74 0 -138 0 -104 -54 -72 -108 rrcurveto
          -85 -127 -42 -183 0 -238 0 -348 84 -222 167 -96 51 -29 63 -15 75 0 rrcurveto
          -360 -170 rmoveto
          13 0 12 4 12 7 12 8 9 10 6 13 rrcurveto
          720 1620 rlineto
          4 10 2 10 0 9 0 13 -4 12 -7 12 -13 21 -20 11 -26 0 -13 0 -12 -4 -12 -7 -12 -7 -9 -10 -6 -13 rrcurveto
          -720 -1620 rlineto
          -4 -10 -2 -9 0 -9 0 -13 4 -13 7 -12 14 -22 20 -11 25 0 rrcurveto
          endchar
        </CharString>
        <CharString name="Otilde">
          0 600 130 rmoveto
          -114 0 -82 67 -49 133 -37 99 -18 124 0 147 0 147 18 124 37 99 49 133 82 67 114 0 114 0 82 -68 49 -135 37 -99 18 -123 0 -145 0 -144 -18 -123 -36 -100 -49 -135 -82 -68 -115 0 rrcurveto
          -140 vmoveto
          139 0 105 54 71 107 83 125 42 183 0 241 0 60 -3 63 -7 67 -7 66 -13 64 -18 62 -19 61 -26 56 -33 49 -33 49 -41 40 -51 29 -51 29 -63 15 -74 0 -138 0 -104 -54 -72 -108 rrcurveto
          -85 -127 -42 -183 0 -238 0 -348 84 -222 167 -96 51 -29 63 -15 75 0 rrcurveto
          119 1620 rmoveto
          71 0 55 33 47 72 6 9 2 7 0 10 0 20 -8 17 -20 6 -9 5 -6 1 -8 0 -15 0 -11 -5 -10 -12 -8 -10 -9 -10 -8 -6 -19 -17 -25 -10 -25 0 -28 0 -31 10 -23 19 rrcurveto
          -22 16 -22 15 -25 16 -24 14 -27 7 -36 0 -48 0 -38 -15 -34 -32 -19 -20 -17 -19 -16 -23 -6 -9 -2 -7 0 -10 0 -19 7 -14 19 -9 8 -4 5 -1 8 0 16 0 12 5 10 14 rrcurveto
          20 24 rlineto
          20 20 27 11 28 0 29 0 29 -11 24 -18 22 -16 24 -16 26 -16 24 -15 26 -7 34 0 rrcurveto
          endchar
        </CharString>
        <CharString name="P">
          0 677 740 rmoveto
          -234 hlineto
          -18 0 -14 6 -13 12 -12 13 -6 14 0 18 rrcurveto
          394 vlineto
          0 18 6 14 12 12 13 12 15 6 17 0 rrcurveto
          234 hlineto
          41 0 37 -9 34 -19 34 -19 27 -28 20 -36 20 -37 10 -45 0 -53 0 -94 -22 -69 -44 -44 -44 -44 -52 -22 -61 0 rrcurveto
          -367 -750 rmoveto
          19 0 17 7 13 14 14 13 7 17 0 19 rrcurveto
          477 vlineto
          0 18 6 14 12 13 13 12 14 6 18 0 rrcurveto
          234 hlineto
          65 0 61 17 55 35 55 35 44 48 33 62 33 62 17 72 0 82 0 65 -9 55 -17 42 -17 43 -27 39 -35 35 -72 72 -86 36 -100 0 rrcurveto
          -363 hlineto
          -20 0 -18 -7 -14 -15 -15 -15 -7 -17 0 -20 rrcurveto
          -1266 vlineto
          0 -19 7 -17 14 -13 13 -14 17 -7 19 0 rrcurveto
          endchar
        </CharString>
        <CharString name="Q">
          0 600 130 rmoveto
          -114 0 -82 67 -49 133 -37 99 -18 124 0 147 0 147 18 124 37 99 49 133 82 67 114 0 114 0 82 -68 49 -135 37 -99 18 -123 0 -145 0 -144 -18 -123 -36 -100 -49 -135 -82 -68 -115 0 rrcurveto
          -140 vmoveto
          139 0 105 54 71 107 83 125 42 183 0 241 0 60 -3 63 -7 67 -7 66 -13 64 -18 62 -19 61 -26 56 -33 49 -33 49 -41 40 -51 29 -51 29 -63 15 -74 0 -138 0 -104 -54 -72 -108 rrcurveto
          -85 -127 -42 -183 0 -238 0 -348 84 -222 167 -96 51 -29 63 -15 75 0 rrcurveto
          386 -391 rmoveto
          19 0 17 7 14 15 14 15 7 16 0 17 0 14 -4 13 -9 13 -9 12 -11 9 -14 5 rrcurveto
          -390 142 rlineto
          -8 3 -8 2 -7 0 -20 0 -16 -7 -14 -15 -14 -15 -7 -16 0 -17 0 -14 4 -13 9 -12 9 -13 11 -9 13 -5 rrcurveto
          391 -142 rlineto
          8 -3 8 -2 7 0 rrcurveto
          endchar
        </CharString>
        <CharString name="R">
          0 638 730 rmoveto
          -224 hlineto
          -18 0 -14 6 -13 12 -12 13 -6 14 0 18 rrcurveto
          384 vlineto
          0 18 6 14 12 12 13 12 15 6 17 0 rrcurveto
          224 hlineto
          41 0 37 -9 34 -17 34 -17 27 -27 20 -37 20 -37 10 -46 0 -55 0 -55 -10 -48 -21 -39 -21 -39 -27 -31 -34 -21 -33 -21 -37 -10 -40 0 rrcurveto
          329 -740 rmoveto
          20 0 17 7 14 15 13 14 7 16 0 19 0 10 -3 11 -5 11 rrcurveto
          -281 440 rlineto
          -6 10 -3 13 0 16 0 22 12 16 25 11 91 40 64 68 39 97 20 49 10 56 0 63 0 70 -9 55 -17 41 -18 40 -27 37 -35 35 -71 72 -86 36 -100 0 rrcurveto
          -354 hlineto
          -20 0 -17 -7 -15 -15 -15 -15 -7 -17 0 -20 rrcurveto
          -1245 vlineto
          0 -20 7 -17 14 -13 14 -14 17 -7 21 0 18 0 16 7 14 14 13 13 7 17 0 20 rrcurveto
          466 vlineto
          0 17 6 15 13 13 12 12 15 6 17 0 rrcurveto
          109 hlineto
          22 0 18 -10 13 -21 rrcurveto
          330 -532 rlineto
          16 -25 20 -12 25 0 rrcurveto
          endchar
        </CharString>
        <CharString name="S">
          0 610 -10 rmoveto
          79 0 66 14 54 27 54 27 49 41 43 55 43 54 22 67 0 80 0 132 -68 107 -135 82 -51 30 -69 30 -88 31 -168 57 -85 91 -2 127 0 72 25 56 49 41 49 41 61 20 73 0 rrcurveto
          61 0 55 -12 49 -25 49 -25 32 -34 16 -41 14 -40 22 -20 31 0 38 0 19 23 0 45 0 8 -1 8 -2 9 -17 69 -41 58 -67 46 -67 46 -89 23 -110 0 -71 0 -64 -14 -56 -28 rrcurveto
          -56 -28 -47 -42 -37 -57 -38 -57 -19 -74 0 -89 0 -177 125 -132 249 -88 42 -14 43 -18 43 -22 109 -51 54 -67 0 -82 0 -91 -39 -66 -79 -43 -47 -25 -49 -12 -52 0 -113 0 -101 55 -88 109 rrcurveto
          -21 27 -22 13 -21 0 -19 0 -16 -7 -12 -14 -12 -15 -6 -19 0 -24 0 -9 2 -7 3 -7 26 -58 53 -55 81 -53 80 -53 87 -26 95 0 rrcurveto
          endchar
        </CharString>
        <CharString name="T">
          0 600 -10 rmoveto
          19 0 17 7 13 14 14 13 7 17 0 19 rrcurveto
          1137 vlineto
          0 18 6 14 12 13 13 12 14 6 18 0 rrcurveto
          247 hlineto
          19 0 17 7 13 13 14 14 7 16 0 19 0 19 -7 17 -14 14 -13 14 -17 7 -19 0 rrcurveto
          -760 hlineto
          -19 0 -17 -7 -13 -14 -14 -14 -7 -17 0 -19 0 -19 7 -16 14 -14 13 -13 17 -7 19 0 rrcurveto
          247 hlineto
          20 0 16 -6 11 -13 11 -12 5 -15 0 -17 rrcurveto
          -1137 vlineto
          0 -19 7 -17 14 -13 13 -14 17 -7 19 0 rrcurveto
          endchar
        </CharString>
        <CharString name="Thorn">
          0 677 420 rmoveto
          -234 hlineto
          -18 0 -14 6 -13 12 -12 13 -6 14 0 18 rrcurveto
          494 vlineto
          0 18 6 14 12 12 13 12 15 6 17 0 rrcurveto
          234 hlineto
          41 0 38 -11 33 -22 34 -23 28 -29 24 -36 23 -36 12 -62 0 -87 0 -107 -22 -79 -43 -51 -44 -51 -56 -25 -68 0 rrcurveto
          -297 -360 rmoveto
          157 vlineto
          0 18 6 14 12 13 13 12 14 6 18 0 rrcurveto
          234 hlineto
          72 0 62 17 52 35 52 35 44 51 36 69 37 69 18 82 0 95 0 82 -10 67 -21 54 -21 53 -28 46 -35 37 -72 72 -86 36 -100 0 rrcurveto
          -297 160 hlineto
          0 19 -7 17 -14 13 -13 14 -17 7 -19 0 -19 0 -17 -7 -13 -14 -14 -13 -7 -17 0 -19 rrcurveto
          -1280 vlineto
          0 -19 7 -17 14 -13 13 -14 17 -7 19 0 19 0 17 7 13 14 14 13 7 17 0 19 rrcurveto
          endchar
        </CharString>
        <CharString name="U">
          0 599 -10 rmoveto
          88 0 75 21 62 42 63 41 48 60 34 76 34 77 17 90 0 104 rrcurveto
          843 vlineto
          0 19 -7 17 -14 13 -13 14 -17 7 -19 0 -19 0 -17 -7 -14 -14 -14 -13 -7 -17 0 -19 rrcurveto
          -843 vlineto
          0 -68 -10 -62 -21 -55 -20 -56 -31 -44 -42 -32 -42 -33 -52 -16 -62 0 -62 0 -52 17 -41 33 -42 34 -31 44 -20 56 -21 55 -10 61 0 66 rrcurveto
          843 vlineto
          0 19 -7 17 -14 13 -13 14 -17 7 -19 0 -19 0 -17 -7 -13 -14 -14 -13 -7 -17 0 -19 rrcurveto
          -843 vlineto
          0 -104 17 -90 33 -77 34 -76 48 -60 63 -41 62 -42 75 -21 87 0 rrcurveto
          endchar
        </CharString>
        <CharString name="Uacute">
          0 599 -10 rmoveto
          88 0 75 21 62 42 63 41 48 60 34 76 34 77 17 90 0 104 rrcurveto
          843 vlineto
          0 19 -7 17 -14 13 -13 14 -17 7 -19 0 -19 0 -17 -7 -14 -14 -14 -13 -7 -17 0 -19 rrcurveto
          -843 vlineto
          0 -68 -10 -62 -21 -55 -20 -56 -31 -44 -42 -32 -42 -33 -52 -16 -62 0 -62 0 -52 17 -41 33 -42 34 -31 44 -20 56 -21 55 -10 61 0 66 rrcurveto
          843 vlineto
          0 19 -7 17 -14 13 -13 14 -17 7 -19 0 -19 0 -17 -7 -13 -14 -14 -13 -7 -17 0 -19 rrcurveto
          -843 vlineto
          0 -104 17 -90 33 -77 34 -76 48 -60 63 -41 62 -42 75 -21 87 0 rrcurveto
          -138 1595 rmoveto
          6 0 4 1 7 3 rrcurveto
          283 109 rlineto
          29 11 14 23 0 29 0 13 -3 11 -7 12 -14 22 -20 10 -25 0 -13 0 -10 -3 -11 -6 rrcurveto
          -261 -153 rlineto
          -16 -9 -6 -12 0 -17 0 -8 2 -5 4 -8 8 -16 12 -7 17 0 rrcurveto
          endchar
        </CharString>
        <CharString name="Ucircumflex">
          0 599 -10 rmoveto
          88 0 75 21 62 42 63 41 48 60 34 76 34 77 17 90 0 104 rrcurveto
          843 vlineto
          0 19 -7 17 -14 13 -13 14 -17 7 -19 0 -19 0 -17 -7 -14 -14 -14 -13 -7 -17 0 -19 rrcurveto
          -843 vlineto
          0 -68 -10 -62 -21 -55 -20 -56 -31 -44 -42 -32 -42 -33 -52 -16 -62 0 -62 0 -52 17 -41 33 -42 34 -31 44 -20 56 -21 55 -10 61 0 66 rrcurveto
          843 vlineto
          0 19 -7 17 -14 13 -13 14 -17 7 -19 0 -19 0 -17 -7 -13 -14 -14 -13 -7 -17 0 -19 rrcurveto
          -843 vlineto
          0 -104 17 -90 33 -77 34 -76 48 -60 63 -41 62 -42 75 -21 87 0 rrcurveto
          -214 1603 rmoveto
          28 0 24 10 19 18 19 19 10 23 0 28 0 29 -10 23 -19 19 -19 19 -24 9 -28 0 -29 0 -25 -9 -19 -19 -19 -19 -10 -23 0 -29 0 -28 10 -23 19 -19 19 -18 25 -10 29 0 rrcurveto
          431 hmoveto
          29 0 25 10 19 18 19 19 10 23 0 28 0 29 -10 23 -19 19 -19 19 -25 9 -29 0 -28 0 -24 -9 -19 -19 -20 -19 -9 -23 0 -29 0 -28 9 -23 20 -19 19 -18 24 -10 28 0 rrcurveto
          endchar
        </CharString>
        <CharString name="Udieresis">
          0 599 -10 rmoveto
          88 0 75 21 62 42 63 41 48 60 34 76 34 77 17 90 0 104 rrcurveto
          843 vlineto
          0 19 -7 17 -14 13 -13 14 -17 7 -19 0 -19 0 -17 -7 -14 -14 -14 -13 -7 -17 0 -19 rrcurveto
          -843 vlineto
          0 -68 -10 -62 -21 -55 -20 -56 -31 -44 -42 -32 -42 -33 -52 -16 -62 0 -62 0 -52 17 -41 33 -42 34 -31 44 -20 56 -21 55 -10 61 0 66 rrcurveto
          843 vlineto
          0 19 -7 17 -14 13 -13 14 -17 7 -19 0 -19 0 -17 -7 -13 -14 -14 -13 -7 -17 0 -19 rrcurveto
          -843 vlineto
          0 -104 17 -90 33 -77 34 -76 48 -60 63 -41 62 -42 75 -21 87 0 rrcurveto
          -246 1605 rmoveto
          9 0 7 2 9 6 rrcurveto
          176 113 rlineto
          14 8 17 6 16 0 15 0 17 -6 14 -8 rrcurveto
          178 -113 rlineto
          8 -5 7 -2 9 0 15 0 10 4 10 12 9 10 3 8 0 12 0 15 -5 11 -12 10 rrcurveto
          -176 144 rlineto
          -29 24 -35 13 -38 0 -37 0 -35 -13 -29 -24 rrcurveto
          -177 -143 rlineto
          -12 -10 -5 -11 0 -15 0 -13 3 -9 9 -10 10 -11 10 -5 15 0 rrcurveto
          endchar
        </CharString>
        <CharString name="Ugrave">
          0 599 -10 rmoveto
          88 0 75 21 62 42 63 41 48 60 34 76 34 77 17 90 0 104 rrcurveto
          843 vlineto
          0 19 -7 17 -14 13 -13 14 -17 7 -19 0 -19 0 -17 -7 -14 -14 -14 -13 -7 -17 0 -19 rrcurveto
          -843 vlineto
          0 -68 -10 -62 -21 -55 -20 -56 -31 -44 -42 -32 -42 -33 -52 -16 -62 0 -62 0 -52 17 -41 33 -42 34 -31 44 -20 56 -21 55 -10 61 0 66 rrcurveto
          843 vlineto
          0 19 -7 17 -14 13 -13 14 -17 7 -19 0 -19 0 -17 -7 -13 -14 -14 -13 -7 -17 0 -19 rrcurveto
          -843 vlineto
          0 -104 17 -90 33 -77 34 -76 48 -60 63 -41 62 -42 75 -21 87 0 rrcurveto
          162 1595 rmoveto
          17 0 12 7 8 16 4 8 2 5 0 8 0 17 -7 12 -15 9 rrcurveto
          -261 153 rlineto
          -12 6 -10 3 -12 0 -25 0 -20 -10 -14 -22 -7 -12 -3 -11 0 -13 0 -29 14 -23 29 -11 rrcurveto
          283 -109 rlineto
          6 -3 5 -1 6 0 rrcurveto
          endchar
        </CharString>
        <CharString name="V">
          0 600 323 rmoveto
          -17 0 -14 16 -9 33 rrcurveto
          -271 1003 rlineto
          -5 15 -8 13 -13 10 -13 9 -14 5 -16 0 -20 0 -17 -7 -13 -15 -13 -15 -7 -16 0 -19 0 -7 119 -431 237 -855 6 -22 12 -18 18 -14 17 -14 20 -7 21 0 21 0 20 7 18 14 rrcurveto
          17 14 12 18 6 22 237 855 119 431 0 7 0 19 -7 16 -13 15 -13 15 -17 7 -20 0 -16 0 -14 -5 -13 -9 -13 -10 -8 -13 -5 -15 rrcurveto
          -271 -1003 rlineto
          -9 -33 -14 -16 -17 0 rrcurveto
          endchar
        </CharString>
        <CharString name="W">
          0 600 692 rmoveto
          15 0 11 -12 8 -25 rrcurveto
          188 -605 rlineto
          6 -20 11 -15 16 -10 15 -10 18 -5 19 0 23 0 21 8 17 16 17 16 10 20 1 25 rrcurveto
          68 1271 rlineto
          0 17 -7 15 -14 13 -15 13 -17 6 -19 0 -19 0 -16 -6 -13 -13 -13 -13 -8 -17 -1 -20 rrcurveto
          -43 -868 rlineto
          -1 -45 -8 -23 -14 0 -17 0 -15 19 -11 39 rrcurveto
          -134 454 rlineto
          -6 19 -10 15 -15 11 -15 11 -16 5 -17 0 -17 0 -16 -5 -15 -11 -15 -11 -10 -15 -6 -19 rrcurveto
          -134 -454 rlineto
          -11 -39 -15 -19 -17 0 -14 0 -8 23 -1 45 rrcurveto
          -43 868 rlineto
          -1 20 -8 17 -13 13 -13 13 -16 6 -19 0 -19 0 -17 -6 -14 -13 -15 -13 -7 -15 0 -17 rrcurveto
          68 -1271 rlineto
          1 -25 10 -20 17 -16 17 -16 21 -8 23 0 19 0 18 5 16 10 15 10 11 15 6 20 rrcurveto
          188 605 rlineto
          8 25 11 12 15 0 rrcurveto
          endchar
        </CharString>
        <CharString name="X">
          0 961 -10 rmoveto
          21 0 17 8 13 15 13 15 7 17 0 19 0 14 -3 12 -6 10 rrcurveto
          -323 582 rlineto
          -5 9 -3 10 0 11 0 11 2 10 5 9 rrcurveto
          301 557 rlineto
          6 11 3 12 0 13 0 20 -7 17 -13 15 -13 15 -17 8 -21 0 -29 0 -21 -13 -15 -27 rrcurveto
          -237 -458 rlineto
          -8 -15 -11 -7 -14 0 -15 0 -11 7 -8 15 rrcurveto
          -237 458 rlineto
          -15 27 -22 13 -30 0 -20 0 -17 -8 -14 -15 -13 -15 -7 -17 0 -20 0 -13 3 -12 6 -11 rrcurveto
          301 -557 rlineto
          5 -9 2 -10 0 -11 0 -11 -3 -10 -5 -9 rrcurveto
          -323 -582 rlineto
          -7 -13 -3 -12 0 -12 0 -19 7 -17 14 -15 14 -15 18 -7 21 0 28 0 21 13 14 26 rrcurveto
          263 504 rlineto
          8 13 10 7 15 0 15 0 10 -7 8 -13 rrcurveto
          260 -504 rlineto
          13 -26 22 -13 30 0 rrcurveto
          endchar
        </CharString>
        <CharString name="Y">
          0 601 -10 rmoveto
          19 0 16 7 14 14 13 13 7 17 0 20 rrcurveto
          632 vlineto
          0 17 4 16 9 18 rrcurveto
          315 562 rlineto
          7 11 3 12 0 12 0 18 -6 16 -13 14 -13 14 -16 7 -20 0 -13 0 -12 -3 -12 -6 -12 -6 -9 -8 -6 -11 rrcurveto
          -230 -416 rlineto
          -15 -26 -16 -13 -17 0 -18 0 -16 13 -15 26 rrcurveto
          -226 416 rlineto
          -13 23 -22 11 -31 0 -20 0 -16 -7 -13 -14 -13 -14 -7 -16 0 -17 0 -12 3 -12 7 -12 rrcurveto
          317 -564 rlineto
          10 -17 5 -19 0 -19 rrcurveto
          -626 vlineto
          0 -20 7 -17 14 -13 13 -14 17 -7 20 0 rrcurveto
          endchar
        </CharString>
        <CharString name="Yacute">
          0 601 -10 rmoveto
          19 0 16 7 14 14 13 13 7 17 0 20 rrcurveto
          632 vlineto
          0 17 4 16 9 18 rrcurveto
          315 562 rlineto
          7 12 3 12 0 11 0 18 -6 16 -13 14 -13 14 -16 7 -20 0 -13 0 -12 -3 -12 -6 -12 -6 -9 -8 -6 -11 rrcurveto
          -226 -406 rlineto
          -14 -19 -17 -10 -21 0 -22 0 -17 10 -14 19 rrcurveto
          -222 406 rlineto
          -14 23 -22 11 -30 0 -20 0 -16 -7 -13 -14 -13 -14 -7 -16 0 -17 0 -12 3 -12 7 -12 rrcurveto
          317 -564 rlineto
          10 -15 5 -19 0 -21 rrcurveto
          -626 vlineto
          0 -20 7 -17 14 -13 13 -14 17 -7 20 0 rrcurveto
          -140 1595 rmoveto
          6 0 4 1 7 3 rrcurveto
          283 109 rlineto
          29 11 14 23 0 29 0 13 -3 11 -7 12 -14 22 -20 10 -25 0 -13 0 -10 -3 -11 -6 rrcurveto
          -261 -153 rlineto
          -16 -9 -6 -12 0 -17 0 -8 2 -5 4 -8 8 -16 12 -7 17 0 rrcurveto
          endchar
        </CharString>
        <CharString name="Z">
          0 940 20 rmoveto
          19 0 17 7 13 14 14 13 7 17 0 19 0 20 -7 16 -14 14 -13 13 -17 7 -19 0 rrcurveto
          -483 hlineto
          -21 0 -18 3 -13 7 -13 7 -7 11 0 15 0 15 6 18 13 20 rrcurveto
          591 944 rlineto
          10 17 5 20 0 24 0 33 -12 28 -23 23 -23 23 -28 12 -32 0 rrcurveto
          -631 hlineto
          -18 0 -16 -7 -14 -14 -15 -14 -7 -16 0 -19 0 -20 7 -16 15 -14 14 -14 16 -7 18 0 rrcurveto
          483 hlineto
          28 0 20 -4 10 -7 11 -8 5 -10 0 -12 0 -15 -6 -17 -12 -20 rrcurveto
          -592 -944 rlineto
          -11 -19 -6 -20 0 -22 0 -33 12 -29 24 -23 23 -24 29 -12 33 0 rrcurveto
          endchar
        </CharString>
        <CharString name="a">
          0 505 145 rmoveto
          -139 0 -69 88 0 177 1 96 14 84 25 72 25 72 38 57 50 42 51 43 57 21 65 0 78 0 58 -36 39 -72 24 -46 12 -49 0 -52 0 -121 -30 -112 -60 -102 -65 -106 -80 -54 -94 -2 rrcurveto
          476 -155 rmoveto
          17 0 14 4 9 7 17 13 8 19 0 24 0 10 -1 7 -3 4 -46 65 -24 120 -1 175 0 223 9 185 19 148 0 18 -5 14 -11 10 -18 16 -19 8 -18 0 -37 0 -23 -19 -8 -37 rrcurveto
          -5 -24 -13 -12 -20 0 -14 0 -12 6 -10 11 -42 49 -55 25 -68 1 -96 0 -83 -31 -70 -62 -71 -62 -54 -80 -37 -98 -37 -98 -18 -109 0 -119 0 -136 29 -103 58 -69 58 -69 85 -34 111 0 rrcurveto
          59 0 60 19 62 39 62 39 41 48 20 57 7 18 10 9 15 0 17 0 11 -8 4 -16 rrcurveto
          17 -62 rlineto
          26 -95 33 -48 41 0 rrcurveto
          endchar
        </CharString>
        <CharString name="a_alt">
          0 914 -10 rmoveto
          39 0 27 26 0 39 rrcurveto
          671 vlineto
          0 210 -141 124 -239 0 -110 0 -88 -25 -72 -53 -48 -34 -53 -43 0 -43 0 -46 24 -28 40 0 26 0 21 13 13 14 72 81 66 40 105 0 76 0 63 -20 44 -39 53 -51 12 -46 0 -103 rrcurveto
          0 -54 -25 -32 -67 0 -33 0 -29 8 -25 4 -40 6 -38 2 -41 0 -232 0 -161 -97 0 -223 0 -184 117 -117 227 0 90 0 70 10 54 23 54 22 41 36 42 64 rrcurveto
          -89 vlineto
          0 -39 27 -27 39 0 rrcurveto
          -374 108 rmoveto
          -159 0 -73 78 0 125 0 178 190 10 48 1 rrcurveto
          24 hlineto
          71 0 101 -9 54 -37 18 -13 30 -26 0 -42 rrcurveto
          -43 vlineto
          0 -133 -134 -89 -170 0 rrcurveto
          endchar
        </CharString>
        <CharString name="aacute">
          0 505 145 rmoveto
          -139 0 -69 88 0 177 1 96 14 84 25 72 25 72 38 57 50 42 51 43 57 21 65 0 78 0 58 -36 39 -72 24 -46 12 -49 0 -52 0 -121 -30 -112 -60 -102 -65 -106 -80 -54 -94 -2 rrcurveto
          476 -155 rmoveto
          17 0 14 4 9 7 17 13 8 19 0 24 0 10 -1 7 -3 4 -46 65 -24 120 -1 175 0 223 9 185 19 148 0 19 -5 14 -11 9 -18 16 -19 8 -18 0 -39 0 -23 -19 -6 -37 rrcurveto
          -5 -24 -13 -12 -20 0 -14 0 -12 6 -10 11 -42 49 -55 25 -68 1 -96 0 -83 -31 -70 -62 -71 -62 -54 -80 -37 -98 -37 -98 -18 -109 0 -119 0 -136 29 -103 58 -69 58 -69 85 -34 111 0 rrcurveto
          59 0 60 19 62 39 62 39 41 48 20 57 7 18 10 9 15 0 16 0 11 -8 5 -16 rrcurveto
          17 -62 rlineto
          26 -95 33 -48 41 0 rrcurveto
          -520 1295 rmoveto
          6 0 4 1 7 3 rrcurveto
          283 109 rlineto
          29 11 14 23 0 29 0 13 -3 11 -7 12 -14 22 -20 10 -25 0 -13 0 -10 -3 -11 -6 rrcurveto
          -261 -153 rlineto
          -16 -9 -6 -12 0 -17 0 -8 2 -5 4 -8 8 -16 12 -7 17 0 rrcurveto
          endchar
        </CharString>
        <CharString name="aacute_alt">
          0 461 1285 rmoveto
          6 0 4 1 7 3 rrcurveto
          283 109 rlineto
          29 11 14 23 0 29 0 13 -3 11 -7 12 -14 22 -20 10 -25 0 -13 0 -10 -3 -11 -6 rrcurveto
          -261 -153 rlineto
          -16 -9 -6 -12 0 -17 0 -8 2 -5 4 -8 8 -16 12 -7 17 0 rrcurveto
          453 -1295 rmoveto
          39 0 27 26 0 39 rrcurveto
          671 vlineto
          0 210 -141 124 -239 0 -110 0 -88 -25 -72 -53 -48 -34 -53 -43 0 -43 0 -46 24 -28 40 0 26 0 21 13 13 14 72 81 66 40 105 0 76 0 63 -20 44 -39 53 -51 12 -46 0 -103 rrcurveto
          0 -54 -25 -32 -67 0 -33 0 -29 8 -25 4 -40 6 -38 2 -41 0 -232 0 -161 -97 0 -223 0 -184 117 -117 227 0 90 0 70 10 54 23 54 22 41 36 42 64 rrcurveto
          -89 vlineto
          0 -39 27 -27 39 0 rrcurveto
          -374 108 rmoveto
          -159 0 -73 78 0 125 0 178 190 10 48 1 rrcurveto
          24 hlineto
          71 0 101 -9 54 -37 18 -13 30 -26 0 -42 rrcurveto
          -43 vlineto
          0 -133 -134 -89 -170 0 rrcurveto
          endchar
        </CharString>
        <CharString name="acircumflex">
          0 505 145 rmoveto
          -139 0 -69 88 0 177 1 96 14 84 25 72 25 72 38 57 50 42 51 43 57 21 65 0 78 0 58 -36 39 -72 24 -46 12 -49 0 -52 0 -121 -30 -112 -60 -102 -65 -106 -80 -54 -94 -2 rrcurveto
          476 -155 rmoveto
          17 0 14 4 9 7 17 13 8 19 0 24 0 10 -1 7 -3 4 -46 65 -24 120 -1 175 0 223 9 185 19 148 0 19 -5 14 -11 9 -18 16 -19 8 -18 0 -39 0 -23 -19 -6 -37 rrcurveto
          -5 -24 -13 -12 -20 0 -14 0 -12 6 -10 11 -42 49 -55 25 -68 1 -96 0 -83 -31 -70 -62 -71 -62 -54 -80 -37 -98 -37 -98 -18 -109 0 -119 0 -136 29 -103 58 -69 58 -69 85 -34 111 0 rrcurveto
          59 0 60 19 62 39 62 39 41 48 20 57 7 18 10 9 15 0 16 0 11 -8 5 -16 rrcurveto
          17 -62 rlineto
          26 -95 33 -48 41 0 rrcurveto
          -628 1305 rmoveto
          9 0 7 2 9 6 rrcurveto
          176 113 rlineto
          14 8 17 6 16 0 15 0 17 -6 14 -8 rrcurveto
          178 -113 rlineto
          8 -5 7 -2 9 0 15 0 10 4 10 12 9 10 3 8 0 12 0 15 -5 11 -12 10 rrcurveto
          -176 144 rlineto
          -29 24 -35 13 -38 0 -37 0 -35 -13 -29 -24 rrcurveto
          -177 -143 rlineto
          -12 -10 -5 -11 0 -15 0 -13 3 -9 9 -10 10 -11 10 -5 15 0 rrcurveto
          endchar
        </CharString>
        <CharString name="acircumflex_alt">
          0 353 1295 rmoveto
          9 0 7 2 9 6 rrcurveto
          176 113 rlineto
          14 8 17 6 16 0 15 0 17 -6 14 -8 rrcurveto
          178 -113 rlineto
          8 -5 7 -2 9 0 15 0 10 4 10 12 9 10 3 8 0 12 0 15 -5 11 -12 10 rrcurveto
          -176 144 rlineto
          -29 24 -35 13 -38 0 -37 0 -35 -13 -29 -24 rrcurveto
          -177 -143 rlineto
          -12 -10 -5 -11 0 -15 0 -13 3 -9 9 -10 10 -11 10 -5 15 0 rrcurveto
          561 -1305 rmoveto
          39 0 27 26 0 39 rrcurveto
          671 vlineto
          0 210 -141 124 -239 0 -110 0 -88 -25 -72 -53 -48 -34 -53 -43 0 -43 0 -46 24 -28 40 0 26 0 21 13 13 14 72 81 66 40 105 0 76 0 63 -20 44 -39 53 -51 12 -46 0 -103 rrcurveto
          0 -54 -25 -32 -67 0 -33 0 -29 8 -25 4 -40 6 -38 2 -41 0 -232 0 -161 -97 0 -223 0 -184 117 -117 227 0 90 0 70 10 54 23 54 22 41 36 42 64 rrcurveto
          -89 vlineto
          0 -39 27 -27 39 0 rrcurveto
          -374 108 rmoveto
          -159 0 -73 78 0 125 0 178 190 10 48 1 rrcurveto
          24 hlineto
          71 0 101 -9 54 -37 18 -13 30 -26 0 -42 rrcurveto
          -43 vlineto
          0 -133 -134 -89 -170 0 rrcurveto
          endchar
        </CharString>
        <CharString name="acute">
          0 428 1332 rmoveto
          401 162 -67 126 -375 -216 rlineto
          endchar
        </CharString>
        <CharString name="adieresis">
          0 505 145 rmoveto
          -139 0 -69 88 0 177 1 96 14 84 25 72 25 72 38 57 50 42 51 43 57 21 65 0 78 0 58 -36 39 -72 24 -46 12 -49 0 -52 0 -121 -30 -112 -60 -102 -65 -106 -80 -54 -94 -2 rrcurveto
          476 -155 rmoveto
          17 0 14 4 9 7 17 13 8 19 0 24 0 10 -1 7 -3 4 -46 65 -24 120 -1 175 0 223 9 185 19 148 0 19 -5 14 -11 9 -18 16 -19 8 -18 0 -39 0 -23 -19 -6 -37 rrcurveto
          -5 -24 -13 -12 -20 0 -14 0 -12 6 -10 11 -42 49 -55 25 -68 1 -96 0 -83 -31 -70 -62 -71 -62 -54 -80 -37 -98 -37 -98 -18 -109 0 -119 0 -136 29 -103 58 -69 58 -69 85 -34 111 0 rrcurveto
          59 0 60 19 62 39 62 39 41 48 20 57 7 18 10 9 15 0 16 0 11 -8 5 -16 rrcurveto
          17 -62 rlineto
          26 -95 33 -48 41 0 rrcurveto
          -596 1303 rmoveto
          28 0 24 10 19 18 19 19 10 23 0 28 0 29 -10 23 -19 19 -19 19 -24 9 -28 0 -29 0 -25 -9 -19 -19 -19 -19 -10 -23 0 -29 0 -28 10 -23 19 -19 19 -18 25 -10 29 0 rrcurveto
          431 hmoveto
          29 0 25 10 19 18 19 19 10 23 0 28 0 29 -10 23 -19 19 -19 19 -25 9 -29 0 -28 0 -24 -9 -19 -19 -20 -19 -9 -23 0 -29 0 -28 9 -23 20 -19 19 -18 24 -10 28 0 rrcurveto
          endchar
        </CharString>
        <CharString name="adieresis_alt">
          0 385 1293 rmoveto
          28 0 24 10 19 18 19 19 10 23 0 28 0 29 -10 23 -19 19 -19 19 -24 9 -28 0 -29 0 -25 -9 -19 -19 -19 -19 -10 -23 0 -29 0 -28 10 -23 19 -19 19 -18 25 -10 29 0 rrcurveto
          431 hmoveto
          29 0 25 10 19 18 19 19 10 23 0 28 0 29 -10 23 -19 19 -19 19 -25 9 -29 0 -28 0 -24 -9 -19 -19 -20 -19 -9 -23 0 -29 0 -28 9 -23 20 -19 19 -18 24 -10 28 0 rrcurveto
          98 -1303 rmoveto
          39 0 27 26 0 39 rrcurveto
          671 vlineto
          0 210 -141 124 -239 0 -110 0 -88 -25 -72 -53 -48 -34 -53 -43 0 -43 0 -46 24 -28 40 0 26 0 21 13 13 14 72 81 66 40 105 0 76 0 63 -20 44 -39 53 -51 12 -46 0 -103 rrcurveto
          0 -54 -25 -32 -67 0 -33 0 -29 8 -25 4 -40 6 -38 2 -41 0 -232 0 -161 -97 0 -223 0 -184 117 -117 227 0 90 0 70 10 54 23 54 22 41 36 42 64 rrcurveto
          -89 vlineto
          0 -39 27 -27 39 0 rrcurveto
          -374 108 rmoveto
          -159 0 -73 78 0 125 0 178 190 10 48 1 rrcurveto
          24 hlineto
          71 0 101 -9 54 -37 18 -13 30 -26 0 -42 rrcurveto
          -43 vlineto
          0 -133 -134 -89 -170 0 rrcurveto
          endchar
        </CharString>
        <CharString name="ae">
          0 881 -10 rmoveto
          54 0 45 9 42 19 20 10 20 10 20 13 16 10 7 14 0 20 0 15 -3 6 -10 15 -10 16 -12 6 -17 0 -9 0 -7 -2 -9 -5 -13 -8 -13 -7 -11 -6 -32 -14 -36 -8 -38 0 rrcurveto
          -70 0 -58 32 -36 60 -26 42 -20 62 -11 76 rrcurveto
          -1 13 rlineto
          0 48 41 45 47 0 rrcurveto
          364 hlineto
          29 0 19 19 0 32 rrcurveto
          24 vlineto
          0 162 -25 123 -49 90 -50 88 -74 41 -110 0 -59 0 -46 -13 -39 -29 -28 -21 -22 -25 -18 -31 -7 -13 -17 -9 -13 0 -12 0 -17 9 -7 13 -17 31 -20 25 -27 20 -35 30 -50 13 -70 0 rrcurveto
          -42 0 -40 -6 -42 -11 -22 -7 -22 -7 -22 -9 -22 -8 -10 -17 0 -23 0 -7 1 -5 0 -2 rrcurveto
          1 -1 rlineto
          10 -27 15 -11 22 0 6 0 5 1 5 3 15 6 14 4 12 4 30 9 34 4 34 0 59 0 51 -19 33 -36 37 -40 14 -61 0 -80 0 -48 -43 -44 -46 0 rrcurveto
          -16 hlineto
          -131 0 -94 -28 -65 -56 -65 -56 -31 -77 0 -106 0 -96 24 -72 49 -58 50 -56 62 -27 85 0 61 0 46 12 40 28 33 23 31 36 33 50 7 12 16 9 12 0 11 0 16 -9 8 -11 rrcurveto
          30 -47 32 -35 37 -24 44 -30 53 -14 65 0 rrcurveto
          63 589 rmoveto
          -194 hlineto
          -47 0 -42 45 0 48 rrcurveto
          1 10 rlineto
          9 83 16 63 23 39 30 53 49 30 60 0 69 0 52 -33 26 -62 18 -44 12 -59 6 -73 rrcurveto
          -6 vlineto
          0 -48 -41 -46 -47 0 rrcurveto
          -610 -485 rmoveto
          -45 0 -40 20 -28 38 -26 36 -14 55 0 66 0 66 19 57 36 41 41 45 69 18 94 0 44 0 42 -41 2 -46 1 -16 1 -15 2 -16 3 -29 3 -27 5 -27 rrcurveto
          1 -15 rlineto
          0 -16 -4 -17 -7 -13 -26 -48 -27 -39 -27 -27 -32 -32 -42 -18 -45 0 rrcurveto
          endchar
        </CharString>
        <CharString name="agrave">
          0 505 145 rmoveto
          -139 0 -69 88 0 177 1 96 14 84 25 72 25 72 38 57 50 42 51 43 57 21 65 0 78 0 58 -36 39 -72 24 -46 12 -49 0 -52 0 -121 -30 -112 -60 -102 -65 -106 -80 -54 -94 -2 rrcurveto
          476 -155 rmoveto
          17 0 14 4 9 7 17 13 8 19 0 24 0 10 -1 7 -3 4 -46 65 -24 120 -1 175 0 223 9 185 19 148 0 19 -5 14 -11 9 -18 16 -19 8 -18 0 -39 0 -23 -19 -6 -37 rrcurveto
          -5 -24 -13 -12 -20 0 -14 0 -12 6 -10 11 -42 49 -55 25 -68 1 -96 0 -83 -31 -70 -62 -71 -62 -54 -80 -37 -98 -37 -98 -18 -109 0 -119 0 -136 29 -103 58 -69 58 -69 85 -34 111 0 rrcurveto
          59 0 60 19 62 39 62 39 41 48 20 57 7 18 10 9 15 0 16 0 11 -8 5 -16 rrcurveto
          17 -62 rlineto
          26 -95 33 -48 41 0 rrcurveto
          -220 1295 rmoveto
          17 0 12 7 8 16 4 8 2 5 0 8 0 17 -7 12 -15 9 rrcurveto
          -261 153 rlineto
          -12 6 -10 3 -12 0 -25 0 -20 -10 -14 -22 -7 -12 -3 -11 0 -13 0 -29 14 -23 29 -11 rrcurveto
          283 -109 rlineto
          6 -3 5 -1 6 0 rrcurveto
          endchar
        </CharString>
        <CharString name="agrave_alt">
          0 761 1285 rmoveto
          17 0 12 7 8 16 4 8 2 5 0 8 0 17 -7 12 -15 9 rrcurveto
          -261 153 rlineto
          -12 6 -10 3 -12 0 -25 0 -20 -10 -14 -22 -7 -12 -3 -11 0 -13 0 -29 14 -23 29 -11 rrcurveto
          283 -109 rlineto
          6 -3 5 -1 6 0 rrcurveto
          153 -1295 rmoveto
          39 0 27 26 0 39 rrcurveto
          671 vlineto
          0 210 -141 124 -239 0 -110 0 -88 -25 -72 -53 -48 -34 -53 -43 0 -43 0 -46 24 -28 40 0 26 0 21 13 13 14 72 81 66 40 105 0 76 0 63 -20 44 -39 53 -51 12 -46 0 -103 rrcurveto
          0 -54 -25 -32 -67 0 -33 0 -29 8 -25 4 -40 6 -38 2 -41 0 -232 0 -161 -97 0 -223 0 -184 117 -117 227 0 90 0 70 10 54 23 54 22 41 36 42 64 rrcurveto
          -89 vlineto
          0 -39 27 -27 39 0 rrcurveto
          -374 108 rmoveto
          -159 0 -73 78 0 125 0 178 190 10 48 1 rrcurveto
          24 hlineto
          71 0 101 -9 54 -37 18 -13 30 -26 0 -42 rrcurveto
          -43 vlineto
          0 -133 -134 -89 -170 0 rrcurveto
          endchar
        </CharString>
        <CharString name="ampersand">
          0 1023 -10 rmoveto
          20 0 16 7 13 14 13 14 7 18 0 21 0 43 -17 54 -34 63 -23 -56 -30 -46 -37 -36 15 -64 24 -32 33 0 rrcurveto
          -292 423 rmoveto
          17 13 23 47 30 81 rrcurveto
          -300 297 rlineto
          -86 83 -43 78 0 71 0 53 16 45 33 35 32 36 45 18 56 0 44 0 37 -11 32 -22 32 -22 24 -27 15 -32 15 -33 23 -16 30 0 19 0 15 7 13 14 13 14 6 16 0 19 rrcurveto
          0 6 -3 11 -5 14 -26 66 -41 51 -55 34 -56 34 -66 17 -76 0 -87 0 -75 -30 -64 -59 -64 -59 -32 -80 0 -101 0 -103 55 -104 109 -105 rrcurveto
          127 -779 rmoveto
          87 0 86 31 85 62 85 62 70 84 54 106 54 105 27 95 0 83 0 15 -6 14 -12 13 -11 13 -17 6 -21 0 -32 0 -21 -24 -9 -49 -28 -125 -50 -104 -70 -83 -85 -99 -90 -49 -96 0 rrcurveto
          -143 0 -71 75 0 150 0 84 20 78 40 73 -40 36 -35 34 -29 32 -65 -90 -32 -112 0 -135 0 -108 31 -91 62 -73 61 -73 88 -36 113 0 rrcurveto
          endchar
        </CharString>
        <CharString name="ampersand_alt">
          0 802 316 rmoveto
          -10 -12 -5 -7 -3 -3 -84 -99 -91 -49 -96 0 -143 0 -71 75 0 150 0 98 44 117 87 138 rrcurveto
          468 -518 rmoveto
          41 -61 22 -51 3 -40 4 -43 19 -21 36 0 20 0 16 7 13 14 13 15 7 17 0 21 0 31 -13 46 -27 62 -23 50 -25 41 -28 32 57 112 28 97 0 83 0 15 -6 14 -12 13 rrcurveto
          -12 13 -16 6 -21 0 -32 0 -21 -24 -9 -49 -10 -43 -16 -51 -22 -57 rrcurveto
          -384 397 rlineto
          -85 82 -43 77 0 72 0 53 16 45 33 35 32 36 44 18 57 0 43 0 38 -11 32 -22 32 -22 23 -27 16 -32 15 -33 23 -16 30 0 18 0 16 7 13 14 13 14 6 16 0 19 rrcurveto
          0 6 -3 10 -5 15 -26 67 -41 50 -55 34 -55 34 -66 17 -77 0 -87 0 -75 -29 -64 -59 -64 -59 -32 -81 0 -101 0 -79 35 -84 70 -88 -113 -145 -56 -153 0 -161 0 -108 31 -91 62 -73 rrcurveto
          61 -73 88 -36 113 0 87 0 86 31 85 62 37 27 43 41 47 55 rrcurveto
          endchar
        </CharString>
        <CharString name="ampersand_ampersand">
          0 -107 -10 rmoveto
          20 0 16 7 13 14 13 14 7 18 0 21 0 43 -17 54 -34 63 -23 -56 -30 -46 -37 -36 15 -64 24 -32 33 0 rrcurveto
          768 423 rmoveto
          17 13 23 47 30 81 rrcurveto
          -300 297 rlineto
          -86 83 -43 78 0 71 0 53 16 45 33 35 32 36 45 18 56 0 44 0 37 -11 32 -22 32 -22 24 -27 15 -32 15 -33 23 -16 30 0 19 0 15 7 13 14 13 14 6 16 0 19 rrcurveto
          0 6 -3 11 -5 14 -26 66 -41 51 -55 34 -56 34 -66 17 -76 0 -87 0 -75 -30 -64 -59 -64 -59 -32 -80 0 -101 0 -103 55 -104 109 -105 rrcurveto
          127 -779 rmoveto
          87 0 86 31 85 62 85 62 70 84 54 106 54 105 27 95 0 83 0 15 -6 14 -12 13 -11 13 -17 6 -21 0 -32 0 -21 -24 -9 -49 -28 -125 -50 -104 -70 -83 -85 -99 -90 -49 -96 0 rrcurveto
          -143 0 -71 75 0 150 0 84 20 78 40 73 -40 36 -35 34 -29 32 -65 -90 -32 -112 0 -135 0 -108 31 -91 62 -73 61 -73 88 -36 113 0 rrcurveto
          510 hmoveto
          20 0 16 7 13 14 13 14 7 18 0 21 0 43 -17 54 -34 63 -23 -56 -30 -46 -37 -36 15 -64 24 -32 33 0 rrcurveto
          -1352 423 rmoveto
          17 13 23 47 30 81 rrcurveto
          -300 297 rlineto
          -86 83 -43 78 0 71 0 53 16 45 33 35 32 36 45 18 56 0 44 0 37 -11 32 -22 32 -22 24 -27 15 -32 15 -33 23 -16 30 0 19 0 15 7 13 14 13 14 6 16 0 19 rrcurveto
          0 6 -3 11 -5 14 -26 66 -41 51 -55 34 -56 34 -66 17 -76 0 -87 0 -75 -30 -64 -59 -64 -59 -32 -80 0 -101 0 -103 55 -104 109 -105 rrcurveto
          127 -779 rmoveto
          87 0 86 31 85 62 85 62 70 84 54 106 54 105 27 95 0 83 0 15 -6 14 -12 13 -11 13 -17 6 -21 0 -32 0 -21 -24 -9 -49 -28 -125 -50 -104 -70 -83 -85 -99 -90 -49 -96 0 rrcurveto
          -143 0 -71 75 0 150 0 84 20 78 40 73 -40 36 -35 34 -29 32 -65 -90 -32 -112 0 -135 0 -108 31 -91 62 -73 61 -73 88 -36 113 0 rrcurveto
          endchar
        </CharString>
        <CharString name="ampersand_ampersand_alt">
          0 742 316 rmoveto
          -10 -12 -5 -7 -3 -3 -84 -99 -91 -49 -96 0 -143 0 -71 75 0 150 0 98 44 117 87 138 rrcurveto
          468 -518 rmoveto
          41 -61 22 -51 3 -40 4 -43 19 -21 36 0 20 0 16 7 13 14 13 15 7 17 0 21 0 31 -13 46 -27 62 -23 50 -25 41 -28 32 57 112 28 97 0 83 0 15 -6 14 -12 13 rrcurveto
          -12 13 -16 6 -21 0 -32 0 -21 -24 -9 -49 -10 -43 -16 -51 -22 -57 rrcurveto
          -384 397 rlineto
          -85 82 -43 77 0 72 0 53 16 45 33 35 32 36 44 18 57 0 43 0 38 -11 32 -22 32 -22 23 -27 16 -32 15 -33 23 -16 30 0 18 0 16 7 13 14 13 14 6 16 0 19 rrcurveto
          0 6 -3 10 -5 15 -26 67 -41 50 -55 34 -55 34 -66 17 -77 0 -87 0 -75 -29 -64 -59 -64 -59 -32 -81 0 -101 0 -79 35 -84 70 -88 -113 -145 -56 -153 0 -161 0 -108 31 -91 62 -73 rrcurveto
          61 -73 88 -36 113 0 87 0 86 31 85 62 37 27 43 41 47 55 rrcurveto
          -1176 110 rmoveto
          -10 -12 -5 -7 -3 -3 -84 -99 -91 -49 -96 0 -143 0 -71 75 0 150 0 98 44 117 87 138 rrcurveto
          468 -518 rmoveto
          41 -61 22 -51 3 -40 4 -43 19 -21 36 0 20 0 16 7 13 14 13 15 7 17 0 21 0 31 -13 46 -27 62 -23 50 -25 41 -28 32 57 112 28 97 0 83 0 15 -6 14 -12 13 rrcurveto
          -12 13 -16 6 -21 0 -32 0 -21 -24 -9 -49 -10 -43 -16 -51 -22 -57 rrcurveto
          -384 397 rlineto
          -85 82 -43 77 0 72 0 53 16 45 33 35 32 36 44 18 57 0 43 0 38 -11 32 -22 32 -22 23 -27 16 -32 15 -33 23 -16 30 0 18 0 16 7 13 14 13 14 6 16 0 19 rrcurveto
          0 6 -3 10 -5 15 -26 67 -41 50 -55 34 -55 34 -66 17 -77 0 -87 0 -75 -29 -64 -59 -64 -59 -32 -81 0 -101 0 -79 35 -84 70 -88 -113 -145 -56 -153 0 -161 0 -108 31 -91 62 -73 rrcurveto
          61 -73 88 -36 113 0 87 0 86 31 85 62 37 27 43 41 47 55 rrcurveto
          endchar
        </CharString>
        <CharString name="aring">
          0 505 145 rmoveto
          -139 0 -69 88 0 177 1 96 14 84 25 72 25 72 38 57 50 42 51 43 57 21 65 0 78 0 58 -36 39 -72 24 -46 12 -49 0 -52 0 -121 -30 -112 -60 -102 -65 -106 -80 -54 -94 -2 rrcurveto
          476 -155 rmoveto
          17 0 14 4 9 7 17 13 8 19 0 24 0 10 -1 7 -3 4 -46 65 -24 120 -1 175 0 223 9 185 19 148 0 19 -5 14 -11 9 -18 16 -19 8 -18 0 -39 0 -23 -19 -6 -37 rrcurveto
          -5 -24 -13 -12 -20 0 -14 0 -12 6 -10 11 -42 49 -55 25 -68 1 -96 0 -83 -31 -70 -62 -71 -62 -54 -80 -37 -98 -37 -98 -18 -109 0 -119 0 -136 29 -103 58 -69 58 -69 85 -34 111 0 rrcurveto
          59 0 60 19 62 39 62 39 41 48 20 57 7 18 10 9 15 0 16 0 11 -8 5 -16 rrcurveto
          17 -62 rlineto
          26 -95 33 -48 41 0 rrcurveto
          -380 1640 rmoveto
          -64 0 -52 -20 -40 -39 -40 -38 -21 -48 0 -56 0 -54 21 -47 40 -39 40 -39 52 -19 64 0 65 0 52 19 40 39 40 39 20 47 0 54 0 56 -20 48 -40 38 -40 39 -52 20 -65 0 rrcurveto
          -66 vmoveto
          40 0 31 -12 23 -25 23 -24 11 -33 0 -41 0 -41 -11 -32 -23 -24 -23 -25 -31 -12 -40 0 -37 0 -31 12 -24 25 -23 24 -12 32 0 41 0 41 12 33 23 24 24 25 31 12 37 0 rrcurveto
          endchar
        </CharString>
        <CharString name="aring_alt">
          0 601 1630 rmoveto
          -64 0 -52 -20 -40 -39 -40 -38 -21 -48 0 -56 0 -54 21 -47 40 -39 40 -39 52 -19 64 0 65 0 52 19 40 39 40 39 20 47 0 54 0 56 -20 48 -40 38 -40 39 -52 20 -65 0 rrcurveto
          -66 vmoveto
          40 0 31 -12 23 -25 23 -24 11 -33 0 -41 0 -41 -11 -32 -23 -24 -23 -25 -31 -12 -40 0 -37 0 -31 12 -24 25 -23 24 -12 32 0 41 0 41 12 33 23 24 24 25 31 12 37 0 rrcurveto
          313 -1574 rmoveto
          39 0 27 26 0 39 rrcurveto
          671 vlineto
          0 210 -141 124 -239 0 -110 0 -88 -25 -72 -53 -48 -34 -53 -43 0 -43 0 -46 24 -28 40 0 26 0 21 13 13 14 72 81 66 40 105 0 76 0 63 -20 44 -39 53 -51 12 -46 0 -103 rrcurveto
          0 -54 -25 -32 -67 0 -33 0 -29 8 -25 4 -40 6 -38 2 -41 0 -232 0 -161 -97 0 -223 0 -184 117 -117 227 0 90 0 70 10 54 23 54 22 41 36 42 64 rrcurveto
          -89 vlineto
          0 -39 27 -27 39 0 rrcurveto
          -374 108 rmoveto
          -159 0 -73 78 0 125 0 178 190 10 48 1 rrcurveto
          24 hlineto
          71 0 101 -9 54 -37 18 -13 30 -26 0 -42 rrcurveto
          -43 vlineto
          0 -133 -134 -89 -170 0 rrcurveto
          endchar
        </CharString>
        <CharString name="asciicircum">
          0 940 590 rmoveto
          11 0 10 3 10 5 26 15 13 20 0 27 0 13 -3 12 -6 10 rrcurveto
          -337 519 rlineto
          -17 25 -20 12 -25 0 -27 0 -22 -12 -17 -25 rrcurveto
          -337 -516 rlineto
          -6 -9 -3 -12 0 -16 0 -27 11 -19 22 -13 13 -7 12 -4 13 0 25 0 20 12 15 23 rrcurveto
          238 380 rlineto
          9 15 13 7 18 0 18 0 13 -7 9 -15 rrcurveto
          239 -378 rlineto
          16 -25 20 -13 26 0 rrcurveto
          endchar
        </CharString>
        <CharString name="asciitilde">
          0 788 402 rmoveto
          75 0 60 30 45 60 41 56 20 72 0 88 0 19 -5 17 -11 15 -11 14 -17 7 -21 0 -33 0 -19 -21 -6 -42 -17 -111 -36 -56 -56 0 -29 0 -23 6 -18 13 -32 23 -34 35 -36 48 rrcurveto
          -64 82 -69 41 -75 0 -79 0 -63 -31 -46 -61 -39 -54 -19 -71 0 -88 0 -24 6 -18 11 -12 11 -13 14 -6 18 0 20 0 16 6 12 11 12 11 6 15 1 20 5 113 38 56 71 0 rrcurveto
          46 0 56 -42 67 -84 67 -83 69 -41 71 0 rrcurveto
          endchar
        </CharString>
        <CharString name="asciitilde_at">
          0 1037 333 rmoveto
          49 0 26 20 2 40 3 75 1 61 0 47 0 260 -54 199 -109 140 -110 133 -144 67 -177 0 -208 -1 -167 -76 -126 -151 -105 -126 -69 -132 -34 -138 -33 -135 -64 -68 -93 0 -38 0 -32 8 -25 17 rrcurveto
          -32 23 -33 35 -36 47 -65 83 -71 42 -76 0 -81 0 -64 -31 -47 -63 -39 -55 -20 -72 0 -89 0 -25 6 -19 12 -14 12 -13 16 -7 19 0 21 0 17 6 13 12 13 12 7 16 1 22 rrcurveto
          5 109 36 55 68 0 44 0 55 -42 66 -83 68 -83 84 -42 99 0 74 0 63 22 52 45 63 57 43 67 24 76 36 130 59 115 80 102 61 71 59 49 59 28 58 27 66 14 72 0 rrcurveto
          138 -3 112 -54 85 -102 92 -110 46 -191 0 -272 rrcurveto
          -33 vlineto
          1 -68 22 -34 44 0 rrcurveto
          -132 -348 rmoveto
          20 0 18 2 16 4 19 4 10 20 0 34 0 23 -5 16 -10 9 -11 12 -13 6 -13 0 -65 0 -45 2 -25 5 -64 14 -33 71 -2 128 -1 87 -1 87 -2 88 -3 87 -21 68 -40 48 rrcurveto
          -40 49 -62 24 -85 0 -147 -1 -106 -100 -63 -198 -26 -90 -13 -89 0 -87 0 -215 61 -108 123 0 128 2 64 34 0 65 0 14 -1 11 -3 6 -11 27 -13 13 -15 0 -8 0 -7 -2 -8 -4 rrcurveto
          -34 -19 -30 -10 -25 0 -58 0 -29 63 0 125 0 84 11 72 21 61 44 125 59 63 76 0 81 0 42 -55 3 -110 rrcurveto
          8 -240 rlineto
          4 -177 62 -104 119 -30 38 -9 50 -5 61 0 rrcurveto
          endchar
        </CharString>
        <CharString name="asciitilde_at_alt">
          0 359 117 rmoveto
          -78 0 -39 64 0 129 0 84 11 73 21 62 45 127 61 64 78 0 84 0 44 -56 3 -113 rrcurveto
          5 -214 rlineto
          0 -25 -10 -31 -20 -35 -47 -86 -69 -43 -89 0 rrcurveto
          569 807 rmoveto
          45 -112 23 -152 0 -192 0 -135 -9 -97 -18 -57 -16 -49 -33 -24 -52 0 -52 0 -38 21 -25 42 -22 35 -12 56 -1 75 -1 87 -1 87 -2 87 -3 86 -20 67 -40 48 -39 47 -61 24 -83 0 rrcurveto
          -145 -1 -104 -99 -62 -196 -26 -89 -13 -88 0 -87 0 -212 68 -106 137 0 138 0 107 60 76 121 33 -84 40 -51 48 -18 48 -19 43 -9 40 0 88 0 66 44 42 87 28 62 14 152 0 241 rrcurveto
          0 126 -13 111 -25 98 -27 103 -41 86 -56 71 -109 133 -142 66 -176 0 -206 -1 -158 -75 -110 -149 -113 -155 -79 -135 -45 -113 -52 -133 -69 -66 -88 0 -42 0 -32 9 -24 17 -32 23 -34 35 -36 48 rrcurveto
          -64 82 -69 41 -75 0 -79 0 -63 -31 -46 -61 -39 -54 -19 -71 0 -88 0 -24 6 -18 11 -12 11 -13 14 -6 18 0 20 0 16 6 12 11 12 11 6 15 1 20 5 113 38 56 71 0 rrcurveto
          46 0 56 -42 67 -84 67 -83 82 -41 98 0 72 0 62 22 52 44 63 57 49 67 36 76 53 119 74 120 94 121 49 62 50 45 50 28 51 28 62 14 73 0 140 -3 113 -54 85 -104 rrcurveto
          28 -33 24 -40 20 -47 rrcurveto
          endchar
        </CharString>
        <CharString name="asciitilde_at_alt_1">
          0 800 231 rmoveto
          -62 0 -53 29 -43 57 -35 47 -17 64 0 80 0 107 19 77 37 47 38 47 51 23 65 0 60 0 44 -21 28 -43 29 -43 14 -55 0 -65 rrcurveto
          -122 vlineto
          0 -152 -58 -76 -117 -1 rrcurveto
          -630 520 rmoveto
          53 142 50 108 48 74 85 133 104 67 123 0 147 0 101 -75 57 -149 23 -59 11 -48 0 -34 rrcurveto
          -55 vlineto
          -64 63 -65 32 -65 0 -64 0 -61 -23 -55 -47 -56 -46 -37 -74 -19 -102 -9 -48 -4 -50 0 -50 0 -145 31 -105 61 -64 68 -66 83 -33 98 0 121 0 84 50 48 100 32 68 16 97 0 126 rrcurveto
          323 vlineto
          -3 177 -51 142 -99 106 -79 86 -111 43 -142 0 -136 0 -117 -51 -97 -101 -66 -72 -61 -107 -58 -141 -38 -98 -61 -93 -83 -87 -80 -79 -86 -41 -92 -2 -62 0 -42 9 -24 17 -32 23 -34 35 -36 48 rrcurveto
          -64 82 -69 41 -75 0 -79 0 -63 -31 -46 -61 -39 -54 -19 -71 0 -88 0 -24 6 -18 11 -12 11 -13 14 -6 18 0 20 0 16 6 12 11 12 11 6 15 1 20 5 113 38 56 71 0 rrcurveto
          46 0 56 -42 67 -84 67 -83 92 -41 118 0 119 0 101 31 81 62 103 75 70 85 38 96 rrcurveto
          endchar
        </CharString>
        <CharString name="asterisk">
          0 600 151 rmoveto
          20 0 17 7 13 13 13 13 7 17 0 20 rrcurveto
          257 vlineto
          221 -129 rlineto
          11 -5 11 -3 13 0 21 0 17 7 13 13 13 13 7 17 0 19 0 26 -12 20 -23 15 rrcurveto
          -222 129 222 128 rlineto
          23 15 12 20 0 26 0 19 -7 17 -13 13 -13 13 -17 7 -21 0 -13 0 -11 -3 -11 -5 rrcurveto
          -221 -129 rlineto
          257 vlineto
          0 20 -7 17 -13 13 -13 13 -17 7 -20 0 -21 0 -16 -7 -13 -13 -13 -13 -7 -17 0 -20 rrcurveto
          -257 vlineto
          -222 129 rlineto
          -11 5 -11 3 -13 0 -20 0 -17 -7 -13 -13 -14 -13 -7 -17 0 -19 0 -26 12 -20 23 -15 rrcurveto
          223 -128 -222 -128 rlineto
          -24 -15 -12 -21 0 -26 0 -20 7 -16 14 -13 13 -13 17 -7 20 0 13 0 11 3 11 5 rrcurveto
          222 129 rlineto
          -257 vlineto
          0 -20 7 -17 13 -13 13 -13 16 -7 21 0 rrcurveto
          endchar
        </CharString>
        <CharString name="asterisk_slash">
          0 40 -180 rmoveto
          13 0 12 4 12 7 12 8 9 10 5 13 rrcurveto
          720 1623 rlineto
          5 10 2 10 0 9 0 13 -4 12 -7 12 -13 21 -20 11 -26 0 -13 0 -13 -4 -11 -7 -12 -7 -9 -10 -5 -13 rrcurveto
          -720 -1623 rlineto
          -5 -10 -2 -9 0 -9 0 -14 4 -12 7 -12 14 -22 20 -11 25 0 rrcurveto
          -640 171 rmoveto
          19 0 17 7 13 14 14 13 7 17 0 19 rrcurveto
          285 vlineto
          248 -137 rlineto
          12 -5 12 -3 11 0 20 0 17 7 13 14 14 13 7 16 0 19 0 24 -12 20 -24 17 rrcurveto
          -249 139 249 139 rlineto
          24 17 12 20 0 24 0 19 -7 16 -14 13 -13 14 -17 7 -20 0 -11 0 -12 -3 -12 -5 rrcurveto
          -248 -140 rlineto
          287 vlineto
          0 19 -7 17 -14 13 -13 14 -17 7 -19 0 -19 0 -17 -7 -13 -14 -14 -13 -7 -17 0 -19 rrcurveto
          -287 vlineto
          -248 140 rlineto
          -12 5 -11 3 -12 0 -19 0 -17 -7 -14 -14 -14 -13 -7 -16 0 -19 0 -27 11 -20 23 -14 rrcurveto
          251 -139 -249 -139 rlineto
          -24 -17 -12 -21 0 -24 0 -19 7 -16 14 -13 14 -14 17 -7 19 0 12 0 11 3 12 5 rrcurveto
          248 140 rlineto
          -287 vlineto
          0 -19 7 -17 14 -13 13 -14 17 -7 19 0 rrcurveto
          endchar
        </CharString>
        <CharString name="at">
          0 1037 333 rmoveto
          49 0 26 20 2 40 3 75 1 61 0 47 0 260 -54 199 -109 140 -110 133 -144 67 -177 0 -207 -1 -157 -76 -107 -150 -9 -13 -4 -17 0 -21 0 -31 8 -23 15 -15 15 -15 16 -8 17 0 rrcurveto
          21 0 16 7 13 14 52 60 54 46 57 31 56 31 64 16 73 0 139 -3 111 -57 84 -109 79 -110 40 -191 0 -272 rrcurveto
          -33 vlineto
          1 -68 22 -34 44 0 rrcurveto
          -132 -348 rmoveto
          20 0 18 2 16 4 19 4 10 20 0 34 0 23 -5 16 -10 9 -11 12 -13 6 -13 0 -65 0 -45 2 -25 5 -64 14 -33 71 -2 128 -1 87 -1 87 -2 88 -3 87 -21 68 -40 48 rrcurveto
          -40 49 -62 24 -85 0 -147 -1 -106 -100 -63 -198 -26 -90 -13 -89 0 -87 0 -215 61 -108 123 0 128 2 64 34 0 65 0 14 -1 11 -3 6 -11 27 -13 13 -15 0 -8 0 -7 -2 -8 -4 rrcurveto
          -34 -19 -30 -10 -25 0 -58 0 -29 63 0 125 0 84 11 72 21 61 44 125 59 63 76 0 81 0 42 -55 3 -110 rrcurveto
          8 -240 rlineto
          4 -177 62 -104 119 -30 38 -9 50 -5 61 0 rrcurveto
          endchar
        </CharString>
        <CharString name="at_alt">
          0 359 117 rmoveto
          -78 0 -39 64 0 129 0 84 11 73 21 62 45 127 61 64 78 0 84 0 44 -56 3 -113 rrcurveto
          5 -214 rlineto
          0 -25 -10 -31 -20 -35 -47 -86 -69 -43 -89 0 rrcurveto
          537 -127 rmoveto
          88 0 66 44 42 87 28 62 14 152 0 241 0 259 -54 198 -108 138 -109 133 -142 66 -176 0 -206 -1 -155 -75 -106 -148 -8 -13 -4 -16 0 -20 0 -30 7 -22 14 -14 14 -14 15 -7 16 0 rrcurveto
          19 0 16 6 11 13 53 61 51 45 50 28 51 28 62 14 73 0 140 -3 113 -54 85 -104 93 -111 47 -192 0 -273 0 -135 -9 -97 -18 -57 -16 -49 -34 -24 -51 0 -51 0 -39 21 -25 42 rrcurveto
          -22 35 -12 56 -1 75 -1 87 -1 87 -2 87 -3 86 -20 67 -40 48 -39 47 -61 24 -83 0 -145 -1 -104 -99 -62 -196 -26 -89 -13 -88 0 -87 0 -212 68 -106 137 0 138 0 107 60 76 121 rrcurveto
          33 -84 40 -51 48 -18 48 -19 43 -9 40 0 rrcurveto
          endchar
        </CharString>
        <CharString name="at_alt_1">
          0 751 -316 rmoveto
          52 0 38 7 22 15 13 9 6 15 0 22 0 48 -47 24 -94 0 -112 0 -100 30 -87 59 -87 59 -55 87 -23 117 -20 115 -11 99 0 86 0 50 2 52 2 55 7 186 33 147 61 107 rrcurveto
          78 135 94 67 110 0 146 0 102 -75 57 -149 23 -59 11 -48 0 -34 rrcurveto
          -55 vlineto
          -64 63 -65 32 -65 0 -64 0 -60 -23 -56 -47 -55 -47 -38 -74 -19 -101 -9 -48 -4 -50 0 -50 0 -145 31 -105 62 -63 67 -67 83 -33 98 0 121 0 84 50 47 99 33 69 16 97 0 126 rrcurveto
          323 vlineto
          -3 177 -51 142 -99 107 -79 85 -111 43 -142 0 -123 0 -107 -51 -91 -101 -91 -102 -59 -140 -26 -177 -16 -104 -8 -113 0 -125 0 -195 26 -165 53 -136 43 -112 74 -82 108 -51 107 -51 113 -26 118 0 rrcurveto
          49 552 rmoveto
          -60 0 -52 28 -42 56 -34 46 -17 63 0 79 0 106 19 76 36 46 37 45 50 23 63 0 58 0 43 -21 28 -41 27 -42 14 -53 0 -65 rrcurveto
          -122 vlineto
          0 -149 -57 -74 -113 -1 rrcurveto
          endchar
        </CharString>
        <CharString name="atilde">
          0 505 145 rmoveto
          -139 0 -69 88 0 177 1 96 14 84 25 72 25 72 38 57 50 42 51 43 57 21 65 0 78 0 58 -36 39 -72 24 -46 12 -49 0 -52 0 -121 -30 -112 -60 -102 -65 -106 -80 -54 -94 -2 rrcurveto
          476 -155 rmoveto
          17 0 14 4 9 7 17 13 8 19 0 24 0 10 -1 7 -3 4 -46 65 -24 120 -1 175 0 223 9 185 19 148 0 19 -5 14 -11 9 -18 16 -19 8 -18 0 -39 0 -23 -19 -6 -37 rrcurveto
          -5 -24 -13 -12 -20 0 -14 0 -12 6 -10 11 -42 49 -55 25 -68 1 -96 0 -83 -31 -70 -62 -71 -62 -54 -80 -37 -98 -37 -98 -18 -109 0 -119 0 -136 29 -103 58 -69 58 -69 85 -34 111 0 rrcurveto
          59 0 60 19 62 39 62 39 41 48 20 57 7 18 10 9 15 0 16 0 11 -8 5 -16 rrcurveto
          17 -62 rlineto
          26 -95 33 -48 41 0 rrcurveto
          -262 1320 rmoveto
          71 0 55 33 47 72 6 9 2 7 0 10 0 20 -8 17 -20 6 -9 5 -6 1 -8 0 -15 0 -11 -5 -10 -12 -8 -10 -9 -10 -8 -6 -19 -17 -25 -10 -25 0 -28 0 -31 10 -23 19 rrcurveto
          -22 16 -22 15 -25 16 -24 14 -27 7 -36 0 -48 0 -38 -15 -34 -32 -19 -20 -17 -19 -16 -23 -6 -9 -2 -7 0 -10 0 -19 7 -14 19 -9 8 -4 5 -1 8 0 16 0 12 5 10 14 rrcurveto
          20 24 rlineto
          20 20 27 11 28 0 29 0 29 -11 24 -18 22 -16 24 -16 26 -16 24 -15 26 -7 34 0 rrcurveto
          endchar
        </CharString>
        <CharString name="atilde_alt">
          0 719 1310 rmoveto
          71 0 55 33 47 72 6 9 2 7 0 10 0 28 -21 21 -30 0 -15 0 -11 -5 -10 -12 -26 -34 -35 -19 -33 0 -28 0 -31 10 -23 19 -46 33 -40 35 -70 0 -48 0 -38 -15 -34 -32 rrcurveto
          -29 -29 -31 -30 0 -29 0 -28 19 -19 28 0 16 0 12 5 10 14 26 31 16 24 53 0 93 0 43 -99 102 0 rrcurveto
          195 -1320 rmoveto
          39 0 27 26 0 39 rrcurveto
          671 vlineto
          0 210 -141 124 -239 0 -110 0 -88 -25 -72 -53 -48 -34 -53 -43 0 -43 0 -46 24 -28 40 0 26 0 21 13 13 14 72 81 66 40 105 0 76 0 63 -20 44 -39 53 -51 12 -46 0 -103 rrcurveto
          0 -54 -25 -32 -67 0 -33 0 -29 8 -25 4 -40 6 -38 2 -41 0 -232 0 -161 -97 0 -223 0 -184 117 -117 227 0 90 0 70 10 54 23 54 22 41 36 42 64 rrcurveto
          -89 vlineto
          0 -39 27 -27 39 0 rrcurveto
          -374 108 rmoveto
          -159 0 -73 78 0 125 0 178 190 10 48 1 rrcurveto
          24 hlineto
          71 0 101 -9 54 -37 18 -13 30 -26 0 -42 rrcurveto
          -43 vlineto
          0 -133 -134 -89 -170 0 rrcurveto
          endchar
        </CharString>
        <CharString name="b">
          0 619 131 rmoveto
          -14 hlineto
          -59 0 -57 24 -56 49 -55 49 -28 67 0 85 rrcurveto
          213 vlineto
          0 66 27 64 54 61 51 53 62 26 73 0 92 0 70 -32 47 -63 47 -63 24 -98 0 -133 -6 -241 -92 -123 -180 -4 rrcurveto
          33 -141 rmoveto
          135 0 97 46 61 91 60 91 31 134 1 177 0 167 -35 130 -70 94 -69 93 -94 47 -119 0 -67 0 -67 -28 -65 -55 -17 -14 -17 -7 -16 0 -34 0 -17 19 0 37 rrcurveto
          424 vlineto
          0 22 -7 17 -15 14 -14 14 -16 7 -17 0 -17 0 -17 -7 -15 -14 -15 -14 -7 -17 0 -22 rrcurveto
          -1374 vlineto
          0 -22 6 -17 13 -13 12 -13 16 -7 20 0 38 0 22 25 7 49 5 35 14 17 24 0 13 0 12 -6 10 -11 75 -73 76 -36 79 0 rrcurveto
          endchar
        </CharString>
        <CharString name="backslash">
          0 960 -180 rmoveto
          25 0 20 11 14 22 7 12 4 13 0 13 0 9 -2 9 -4 10 rrcurveto
          -720 1620 rlineto
          -6 13 -9 10 -12 7 -12 7 -12 4 -13 0 -25 0 -20 -11 -14 -21 -7 -12 -4 -12 0 -13 0 -9 2 -10 4 -10 rrcurveto
          720 -1620 rlineto
          6 -13 9 -10 12 -8 12 -7 12 -4 13 0 rrcurveto
          endchar
        </CharString>
        <CharString name="bar">
          0 600 -210 rmoveto
          18 0 17 7 14 14 14 14 7 17 0 18 rrcurveto
          1680 vlineto
          0 19 -7 17 -14 13 -14 14 -16 7 -19 0 -19 0 -16 -7 -14 -14 -14 -13 -7 -17 0 -19 rrcurveto
          -1680 vlineto
          0 -18 7 -17 14 -14 14 -14 17 -7 18 0 rrcurveto
          endchar
        </CharString>
        <CharString name="bar_bar">
          0 -400 -210 rmoveto
          19 0 17 7 13 14 14 13 7 17 0 19 rrcurveto
          1680 vlineto
          0 20 -7 17 -14 13 -13 13 -17 7 -19 0 -20 0 -17 -7 -13 -13 -13 -13 -7 -17 0 -20 rrcurveto
          -1680 vlineto
          0 -19 7 -17 13 -13 13 -14 17 -7 20 0 rrcurveto
          800 hmoveto
          19 0 17 7 13 14 14 13 7 17 0 19 rrcurveto
          1680 vlineto
          0 20 -7 17 -14 13 -13 13 -17 7 -19 0 -20 0 -17 -7 -13 -13 -13 -13 -7 -17 0 -20 rrcurveto
          -1680 vlineto
          0 -19 7 -17 13 -13 13 -14 17 -7 20 0 rrcurveto
          endchar
        </CharString>
        <CharString name="bar_equal">
          0 -530 870 rmoveto
          470 vlineto
          0 19 -7 17 -14 13 -14 14 -16 7 -19 0 -19 0 -16 -7 -14 -14 -14 -13 -7 -17 0 -19 rrcurveto
          -1480 vlineto
          0 -18 7 -17 14 -14 14 -14 17 -7 18 0 18 0 17 7 14 14 14 14 7 17 0 18 rrcurveto
          470 1470 vlineto
          19 0 17 7 13 14 14 13 7 17 0 19 0 19 -7 17 -14 13 -13 14 -17 7 -19 0 rrcurveto
          -1470 260 1470 hlineto
          19 0 17 7 13 14 14 13 7 17 0 19 0 19 -7 17 -14 13 -13 14 -17 7 -19 0 rrcurveto
          endchar
        </CharString>
        <CharString name="boxdrawingsdoubledownandhorizontal">
          0 520 -1000 rmoveto
          1620 -530 -160 370 -1460 vlineto
          850 1780 rmoveto
          160 -1220 -160 vlineto
          850 -1780 rmoveto
          1460 370 160 -530 -1620 vlineto
          endchar
        </CharString>
        <CharString name="boxdrawingsdoubledownandleft">
          0 520 -1000 rmoveto
          1620 -530 -160 370 -1460 vlineto
          480 hmoveto
          1940 -850 -160 690 -1780 vlineto
          endchar
        </CharString>
        <CharString name="boxdrawingsdoubledownandright">
          0 840 -1000 rmoveto
          1460 370 160 -530 -1620 vlineto
          -160 hmoveto
          1780 690 160 -850 -1940 vlineto
          endchar
        </CharString>
        <CharString name="boxdrawingsdoublehorizontal">
          0 1210 460 rmoveto
          160 -1220 -160 vlineto
          1220 320 rmoveto
          160 -1220 -160 vlineto
          endchar
        </CharString>
        <CharString name="boxdrawingsdoubleupandhorizontal">
          0 1210 460 rmoveto
          160 -1220 -160 vlineto
          1220 320 rmoveto
          160 -370 1060 -160 -1220 vlineto
          -160 hmoveto
          1220 -160 -1060 -370 -160 vlineto
          endchar
        </CharString>
        <CharString name="boxdrawingsdoubleupandleft">
          0 520 780 rmoveto
          1220 -160 -1060 -370 -160 vlineto
          850 -320 rmoveto
          1540 -160 -1380 -690 -160 vlineto
          endchar
        </CharString>
        <CharString name="boxdrawingsdoubleupandright">
          0 1210 780 rmoveto
          160 -370 1060 -160 -1220 vlineto
          530 -320 rmoveto
          160 -690 1380 -160 -1540 vlineto
          endchar
        </CharString>
        <CharString name="boxdrawingsdoublevertical">
          0 520 -1000 rmoveto
          3000 -160 -3000 vlineto
          480 hmoveto
          3000 -160 -3000 vlineto
          endchar
        </CharString>
        <CharString name="boxdrawingsdoubleverticalandhorizontal">
          0 520 -1000 rmoveto
          1620 -530 -160 370 -1460 vlineto
          160 1780 rmoveto
          1220 -160 -1060 -370 -160 vlineto
          1220 hmoveto
          160 -370 1060 -160 -1220 vlineto
          160 -1780 rmoveto
          1460 370 160 -530 -1620 vlineto
          endchar
        </CharString>
        <CharString name="boxdrawingsdoubleverticalandleft">
          0 520 -1000 rmoveto
          1620 -530 -160 370 -1460 vlineto
          480 hmoveto
          3000 -160 -3000 vlineto
          -160 1780 rmoveto
          1220 -160 -1060 -370 -160 vlineto
          endchar
        </CharString>
        <CharString name="boxdrawingsdoubleverticalandright">
          0 840 -1000 rmoveto
          1460 370 160 -530 -1620 vlineto
          -160 hmoveto
          3000 -160 -3000 vlineto
          850 1780 rmoveto
          160 -370 1060 -160 -1220 vlineto
          endchar
        </CharString>
        <CharString name="boxdrawingsdowndoubleandhorizontalsingle">
          0 840 -1000 rmoveto
          1620 370 160 -1220 -160 370 -1620 160 1620 160 -1620 vlineto
          endchar
        </CharString>
        <CharString name="boxdrawingsdowndoubleandleftsingle">
          0 840 -1000 rmoveto
          1780 -850 -160 370 -1620 160 1620 160 -1620 vlineto
          endchar
        </CharString>
        <CharString name="boxdrawingsdowndoubleandrightsingle">
          0 840 -1000 rmoveto
          1620 370 160 -850 -1780 160 1620 160 -1620 vlineto
          endchar
        </CharString>
        <CharString name="boxdrawingsdownheavyandhorizontallight">
          0 840 -1000 rmoveto
          1620 370 160 -1220 -160 370 -1620 vlineto
          endchar
        </CharString>
        <CharString name="boxdrawingsdownheavyandleftlight">
          0 840 -1000 rmoveto
          1780 -850 -160 370 -1620 vlineto
          endchar
        </CharString>
        <CharString name="boxdrawingsdownheavyandleftuplight">
          0 840 -1000 rmoveto
          1780 -160 1220 -160 -1220 -530 -160 370 -1620 vlineto
          endchar
        </CharString>
        <CharString name="boxdrawingsdownheavyandrightlight">
          0 840 -1000 rmoveto
          1620 370 160 -850 -1780 vlineto
          endchar
        </CharString>
        <CharString name="boxdrawingsdownheavyandrightuplight">
          0 840 -1000 rmoveto
          1620 370 160 -530 1220 -160 -1220 -160 -1780 vlineto
          endchar
        </CharString>
        <CharString name="boxdrawingsdownheavyanduphorizontallight">
          0 840 -1000 rmoveto
          1620 370 160 -530 1220 -160 -1220 -530 -160 370 -1620 vlineto
          endchar
        </CharString>
        <CharString name="boxdrawingsdownlightandhorizontalheavy">
          0 680 -1000 rmoveto
          1460 530 480 -1220 -480 530 -1460 vlineto
          endchar
        </CharString>
        <CharString name="boxdrawingsdownlightandleftheavy">
          0 680 -1000 rmoveto
          1940 -690 -480 530 -1460 vlineto
          endchar
        </CharString>
        <CharString name="boxdrawingsdownlightandleftupheavy">
          0 680 -1000 rmoveto
          1460 160 1540 -480 -1060 -370 -480 530 -1460 vlineto
          endchar
        </CharString>
        <CharString name="boxdrawingsdownlightandrightheavy">
          0 680 -1000 rmoveto
          1460 530 480 -690 -1940 vlineto
          endchar
        </CharString>
        <CharString name="boxdrawingsdownlightandrightupheavy">
          0 680 -1000 rmoveto
          1460 530 480 -370 1060 -480 -1540 160 -1460 vlineto
          endchar
        </CharString>
        <CharString name="boxdrawingsdownlightanduphorizontalheavy">
          0 680 -1000 rmoveto
          1460 530 480 -370 1060 -480 -1060 -370 -480 530 -1460 vlineto
          endchar
        </CharString>
        <CharString name="boxdrawingsdownsingleandhorizontaldouble">
          0 680 -1000 rmoveto
          1460 530 160 -1220 -160 530 -1460 vlineto
          690 1780 rmoveto
          160 -1220 -160 vlineto
          endchar
        </CharString>
        <CharString name="boxdrawingsdownsingleandleftdouble">
          0 680 -1000 rmoveto
          1940 -690 -160 530 -160 -530 -160 530 -1460 vlineto
          endchar
        </CharString>
        <CharString name="boxdrawingsdownsingleandrightdouble">
          0 680 -1000 rmoveto
          1460 530 160 -530 160 530 160 -690 -1940 vlineto
          endchar
        </CharString>
        <CharString name="boxdrawingsheavydoubledashhorizontal">
          0 520 460 rmoveto
          480 -440 -480 vlineto
          1040 hmoveto
          480 -440 -480 vlineto
          endchar
        </CharString>
        <CharString name="boxdrawingsheavydoubledashvertical">
          0 840 -360 rmoveto
          960 -480 -960 vlineto
          480 1440 rmoveto
          960 -480 -960 vlineto
          endchar
        </CharString>
        <CharString name="boxdrawingsheavydown">
          0 840 -1000 rmoveto
          1780 -480 -1780 vlineto
          endchar
        </CharString>
        <CharString name="boxdrawingsheavydownandhorizontal">
          0 840 -1000 rmoveto
          1460 370 480 -1220 -480 370 -1460 vlineto
          endchar
        </CharString>
        <CharString name="boxdrawingsheavydownandleft">
          0 840 -1000 rmoveto
          1940 -850 -480 370 -1460 vlineto
          endchar
        </CharString>
        <CharString name="boxdrawingsheavydownandright">
          0 840 -1000 rmoveto
          1460 370 480 -850 -1940 vlineto
          endchar
        </CharString>
        <CharString name="boxdrawingsheavyhorizontal">
          0 1210 460 rmoveto
          480 -1220 -480 vlineto
          endchar
        </CharString>
        <CharString name="boxdrawingsheavyleft">
          0 680 460 rmoveto
          480 -690 -480 vlineto
          endchar
        </CharString>
        <CharString name="boxdrawingsheavyleftandlightright">
          0 680 460 rmoveto
          160 530 160 -530 160 -690 -480 vlineto
          endchar
        </CharString>
        <CharString name="boxdrawingsheavyquadrupledashhorizontal">
          0 1125 460 rmoveto
          480 -150 -480 vlineto
          -450 hmoveto
          480 -150 -480 vlineto
          450 hmoveto
          480 -150 -480 vlineto
          -450 hmoveto
          480 -150 -480 vlineto
          endchar
        </CharString>
        <CharString name="boxdrawingsheavyquadrupledashvertical">
          0 840 -520 rmoveto
          540 -480 -540 vlineto
          480 2100 rmoveto
          540 -480 -540 vlineto
          480 -700 rmoveto
          540 -480 -540 vlineto
          480 -700 rmoveto
          540 -480 -540 vlineto
          endchar
        </CharString>
        <CharString name="boxdrawingsheavyright">
          0 1210 460 rmoveto
          480 -690 -480 vlineto
          endchar
        </CharString>
        <CharString name="boxdrawingsheavytripledashhorizontal">
          0 1120 460 rmoveto
          480 -240 -480 vlineto
          -560 hmoveto
          480 -240 -480 vlineto
          640 hmoveto
          480 -240 -480 vlineto
          endchar
        </CharString>
        <CharString name="boxdrawingsheavytripledashvertical">
          0 840 -520 rmoveto
          800 -480 -800 vlineto
          480 1920 rmoveto
          800 -480 -800 vlineto
          480 -960 rmoveto
          800 -480 -800 vlineto
          endchar
        </CharString>
        <CharString name="boxdrawingsheavyup">
          0 840 620 rmoveto
          1380 -480 -1380 vlineto
          endchar
        </CharString>
        <CharString name="boxdrawingsheavyupandhorizontal">
          0 1210 460 rmoveto
          480 -370 1060 -480 -1060 -370 -480 vlineto
          endchar
        </CharString>
        <CharString name="boxdrawingsheavyupandleft">
          0 840 460 rmoveto
          1540 -480 -1060 -370 -480 vlineto
          endchar
        </CharString>
        <CharString name="boxdrawingsheavyupandlightdown">
          0 680 -1000 rmoveto
          1620 160 1380 -480 -1380 160 -1620 vlineto
          endchar
        </CharString>
        <CharString name="boxdrawingsheavyupandright">
          0 1210 460 rmoveto
          480 -370 1060 -480 -1540 vlineto
          endchar
        </CharString>
        <CharString name="boxdrawingsheavyvertical">
          0 840 -1000 rmoveto
          3000 -480 -3000 vlineto
          endchar
        </CharString>
        <CharString name="boxdrawingsheavyverticalandhorizontal">
          0 840 -1000 rmoveto
          1460 370 480 -370 1060 -480 -1060 -370 -480 370 -1460 vlineto
          endchar
        </CharString>
        <CharString name="boxdrawingsheavyverticalandleft">
          0 840 -1000 rmoveto
          3000 -480 -1060 -370 -480 370 -1460 vlineto
          endchar
        </CharString>
        <CharString name="boxdrawingsheavyverticalandright">
          0 840 -1000 rmoveto
          1460 370 480 -370 1060 -480 -3000 vlineto
          endchar
        </CharString>
        <CharString name="boxdrawingsleftdownheavyandrightuplight">
          0 840 -1000 rmoveto
          1620 370 160 -370 160 -160 1060 -160 -1060 -530 -480 370 -1460 vlineto
          endchar
        </CharString>
        <CharString name="boxdrawingsleftheavyandrightdownlight">
          0 680 -1000 rmoveto
          1620 530 160 -530 160 -690 -480 530 -1460 vlineto
          endchar
        </CharString>
        <CharString name="boxdrawingsleftheavyandrightuplight">
          0 680 460 rmoveto
          160 530 160 -530 1220 -160 -1060 -530 -480 vlineto
          endchar
        </CharString>
        <CharString name="boxdrawingsleftheavyandrightverticallight">
          0 680 -1000 rmoveto
          1620 530 160 -530 1220 -160 -1060 -530 -480 530 -1460 vlineto
          endchar
        </CharString>
        <CharString name="boxdrawingsleftlightandrightdownheavy">
          0 840 -1000 rmoveto
          1460 370 480 -850 -160 -370 -160 370 -1620 vlineto
          endchar
        </CharString>
        <CharString name="boxdrawingsleftlightandrightupheavy">
          0 1210 460 rmoveto
          480 -370 1060 -480 -1220 -370 -160 370 -160 vlineto
          endchar
        </CharString>
        <CharString name="boxdrawingsleftlightandrightverticalheavy">
          0 840 -1000 rmoveto
          1460 370 480 -370 1060 -480 -1220 -370 -160 370 -1620 vlineto
          endchar
        </CharString>
        <CharString name="boxdrawingsleftupheavyandrightdownlight">
          0 680 -1000 rmoveto
          1460 160 160 370 160 -370 1220 -480 -1060 -370 -480 530 -1460 vlineto
          endchar
        </CharString>
        <CharString name="boxdrawingslightarcdownandleft">
          0 680 -1000 rmoveto
          1240 vlineto
          0 75 -14 70 -28 65 -28 65 -39 57 -49 50 -50 49 -57 39 -65 28 -65 28 -70 14 -75 0 rrcurveto
          -150 -160 150 hlineto
          69 0 64 -17 58 -34 57 -35 46 -46 35 -57 34 -58 17 -64 0 -69 rrcurveto
          -1240 vlineto
          endchar
        </CharString>
        <CharString name="boxdrawingslightarcdownandright">
          0 680 -1000 rmoveto
          1240 vlineto
          0 69 17 64 35 58 34 57 46 46 58 35 57 34 64 17 69 0 rrcurveto
          150 160 -150 hlineto
          -75 0 -69 -14 -65 -28 -65 -28 -58 -39 -49 -49 -50 -50 -39 -57 -28 -65 -28 -65 -14 -70 0 -75 rrcurveto
          -1240 vlineto
          endchar
        </CharString>
        <CharString name="boxdrawingslightarcupandleft">
          0 140 620 rmoveto
          75 0 70 14 65 28 65 28 57 39 50 50 49 49 39 58 28 65 28 65 14 69 0 75 rrcurveto
          1240 -160 -1240 vlineto
          0 -69 -17 -64 -34 -57 -35 -58 -46 -46 -57 -34 -58 -35 -64 -17 -69 0 rrcurveto
          -150 -160 hlineto
          endchar
        </CharString>
        <CharString name="boxdrawingslightarcupandright">
          0 1210 620 rmoveto
          160 -150 vlineto
          -69 0 -64 17 -57 35 -58 34 -46 46 -34 58 -35 57 -17 64 0 69 rrcurveto
          1240 -160 -1240 vlineto
          0 -75 14 -69 28 -65 28 -65 39 -58 50 -49 49 -50 58 -39 65 -28 65 -28 69 -14 75 0 rrcurveto
          endchar
        </CharString>
        <CharString name="boxdrawingslightdiagonalcross">
          0 1130 -635 rmoveto
          -530 1060 -530 -1060 -145 72 585 1169 -580 1160 144 71 526 -1051 526 1051 144 -71 -580 -1160 585 -1169 rlineto
          endchar
        </CharString>
        <CharString name="boxdrawingslightdiagonalupperlefttolowerright">
          0 1130 -635 rmoveto
          -1200 2401 144 71 1201 -2400 rlineto
          endchar
        </CharString>
        <CharString name="boxdrawingslightdiagonalupperrighttolowerleft">
          0 70 -635 rmoveto
          1200 2401 -144 71 -1201 -2400 rlineto
          endchar
        </CharString>
        <CharString name="boxdrawingslightdoubledashhorizontal">
          0 520 620 rmoveto
          160 -440 -160 vlineto
          1040 hmoveto
          160 -440 -160 vlineto
          endchar
        </CharString>
        <CharString name="boxdrawingslightdoubledashvertical">
          0 680 -520 rmoveto
          1280 -160 -1280 vlineto
          160 1440 rmoveto
          1280 -160 -1280 vlineto
          endchar
        </CharString>
        <CharString name="boxdrawingslightdown">
          0 680 -1000 rmoveto
          1780 -160 -1780 vlineto
          endchar
        </CharString>
        <CharString name="boxdrawingslightdownandhorizontal">
          0 680 -1000 rmoveto
          1620 530 160 -1220 -160 530 -1620 vlineto
          endchar
        </CharString>
        <CharString name="boxdrawingslightdownandleft">
          0 680 -1000 rmoveto
          1780 -690 -160 530 -1620 vlineto
          endchar
        </CharString>
        <CharString name="boxdrawingslightdownandright">
          0 680 -1000 rmoveto
          1620 530 160 -690 -1780 vlineto
          endchar
        </CharString>
        <CharString name="boxdrawingslighthorizontal">
          0 1210 620 rmoveto
          160 -1220 -160 vlineto
          endchar
        </CharString>
        <CharString name="boxdrawingslightleft">
          0 680 620 rmoveto
          160 -690 -160 vlineto
          endchar
        </CharString>
        <CharString name="boxdrawingslightleftandheavyright">
          0 1210 460 rmoveto
          480 -690 -160 -530 -160 530 -160 vlineto
          endchar
        </CharString>
        <CharString name="boxdrawingslightquadrupledashhorizontal">
          0 1125 620 rmoveto
          160 -150 -160 vlineto
          -450 hmoveto
          160 -150 -160 vlineto
          450 hmoveto
          160 -150 -160 vlineto
          -450 hmoveto
          160 -150 -160 vlineto
          endchar
        </CharString>
        <CharString name="boxdrawingslightquadrupledashvertical">
          0 680 -520 rmoveto
          540 -160 -540 vlineto
          160 2100 rmoveto
          540 -160 -540 vlineto
          160 -700 rmoveto
          540 -160 -540 vlineto
          160 -700 rmoveto
          540 -160 -540 vlineto
          endchar
        </CharString>
        <CharString name="boxdrawingslightright">
          0 1210 620 rmoveto
          160 -690 -160 vlineto
          endchar
        </CharString>
        <CharString name="boxdrawingslighttripledashhorizontal">
          0 1120 620 rmoveto
          160 -240 -160 vlineto
          -560 hmoveto
          160 -240 -160 vlineto
          640 hmoveto
          160 -240 -160 vlineto
          endchar
        </CharString>
        <CharString name="boxdrawingslighttripledashvertical">
          0 680 -520 rmoveto
          800 -160 -800 vlineto
          160 1920 rmoveto
          800 -160 -800 vlineto
          160 -960 rmoveto
          800 -160 -800 vlineto
          endchar
        </CharString>
        <CharString name="boxdrawingslightup">
          0 680 620 rmoveto
          1380 -160 -1380 vlineto
          endchar
        </CharString>
        <CharString name="boxdrawingslightupandheavydown">
          0 840 -1000 rmoveto
          1780 -160 1220 -160 -1220 -160 -1780 vlineto
          endchar
        </CharString>
        <CharString name="boxdrawingslightupandhorizontal">
          0 1210 620 rmoveto
          160 -530 1220 -160 -1220 -530 -160 vlineto
          endchar
        </CharString>
        <CharString name="boxdrawingslightupandleft">
          0 680 620 rmoveto
          1380 -160 -1220 -530 -160 vlineto
          endchar
        </CharString>
        <CharString name="boxdrawingslightupandright">
          0 1210 620 rmoveto
          160 -530 1220 -160 -1380 vlineto
          endchar
        </CharString>
        <CharString name="boxdrawingslightvertical">
          0 680 -1000 rmoveto
          3000 -160 -3000 vlineto
          endchar
        </CharString>
        <CharString name="boxdrawingslightverticalandhorizontal">
          0 680 -1000 rmoveto
          1620 530 160 -530 1220 -160 -1220 -530 -160 530 -1620 vlineto
          endchar
        </CharString>
        <CharString name="boxdrawingslightverticalandleft">
          0 680 -1000 rmoveto
          3000 -160 -1220 -530 -160 530 -1620 vlineto
          endchar
        </CharString>
        <CharString name="boxdrawingslightverticalandright">
          0 680 -1000 rmoveto
          1620 530 160 -530 1220 -160 -3000 vlineto
          endchar
        </CharString>
        <CharString name="boxdrawingsrightdownheavyandleftuplight">
          0 840 -1000 rmoveto
          1460 370 480 -530 1060 -160 -1060 -160 -160 -370 -160 370 -1620 vlineto
          endchar
        </CharString>
        <CharString name="boxdrawingsrightheavyandleftdownlight">
          0 680 -1000 rmoveto
          1460 530 480 -690 -160 -530 -160 530 -1620 vlineto
          endchar
        </CharString>
        <CharString name="boxdrawingsrightheavyandleftuplight">
          0 1210 460 rmoveto
          480 -530 1060 -160 -1220 -530 -160 530 -160 vlineto
          endchar
        </CharString>
        <CharString name="boxdrawingsrightheavyandleftverticallight">
          0 680 -1000 rmoveto
          1460 530 480 -530 1060 -160 -1220 -530 -160 530 -1620 vlineto
          endchar
        </CharString>
        <CharString name="boxdrawingsrightlightandleftdownheavy">
          0 840 -1000 rmoveto
          1620 370 160 -370 160 -850 -480 370 -1460 vlineto
          endchar
        </CharString>
        <CharString name="boxdrawingsrightlightandleftupheavy">
          0 840 460 rmoveto
          160 370 160 -370 1220 -480 -1060 -370 -480 vlineto
          endchar
        </CharString>
        <CharString name="boxdrawingsrightlightandleftverticalheavy">
          0 840 -1000 rmoveto
          1620 370 160 -370 1220 -480 -1060 -370 -480 370 -1460 vlineto
          endchar
        </CharString>
        <CharString name="boxdrawingsrightupheavyandleftdownlight">
          0 680 -1000 rmoveto
          1460 530 480 -370 1060 -480 -1220 -370 -160 370 -160 160 -1460 vlineto
          endchar
        </CharString>
        <CharString name="boxdrawingsupdoubleandhorizontalsingle">
          0 1210 620 rmoveto
          160 -370 1220 -160 -1220 -160 1220 -160 -1220 -370 -160 vlineto
          endchar
        </CharString>
        <CharString name="boxdrawingsupdoubleandleftsingle">
          0 840 620 rmoveto
          1380 -160 -1220 -160 1220 -160 -1220 -370 -160 vlineto
          endchar
        </CharString>
        <CharString name="boxdrawingsupdoubleandrightsingle">
          0 1210 620 rmoveto
          160 -370 1220 -160 -1220 -160 1220 -160 -1380 vlineto
          endchar
        </CharString>
        <CharString name="boxdrawingsupheavyanddownhorizontallight">
          0 680 -1000 rmoveto
          1620 530 160 -370 1220 -480 -1220 -370 -160 530 -1620 vlineto
          endchar
        </CharString>
        <CharString name="boxdrawingsupheavyandhorizontallight">
          0 1210 620 rmoveto
          160 -370 1220 -480 -1220 -370 -160 vlineto
          endchar
        </CharString>
        <CharString name="boxdrawingsupheavyandleftdownlight">
          0 680 -1000 rmoveto
          1620 160 1380 -480 -1220 -370 -160 530 -1620 vlineto
          endchar
        </CharString>
        <CharString name="boxdrawingsupheavyandleftlight">
          0 840 620 rmoveto
          1380 -480 -1220 -370 -160 vlineto
          endchar
        </CharString>
        <CharString name="boxdrawingsupheavyandrightdownlight">
          0 680 -1000 rmoveto
          1620 530 160 -370 1220 -480 -1380 160 -1620 vlineto
          endchar
        </CharString>
        <CharString name="boxdrawingsupheavyandrightlight">
          0 1210 620 rmoveto
          160 -370 1220 -480 -1380 vlineto
          endchar
        </CharString>
        <CharString name="boxdrawingsuplightanddownhorizontalheavy">
          0 840 -1000 rmoveto
          1460 370 480 -530 1060 -160 -1060 -530 -480 370 -1460 vlineto
          endchar
        </CharString>
        <CharString name="boxdrawingsuplightandhorizontalheavy">
          0 1210 460 rmoveto
          480 -530 1060 -160 -1060 -530 -480 vlineto
          endchar
        </CharString>
        <CharString name="boxdrawingsuplightandleftdownheavy">
          0 840 -1000 rmoveto
          1940 -160 1060 -160 -1060 -530 -480 370 -1460 vlineto
          endchar
        </CharString>
        <CharString name="boxdrawingsuplightandleftheavy">
          0 680 460 rmoveto
          1540 -160 -1060 -530 -480 vlineto
          endchar
        </CharString>
        <CharString name="boxdrawingsuplightandrightdownheavy">
          0 840 -1000 rmoveto
          1460 370 480 -530 1060 -160 -1060 -160 -1940 vlineto
          endchar
        </CharString>
        <CharString name="boxdrawingsuplightandrightheavy">
          0 1210 460 rmoveto
          480 -530 1060 -160 -1540 vlineto
          endchar
        </CharString>
        <CharString name="boxdrawingsupsingleandhorizontaldouble">
          0 1210 460 rmoveto
          160 -1220 -160 vlineto
          1220 320 rmoveto
          160 -530 1060 -160 -1060 -530 -160 vlineto
          endchar
        </CharString>
        <CharString name="boxdrawingsupsingleandleftdouble">
          0 680 460 rmoveto
          1540 -160 -1060 -530 -160 530 -160 -530 -160 vlineto
          endchar
        </CharString>
        <CharString name="boxdrawingsupsingleandrightdouble">
          0 1210 460 rmoveto
          160 -530 160 530 160 -530 1060 -160 -1540 vlineto
          endchar
        </CharString>
        <CharString name="boxdrawingsverticaldoubleandhorizontalsingle">
          0 840 -1000 rmoveto
          1620 370 160 -370 1220 -160 -1220 -160 1220 -160 -1220 -370 -160 370 -1620 160 1620 160 -1620 vlineto
          endchar
        </CharString>
        <CharString name="boxdrawingsverticaldoubleandleftsingle">
          0 840 -1000 rmoveto
          3000 -160 -3000 vlineto
          -160 hmoveto
          3000 -160 -1220 -370 -160 370 -1620 vlineto
          endchar
        </CharString>
        <CharString name="boxdrawingsverticaldoubleandrightsingle">
          0 520 -1000 rmoveto
          3000 -160 -3000 vlineto
          480 hmoveto
          1620 370 160 -370 1220 -160 -3000 vlineto
          endchar
        </CharString>
        <CharString name="boxdrawingsverticalheavyandhorizontallight">
          0 840 -1000 rmoveto
          1620 370 160 -370 1220 -480 -1220 -370 -160 370 -1620 vlineto
          endchar
        </CharString>
        <CharString name="boxdrawingsverticalheavyandleftlight">
          0 840 -1000 rmoveto
          3000 -480 -1220 -370 -160 370 -1620 vlineto
          endchar
        </CharString>
        <CharString name="boxdrawingsverticalheavyandrightlight">
          0 840 -1000 rmoveto
          1620 370 160 -370 1220 -480 -3000 vlineto
          endchar
        </CharString>
        <CharString name="boxdrawingsverticallightandhorizontalheavy">
          0 680 -1000 rmoveto
          1460 530 480 -530 1060 -160 -1060 -530 -480 530 -1460 vlineto
          endchar
        </CharString>
        <CharString name="boxdrawingsverticallightandleftheavy">
          0 680 -1000 rmoveto
          3000 -160 -1060 -530 -480 530 -1460 vlineto
          endchar
        </CharString>
        <CharString name="boxdrawingsverticallightandrightheavy">
          0 680 -1000 rmoveto
          1460 530 480 -530 1060 -160 -3000 vlineto
          endchar
        </CharString>
        <CharString name="boxdrawingsverticalsingleandhorizontaldouble">
          0 680 -1000 rmoveto
          1460 530 160 -530 160 530 160 -530 1060 -160 -1060 -530 -160 530 -160 -530 -160 530 -1460 vlineto
          endchar
        </CharString>
        <CharString name="boxdrawingsverticalsingleandleftdouble">
          0 680 -1000 rmoveto
          3000 -160 -1060 -530 -160 530 -160 -530 -160 530 -1460 vlineto
          endchar
        </CharString>
        <CharString name="boxdrawingsverticalsingleandrightdouble">
          0 680 -1000 rmoveto
          1460 530 160 -530 160 530 160 -530 1060 -160 -3000 vlineto
          endchar
        </CharString>
        <CharString name="braceleft">
          0 928 -243 rmoveto
          17 0 14 6 12 11 12 11 6 17 0 24 0 18 -6 16 -13 12 -12 12 -14 6 -16 0 rrcurveto
          -68 hlineto
          -80 0 -59 12 -36 25 -59 40 -29 53 0 68 0 17 1 29 2 40 rrcurveto
          3 207 rlineto
          0 136 -29 91 -57 48 -15 11 -7 15 0 18 0 18 7 15 15 11 57 48 29 92 0 135 rrcurveto
          -4 207 rlineto
          -1 40 -1 29 0 17 0 68 29 53 59 40 36 25 59 12 80 0 rrcurveto
          69 hlineto
          16 0 14 6 12 12 13 12 6 16 0 18 0 24 -6 17 -12 11 -12 11 -14 6 -17 0 -104 0 -64 -1 -26 -1 -64 -5 -54 -19 -45 -36 -79 -60 -40 -90 0 -118 0 -27 2 -55 3 -84 rrcurveto
          3 -83 2 -52 0 -20 0 -79 -20 -59 -39 -38 -28 -29 -37 -14 -45 0 -56 0 -28 -24 0 -49 0 -49 28 -24 56 0 45 0 37 -14 28 -29 39 -38 20 -59 0 -79 0 -20 -2 -52 -3 -83 rrcurveto
          -3 -84 -2 -55 0 -27 0 -118 40 -90 79 -60 45 -36 54 -19 64 -5 26 -1 64 -1 103 0 rrcurveto
          endchar
        </CharString>
        <CharString name="braceleft_double">
          0 -72 -243 rmoveto
          17 0 14 6 12 11 12 11 6 17 0 24 0 18 -6 16 -13 12 -12 12 -14 6 -16 0 rrcurveto
          -68 hlineto
          -80 0 -59 12 -36 25 -59 40 -29 53 0 68 0 17 1 29 2 40 rrcurveto
          3 207 rlineto
          0 134 -29 91 -57 50 -15 11 -7 15 0 18 0 18 7 15 15 11 57 50 29 91 0 134 rrcurveto
          -3 207 rlineto
          -2 40 -1 29 0 17 0 68 29 53 59 40 36 25 59 12 80 0 rrcurveto
          69 hlineto
          16 0 14 6 12 12 13 12 6 16 0 18 0 24 -6 17 -12 11 -12 11 -14 6 -17 0 -104 0 -64 -1 -26 -1 -65 -5 -54 -19 -44 -36 -79 -60 -40 -90 0 -118 0 -27 2 -55 3 -84 rrcurveto
          3 -83 2 -52 0 -20 0 -79 -20 -59 -39 -38 -28 -29 -37 -14 -45 0 -56 0 -28 -24 0 -49 0 -49 28 -24 56 0 45 0 37 -14 28 -29 39 -38 20 -59 0 -79 0 -20 -2 -52 -3 -83 rrcurveto
          -3 -84 -2 -55 0 -27 0 -118 40 -90 79 -60 44 -36 54 -19 65 -5 26 -1 64 -1 103 0 rrcurveto
          800 hmoveto
          17 0 14 6 12 11 12 11 6 17 0 24 0 18 -6 16 -13 12 -12 12 -14 6 -16 0 rrcurveto
          -68 hlineto
          -80 0 -59 12 -36 25 -59 40 -29 53 0 68 0 17 1 29 2 40 rrcurveto
          3 207 rlineto
          0 134 -29 91 -57 50 -15 11 -7 15 0 18 0 18 7 15 15 11 57 50 29 91 0 134 rrcurveto
          -3 207 rlineto
          -2 40 -1 29 0 17 0 68 29 53 59 40 36 25 59 12 80 0 rrcurveto
          69 hlineto
          16 0 14 6 12 12 13 12 6 16 0 18 0 24 -6 17 -12 11 -12 11 -14 6 -17 0 -104 0 -64 -1 -26 -1 -65 -5 -54 -19 -44 -36 -79 -60 -40 -90 0 -118 0 -27 2 -55 3 -84 rrcurveto
          3 -83 2 -52 0 -20 0 -79 -20 -59 -39 -38 -28 -29 -37 -14 -45 0 -56 0 -28 -24 0 -49 0 -49 28 -24 56 0 45 0 37 -14 28 -29 39 -38 20 -59 0 -79 0 -20 -2 -52 -3 -83 rrcurveto
          -3 -84 -2 -55 0 -27 0 -118 40 -90 79 -60 44 -36 54 -19 65 -5 26 -1 64 -1 103 0 rrcurveto
          endchar
        </CharString>
        <CharString name="braceright">
          0 272 -243 rmoveto
          103 0 64 1 26 1 64 5 54 19 45 36 79 60 40 90 0 118 0 27 -2 55 -3 84 -3 83 -2 52 0 20 0 79 20 59 39 38 28 29 37 14 45 0 56 0 28 24 0 49 rrcurveto
          0 49 -28 24 -56 0 -45 0 -37 14 -28 29 -39 38 -20 59 0 79 0 20 2 52 3 83 3 84 2 55 0 27 0 118 -40 90 -79 60 -45 36 -54 19 -64 5 -26 1 -64 1 -104 0 rrcurveto
          -17 0 -14 -6 -12 -11 -12 -11 -6 -17 0 -24 0 -18 6 -16 13 -12 12 -12 14 -6 16 0 rrcurveto
          69 hlineto
          80 0 59 -12 36 -25 59 -40 29 -53 0 -68 0 -17 -1 -29 -1 -40 rrcurveto
          -4 -207 rlineto
          0 -135 29 -92 57 -48 15 -11 7 -15 0 -18 0 -18 -7 -15 -15 -11 -57 -48 -29 -91 0 -136 rrcurveto
          3 -207 rlineto
          2 -40 1 -29 0 -17 0 -68 -29 -53 -59 -40 -36 -25 -59 -12 -80 0 rrcurveto
          -68 hlineto
          -16 0 -14 -6 -12 -12 -13 -12 -6 -16 0 -18 0 -24 6 -17 12 -11 12 -11 14 -6 17 0 rrcurveto
          endchar
        </CharString>
        <CharString name="braceright_double">
          0 -637 -243 rmoveto
          42 0 34 1 25 1 25 2 28 5 30 10 30 9 27 15 24 19 79 60 40 90 0 118 0 27 -2 55 -3 84 -3 83 -2 52 0 20 0 79 20 59 39 38 28 29 37 14 45 0 rrcurveto
          56 0 28 24 0 49 0 49 -28 24 -56 0 -45 0 -37 14 -28 29 -39 38 -20 59 0 79 0 20 2 52 3 83 3 84 2 55 0 27 0 118 -40 90 -79 60 -44 36 -54 19 -65 5 rrcurveto
          -26 1 -64 1 -104 0 -17 0 -14 -6 -12 -11 -12 -11 -6 -17 0 -24 0 -18 6 -16 13 -12 12 -12 14 -6 16 0 rrcurveto
          69 hlineto
          80 0 59 -12 36 -25 59 -40 29 -53 0 -68 0 -17 -1 -29 -2 -40 rrcurveto
          -3 -207 rlineto
          0 -134 29 -91 57 -50 15 -11 7 -15 0 -18 0 -18 -7 -15 -15 -11 -57 -50 -29 -91 0 -134 rrcurveto
          3 -207 rlineto
          2 -40 1 -29 0 -17 0 -68 -29 -53 -59 -40 -36 -25 -59 -12 -80 0 rrcurveto
          -68 hlineto
          -16 0 -14 -6 -12 -12 -13 -12 -6 -16 0 -18 0 -24 6 -17 12 -11 12 -11 14 -6 17 0 rrcurveto
          891 hmoveto
          42 0 34 1 25 1 25 2 28 5 30 10 30 9 27 15 24 19 79 60 40 90 0 118 0 27 -2 55 -3 84 -3 83 -2 52 0 20 0 79 20 59 39 38 28 29 37 14 45 0 rrcurveto
          56 0 28 24 0 49 0 49 -28 24 -56 0 -45 0 -37 14 -28 29 -39 38 -20 59 0 79 0 20 2 52 3 83 3 84 2 55 0 27 0 118 -40 90 -79 60 -44 36 -54 19 -65 5 rrcurveto
          -26 1 -64 1 -104 0 -17 0 -14 -6 -12 -11 -12 -11 -6 -17 0 -24 0 -18 6 -16 13 -12 12 -12 14 -6 16 0 rrcurveto
          69 hlineto
          80 0 59 -12 36 -25 59 -40 29 -53 0 -68 0 -17 -1 -29 -2 -40 rrcurveto
          -3 -207 rlineto
          0 -134 29 -91 57 -50 15 -11 7 -15 0 -18 0 -18 -7 -15 -15 -11 -57 -50 -29 -91 0 -134 rrcurveto
          3 -207 rlineto
          2 -40 1 -29 0 -17 0 -68 -29 -53 -59 -40 -36 -25 -59 -12 -80 0 rrcurveto
          -68 hlineto
          -16 0 -14 -6 -12 -12 -13 -12 -6 -16 0 -18 0 -24 6 -17 12 -11 12 -11 14 -6 17 0 rrcurveto
          endchar
        </CharString>
        <CharString name="bracketleft">
          0 840 -250 rmoveto
          19 0 17 7 13 14 14 13 7 17 0 19 0 19 -7 17 -14 13 -13 14 -17 7 -19 0 rrcurveto
          -337 hlineto
          -35 0 -18 18 0 35 rrcurveto
          1515 vlineto
          0 35 18 17 35 0 rrcurveto
          337 hlineto
          19 0 17 7 13 14 14 13 7 17 0 19 0 19 -7 17 -14 13 -13 14 -17 7 -19 0 rrcurveto
          -456 hlineto
          -20 0 -18 -7 -14 -15 -15 -14 -7 -17 0 -20 rrcurveto
          -1754 vlineto
          0 -20 7 -17 15 -14 14 -15 18 -7 20 0 rrcurveto
          endchar
        </CharString>
        <CharString name="bracketright">
          0 380 -250 rmoveto
          456 hlineto
          20 0 18 7 14 15 15 14 7 17 0 20 rrcurveto
          1754 vlineto
          0 20 -7 17 -15 14 -14 15 -18 7 -20 0 rrcurveto
          -456 hlineto
          -19 0 -17 -7 -13 -14 -14 -13 -7 -17 0 -19 0 -19 7 -17 14 -13 13 -14 17 -7 19 0 rrcurveto
          337 hlineto
          35 0 18 -17 0 -35 rrcurveto
          -1515 vlineto
          0 -35 -18 -18 -35 0 rrcurveto
          -337 hlineto
          -19 0 -17 -7 -13 -14 -14 -13 -7 -17 0 -19 0 -19 7 -17 14 -13 13 -14 17 -7 19 0 rrcurveto
          endchar
        </CharString>
        <CharString name="bracketright_numbersign">
          0 -384 -250 rmoveto
          21 0 17 7 14 15 15 14 7 17 0 20 rrcurveto
          547 940 140 -940 380 540 140 -540 547 vlineto
          0 20 -7 17 -15 14 -14 15 -17 7 -21 0 rrcurveto
          -456 hlineto
          -19 0 -17 -7 -13 -14 -14 -13 -7 -17 0 -19 0 -19 7 -17 14 -13 13 -14 17 -7 19 0 rrcurveto
          337 hlineto
          35 0 18 -17 0 -35 rrcurveto
          -1515 vlineto
          0 -35 -18 -18 -35 0 rrcurveto
          -337 hlineto
          -19 0 -17 -7 -13 -14 -14 -13 -7 -17 0 -19 0 -19 7 -17 14 -13 13 -14 17 -7 19 0 rrcurveto
          1910 1140 rmoveto
          20 0 17 7 13 14 13 13 7 17 0 20 0 19 -7 17 -14 13 -13 13 -17 7 -19 0 rrcurveto
          -500 -140 hlineto
          -169 -900 rmoveto
          19 0 17 7 13 13 14 13 7 17 0 20 rrcurveto
          190 -141 -190 vlineto
          0 -20 7 -17 14 -13 13 -13 17 -7 20 0 rrcurveto
          70 640 rmoveto
          711 vlineto
          0 19 -7 17 -14 13 -13 13 -17 7 -20 0 -19 0 -17 -7 -13 -13 -14 -13 -7 -17 0 -19 rrcurveto
          -711 vlineto
          471 -640 rmoveto
          19 0 17 7 13 13 13 13 7 17 0 20 rrcurveto
          710 -140 -710 vlineto
          0 -20 7 -17 14 -13 13 -13 17 -7 20 0 rrcurveto
          69 1160 rmoveto
          191 vlineto
          0 19 -7 17 -13 13 -13 13 -17 7 -20 0 -19 0 -17 -7 -13 -13 -14 -13 -7 -17 0 -19 rrcurveto
          -191 vlineto
          340 -780 rmoveto
          19 0 17 7 13 13 14 13 7 17 0 20 0 19 -7 17 -14 13 -13 14 -17 7 -19 0 rrcurveto
          -100 -140 hlineto
          endchar
        </CharString>
        <CharString name="bracketright_numbersign_alt">
          0 471 890 rmoveto
          259 -380 -259 hlineto
          -141 hmoveto
          -640 380 640 hlineto
          540 -520 rmoveto
          200 hlineto
          18 0 17 7 14 14 14 14 7 17 0 18 0 18 -7 17 -14 14 -14 14 -17 7 -18 0 rrcurveto
          -200 380 200 hlineto
          18 0 17 7 14 14 14 14 7 17 0 19 0 18 -7 17 -14 13 -14 14 -16 7 -19 0 rrcurveto
          -200 311 hlineto
          0 18 -7 17 -14 13 -13 14 -17 7 -19 0 -19 0 -16 -7 -14 -14 -14 -13 -7 -17 0 -18 rrcurveto
          -311 -259 311 vlineto
          0 18 -7 17 -14 13 -14 14 -17 7 -19 0 -19 0 -16 -7 -14 -14 -14 -13 -7 -17 0 -18 rrcurveto
          -311 -640 547 vlineto
          0 20 -7 17 -15 14 -14 15 -18 7 -20 0 rrcurveto
          -456 hlineto
          -19 0 -17 -7 -13 -14 -14 -13 -7 -17 0 -19 0 -19 7 -17 14 -13 13 -14 17 -7 19 0 rrcurveto
          337 hlineto
          35 0 18 -17 0 -35 rrcurveto
          -1515 vlineto
          0 -35 -18 -18 -35 0 rrcurveto
          -337 hlineto
          -19 0 -17 -7 -13 -14 -14 -13 -7 -17 0 -19 0 -19 7 -17 14 -13 13 -14 17 -7 19 0 rrcurveto
          456 hlineto
          20 0 18 7 14 15 15 14 7 17 0 20 rrcurveto
          547 640 -310 vlineto
          0 -18 7 -17 14 -14 14 -14 17 -7 19 0 18 0 17 7 14 14 14 14 7 17 0 18 rrcurveto
          310 259 -310 vlineto
          0 -18 7 -17 14 -14 14 -14 17 -7 19 0 18 0 17 7 13 14 14 14 7 16 0 19 rrcurveto
          endchar
        </CharString>
        <CharString name="brokenbar">
          0 600 890 rmoveto
          19 0 17 7 13 14 14 13 7 17 0 19 rrcurveto
          680 vlineto
          0 19 -7 17 -14 13 -13 14 -17 7 -19 0 -19 0 -17 -7 -13 -14 -14 -13 -7 -17 0 -19 rrcurveto
          -680 vlineto
          0 -19 7 -17 14 -13 13 -14 17 -7 19 0 rrcurveto
          -1130 vmoveto
          19 0 17 7 13 14 14 13 7 17 0 19 rrcurveto
          680 vlineto
          0 19 -7 17 -14 13 -13 14 -17 7 -19 0 -19 0 -17 -7 -13 -14 -14 -13 -7 -17 0 -19 rrcurveto
          -680 vlineto
          0 -19 7 -17 14 -13 13 -14 17 -7 19 0 rrcurveto
          endchar
        </CharString>
        <CharString name="c">
          0 680 -10 rmoveto
          106 0 102 39 99 77 16 12 8 16 0 20 0 22 -5 18 -11 12 -11 12 -13 6 -15 0 -13 0 -11 -3 -8 -6 -78 -56 -78 -28 -76 0 -107 0 -82 35 -57 69 -57 69 -29 94 0 118 rrcurveto
          0 128 30 97 60 67 60 67 81 33 103 0 66 0 66 -21 67 -41 13 -7 12 -4 12 0 19 0 15 7 10 15 11 14 5 16 0 17 0 21 -8 18 -16 14 -75 69 -92 34 -109 0 rrcurveto
          -88 0 -81 -20 -74 -41 -74 -41 -60 -59 -45 -76 -45 -76 -23 -103 0 -128 0 -111 20 -94 40 -78 40 -78 57 -60 75 -42 75 -42 83 -21 90 0 rrcurveto
          endchar
        </CharString>
        <CharString name="ccedilla">
          0 680 -10 rmoveto
          106 0 102 39 99 77 16 12 8 16 0 20 0 22 -5 18 -11 12 -11 12 -13 6 -15 0 -13 0 -11 -3 -8 -6 -78 -56 -78 -28 -76 0 -107 0 -82 35 -57 69 -57 69 -29 94 0 118 rrcurveto
          0 128 30 97 60 67 60 67 81 33 103 0 66 0 66 -21 67 -41 13 -7 12 -4 12 0 19 0 15 7 10 15 11 14 5 16 0 17 0 21 -8 18 -16 14 -75 69 -92 34 -109 0 rrcurveto
          -88 0 -81 -20 -74 -41 -74 -41 -60 -59 -45 -76 -45 -76 -23 -103 0 -128 0 -111 20 -94 40 -78 40 -78 57 -60 75 -42 75 -42 83 -21 90 0 rrcurveto
          -102 -467 rmoveto
          68 0 55 15 49 33 46 33 22 43 0 63 0 39 -12 31 -29 33 -24 27 -37 17 -55 7 -18 3 -19 20 0 20 rrcurveto
          59 vlineto
          0 29 -18 18 -29 0 -26 0 -18 -16 -2 -27 rrcurveto
          -11 -139 rlineto
          0 -11 4 -5 13 -1 39 -2 33 -6 25 -8 38 -13 24 -32 0 -42 0 -35 -16 -29 -27 -16 -26 -14 -34 -7 -37 0 -33 0 -33 4 -31 10 -5 1 -3 1 -5 0 -17 0 -11 -6 -8 -15 rrcurveto
          -4 -8 -1 -5 0 -8 0 -19 8 -14 20 -6 rrcurveto
          29 -9 rlineto
          37 -8 38 -5 41 0 rrcurveto
          endchar
        </CharString>
        <CharString name="cedilla">
          0 578 -477 rmoveto
          68 0 55 15 49 33 46 33 22 43 0 63 0 70 -41 68 -116 16 -18 3 -19 20 0 20 rrcurveto
          59 vlineto
          0 29 -18 18 -29 0 -26 0 -18 -16 -2 -27 rrcurveto
          -11 -139 rlineto
          0 -11 4 -5 13 -1 101 -5 58 -25 0 -73 0 -71 -59 -30 -81 0 -33 0 -33 4 -31 10 -5 1 -3 1 -5 0 -24 0 -17 -18 0 -24 0 -19 8 -14 20 -6 56 -17 30 -5 59 0 rrcurveto
          endchar
        </CharString>
        <CharString name="cent">
          0 700 -280 rmoveto
          19 0 17 7 13 14 14 13 7 17 0 19 rrcurveto
          209 vlineto
          79 20 72 35 66 52 16 12 8 16 0 20 0 22 -5 18 -11 12 -11 12 -13 6 -15 0 -13 0 -11 -3 -8 -6 -78 -56 -78 -28 -76 0 -107 0 -82 35 -57 69 -57 69 -29 94 0 118 rrcurveto
          0 128 30 97 60 67 60 67 81 33 103 0 66 0 66 -21 67 -41 13 -7 12 -4 12 0 19 0 15 7 10 15 11 14 5 16 0 17 0 21 -8 18 -16 14 -52 48 -65 32 -79 17 rrcurveto
          256 vlineto
          0 19 -7 17 -14 13 -13 14 -17 7 -19 0 -19 0 -17 -7 -13 -14 -14 -13 -7 -17 0 -19 rrcurveto
          -253 vlineto
          -163 -24 -121 -78 -78 -132 -45 -76 -23 -103 0 -128 0 -111 20 -94 40 -78 72 -139 123 -80 175 -22 rrcurveto
          -202 vlineto
          0 -19 7 -17 14 -13 13 -14 17 -7 19 0 rrcurveto
          endchar
        </CharString>
        <CharString name="colon">
          0 604 771 rmoveto
          38 0 32 14 27 28 27 28 14 34 0 40 0 41 -14 34 -27 28 -27 28 -32 14 -38 0 -41 0 -34 -14 -28 -28 -27 -28 -14 -34 0 -41 0 -40 14 -34 27 -28 28 -28 34 -14 41 0 rrcurveto
          -781 vmoveto
          38 0 32 14 27 29 27 28 14 34 0 39 0 41 -14 34 -27 28 -27 29 -32 14 -38 0 -41 0 -34 -14 -28 -29 -27 -28 -14 -34 0 -41 0 -39 14 -34 27 -28 28 -29 34 -14 41 0 rrcurveto
          endchar
        </CharString>
        <CharString name="colon_center">
          0 604 801 rmoveto
          38 0 32 14 27 28 27 28 14 34 0 40 0 41 -14 34 -27 28 -27 28 -32 14 -38 0 -41 0 -34 -14 -28 -28 -27 -28 -14 -34 0 -41 0 -40 14 -34 27 -28 28 -28 34 -14 41 0 rrcurveto
          -691 vmoveto
          38 0 32 14 27 29 27 28 14 34 0 39 0 41 -14 34 -27 28 -27 29 -32 14 -38 0 -41 0 -34 -14 -28 -29 -27 -28 -14 -34 0 -41 0 -39 14 -34 27 -28 28 -29 34 -14 41 0 rrcurveto
          endchar
        </CharString>
        <CharString name="colon_center_left">
          0 384 801 rmoveto
          38 0 32 14 27 28 27 28 14 34 0 40 0 41 -14 34 -27 28 -27 28 -32 14 -38 0 -41 0 -34 -14 -28 -28 -27 -28 -14 -34 0 -41 0 -40 14 -34 27 -28 28 -28 34 -14 41 0 rrcurveto
          -691 vmoveto
          38 0 32 14 27 29 27 28 14 34 0 39 0 41 -14 34 -27 28 -27 29 -32 14 -38 0 -41 0 -34 -14 -28 -29 -27 -28 -14 -34 0 -41 0 -39 14 -34 27 -28 28 -29 34 -14 41 0 rrcurveto
          endchar
        </CharString>
        <CharString name="colon_center_right">
          0 824 801 rmoveto
          38 0 32 14 27 28 27 28 14 34 0 40 0 41 -14 34 -27 28 -27 28 -32 14 -38 0 -41 0 -34 -14 -28 -28 -27 -28 -14 -34 0 -41 0 -40 14 -34 27 -28 28 -28 34 -14 41 0 rrcurveto
          -691 vmoveto
          38 0 32 14 27 29 27 28 14 34 0 39 0 41 -14 34 -27 28 -27 29 -32 14 -38 0 -41 0 -34 -14 -28 -29 -27 -28 -14 -34 0 -41 0 -39 14 -34 27 -28 28 -29 34 -14 41 0 rrcurveto
          endchar
        </CharString>
        <CharString name="comma">
          0 370 -393 rmoveto
          140 15 108 55 76 96 55 71 27 79 0 89 0 100 -25 75 -50 49 -29 29 -33 15 -38 0 -51 0 -38 -19 -23 -37 -15 -20 -7 -24 0 -26 0 -42 19 -40 39 -37 38 -37 19 -41 0 -45 rrcurveto
          0 -42 -20 -37 -39 -32 -40 -32 -53 -20 -65 -8 -45 -5 -22 -25 0 -45 4 -39 24 -20 44 0 rrcurveto
          endchar
        </CharString>
        <CharString name="copyright">
          0 602 264 rmoveto
          115 0 98 28 80 56 80 56 61 75 43 94 42 95 21 105 0 116 0 117 -21 106 -42 94 -43 95 -61 75 -80 56 -80 55 -98 28 -115 0 -114 0 -98 -28 -81 -55 -81 -56 -62 -76 -43 -94 rrcurveto
          -43 -94 -22 -106 0 -117 0 -116 22 -105 42 -95 43 -94 62 -75 81 -56 81 -56 98 -28 115 0 rrcurveto
          71 vmoveto
          -103 0 -86 25 -68 51 -69 50 -50 68 -34 83 -33 84 -17 92 0 101 0 102 17 93 33 84 34 85 50 67 69 51 68 50 86 26 103 0 103 0 86 -26 68 -50 68 -51 51 -67 33 -85 rrcurveto
          33 -84 16 -93 0 -102 0 -101 -16 -92 -34 -84 -33 -83 -50 -67 -68 -51 -68 -51 -86 -25 -103 0 rrcurveto
          24 233 rmoveto
          64 0 61 23 60 46 8 6 4 8 0 10 0 24 -9 11 -17 0 -7 0 -5 -1 -4 -3 -49 -35 -50 -18 -48 0 -69 0 -52 22 -37 45 -36 44 -19 60 0 74 0 81 20 62 38 42 rrcurveto
          38 43 52 22 66 0 42 0 42 -14 43 -26 6 -4 6 -1 6 0 10 0 7 3 5 7 5 8 3 8 0 8 0 11 -4 9 -8 8 -45 41 -55 20 -66 0 -52 0 -49 -12 -45 -25 rrcurveto
          -44 -25 -36 -35 -27 -46 -27 -45 -14 -62 0 -78 0 -67 12 -57 24 -47 24 -46 35 -36 44 -26 45 -25 50 -12 54 0 rrcurveto
          endchar
        </CharString>
        <CharString name="currency">
          0 171 204 rmoveto
          17 0 14 5 13 13 rrcurveto
          103 104 rlineto
          9 9 16 6 12 0 7 0 9 -2 7 -3 65 -35 72 -17 87 0 85 0 70 17 62 35 7 3 9 2 8 0 11 0 15 -5 10 -8 rrcurveto
          106 -105 rlineto
          13 -13 13 -5 17 0 37 0 26 29 0 35 0 17 -5 14 -13 13 rrcurveto
          -101 100 rlineto
          -9 9 -6 15 0 12 0 8 2 10 5 8 35 58 25 78 0 91 0 89 -23 69 -35 65 -5 7 -2 11 0 8 0 12 5 15 8 9 rrcurveto
          102 101 rlineto
          13 13 5 14 0 17 0 18 -5 13 -19 19 rrcurveto
          1 vlineto
          -7 7 -14 5 -17 0 -18 0 -14 -5 -13 -13 rrcurveto
          -103 -104 rlineto
          -9 -9 -16 -6 -11 0 -8 0 -11 3 -7 4 -62 35 -70 18 -86 0 -86 0 -73 -20 -63 -35 -7 -3 -10 -2 -7 0 -12 0 -16 6 -9 9 rrcurveto
          -104 106 rlineto
          -13 13 -14 5 -17 0 -18 0 -14 -5 -19 -20 rrcurveto
          -1 hlineto
          -6 -7 -5 -13 0 -17 0 -18 5 -13 12 -13 rrcurveto
          104 -106 rlineto
          9 -9 6 -15 0 -12 0 -8 -3 -10 -4 -7 -34 -63 -21 -74 0 -85 0 -91 21 -71 35 -64 4 -7 3 -10 0 -8 0 -12 -6 -15 -9 -9 rrcurveto
          -104 -104 rlineto
          -13 -13 -5 -14 0 -17 0 -34 27 -29 36 0 rrcurveto
          431 194 rmoveto
          -183 0 -90 127 0 177 0 175 90 128 183 0 183 0 88 -128 0 -175 0 -177 -88 -127 -183 0 rrcurveto
          endchar
        </CharString>
        <CharString name="d">
          0 595 131 rmoveto
          -14 hlineto
          -180 4 -93 123 -5 241 0 133 24 98 47 63 47 63 70 32 92 0 72 0 62 -26 51 -53 55 -61 27 -64 0 -66 rrcurveto
          -213 vlineto
          0 -85 -28 -67 -55 -49 -56 -49 -57 -24 -59 0 rrcurveto
          328 -141 rmoveto
          19 0 16 7 13 13 13 13 6 17 0 22 rrcurveto
          1374 vlineto
          0 22 -7 17 -15 14 -15 14 -17 7 -17 0 -17 0 -16 -7 -14 -14 -15 -14 -7 -17 0 -22 rrcurveto
          -424 vlineto
          0 -37 -17 -19 -34 0 -16 0 -17 7 -17 14 -65 55 -67 28 -67 0 -119 0 -94 -47 -69 -93 -70 -94 -35 -130 0 -167 1 -177 31 -134 60 -91 61 -91 97 -46 135 0 79 0 76 36 74 73 rrcurveto
          11 11 12 6 13 0 24 0 14 -17 5 -35 7 -49 22 -25 38 0 rrcurveto
          endchar
        </CharString>
        <CharString name="dagger">
          0 940 890 rmoveto
          19 0 17 7 13 14 14 13 7 17 0 19 0 19 -7 17 -14 13 -13 14 -17 7 -19 0 rrcurveto
          -680 hlineto
          -19 0 -17 -7 -13 -14 -14 -13 -7 -17 0 -19 0 -19 7 -17 14 -13 13 -14 17 -7 19 0 rrcurveto
          410 300 rmoveto
          150 vlineto
          0 19 -7 17 -14 13 -14 14 -16 7 -19 0 -19 0 -16 -7 -14 -14 -14 -13 -7 -17 0 -19 rrcurveto
          -150 vlineto
          70 -1200 rmoveto
          18 0 17 7 14 14 14 14 7 17 0 18 rrcurveto
          670 -140 -670 vlineto
          0 -18 7 -17 14 -14 14 -14 17 -7 18 0 rrcurveto
          endchar
        </CharString>
        <CharString name="darkshade">
          0 -600 vmoveto
          1200 2640 -120 -120 -120 120 -120 -120 -120 120 -120 -120 -120 120 -120 -120 -120 120 -120 -120 -120 -120 120 -120 -120 -120 120 -120 -120 -120 120 -120 -120 -120 120 -120 -120 -120 120 -120 -120 -120 120 -120 -120 -120 120 -120 hlineto
          -120 -120 120 -120 -120 -120 120 -120 -120 -120 120 -120 -120 hlineto
          960 2160 rmoveto
          120 120 -120 vlineto
          -360 hmoveto
          120 120 -120 vlineto
          -360 hmoveto
          120 120 -120 vlineto
          -360 hmoveto
          120 120 -120 vlineto
          600 -240 rmoveto
          120 120 -120 vlineto
          -360 hmoveto
          120 120 -120 vlineto
          -360 hmoveto
          120 120 -120 vlineto
          -360 hmoveto
          120 120 -120 vlineto
          600 -240 rmoveto
          120 120 -120 vlineto
          -360 hmoveto
          120 120 -120 vlineto
          -600 hmoveto
          120 120 -120 vlineto
          120 hmoveto
          120 120 -120 vlineto
          360 -240 rmoveto
          120 120 -120 vlineto
          -840 hmoveto
          120 120 -120 vlineto
          360 hmoveto
          120 120 -120 vlineto
          -360 hmoveto
          120 120 -120 vlineto
          -360 -240 rmoveto
          120 120 -120 vlineto
          600 hmoveto
          120 120 -120 vlineto
          -600 hmoveto
          120 120 -120 vlineto
          120 hmoveto
          120 120 -120 vlineto
          -120 -240 rmoveto
          120 120 -120 vlineto
          -600 hmoveto
          120 120 -120 vlineto
          120 hmoveto
          120 120 -120 vlineto
          360 hmoveto
          120 120 -120 vlineto
          -840 -240 rmoveto
          120 120 -120 vlineto
          120 hmoveto
          120 120 -120 vlineto
          120 hmoveto
          120 120 -120 vlineto
          120 hmoveto
          120 120 -120 vlineto
          -120 -240 rmoveto
          120 120 -120 vlineto
          -360 hmoveto
          120 120 -120 vlineto
          -360 hmoveto
          120 120 -120 vlineto
          -360 hmoveto
          120 120 -120 vlineto
          600 -240 rmoveto
          120 120 -120 vlineto
          -360 hmoveto
          120 120 -120 vlineto
          -360 hmoveto
          120 120 -120 vlineto
          -360 hmoveto
          120 120 -120 vlineto
          -120 -240 rmoveto
          120 120 -120 vlineto
          600 hmoveto
          120 120 -120 vlineto
          -360 hmoveto
          120 120 -120 vlineto
          -360 hmoveto
          120 120 -120 vlineto
          endchar
        </CharString>
        <CharString name="degree">
          0 459 908 rmoveto
          55 0 52 12 48 24 48 24 39 34 31 46 30 45 15 56 0 65 0 65 -15 56 -30 45 -31 45 -39 35 -48 24 -48 24 -52 11 -55 0 -54 0 -51 -11 -49 -24 -48 -24 -40 -35 -30 -45 rrcurveto
          -30 -45 -16 -54 0 -65 0 -66 16 -56 30 -45 30 -46 40 -34 48 -25 49 -24 51 -12 54 0 rrcurveto
          94 vmoveto
          -51 0 -46 17 -40 36 -40 36 -20 54 0 71 0 71 20 52 41 36 40 35 45 17 51 0 52 0 46 -18 39 -36 40 -35 19 -53 0 -71 0 -71 -19 -53 -40 -35 -39 -36 -46 -17 -52 0 rrcurveto
          endchar
        </CharString>
        <CharString name="dieresis">
          0 384 1346 rmoveto
          28 0 24 10 19 18 19 19 10 23 0 28 0 29 -10 23 -19 19 -19 19 -24 9 -28 0 -29 0 -25 -9 -19 -19 -19 -19 -10 -23 0 -29 0 -28 10 -23 19 -19 19 -18 25 -10 29 0 rrcurveto
          431 hmoveto
          29 0 25 10 19 18 19 19 10 23 0 28 0 29 -10 23 -19 19 -19 19 -25 9 -29 0 -28 0 -24 -9 -19 -19 -20 -19 -9 -23 0 -29 0 -28 9 -23 20 -19 19 -18 24 -10 28 0 rrcurveto
          endchar
        </CharString>
        <CharString name="divide">
          0 940 530 rmoveto
          19 0 17 7 13 14 14 13 7 17 0 19 0 19 -7 17 -14 13 -13 14 -17 7 -19 0 rrcurveto
          -680 hlineto
          -19 0 -17 -7 -13 -14 -14 -13 -7 -17 0 -19 0 -19 7 -17 14 -13 13 -14 17 -7 19 0 rrcurveto
          342 320 rmoveto
          27 0 24 10 19 21 20 20 10 25 0 28 0 30 -10 25 -20 20 -19 21 -24 10 -27 0 -29 0 -25 -10 -20 -21 -20 -20 -10 -25 0 -30 0 -28 10 -25 20 -20 20 -21 25 -10 29 0 rrcurveto
          -710 vmoveto
          27 0 24 10 19 21 20 20 10 25 0 28 0 30 -10 25 -20 20 -19 21 -24 10 -27 0 -29 0 -25 -10 -20 -21 -20 -20 -10 -25 0 -30 0 -28 10 -25 20 -20 20 -21 25 -10 29 0 rrcurveto
          endchar
        </CharString>
        <CharString name="dollar">
          0 770 34 rmoveto
          165 51 83 108 0 162 0 133 -67 106 -135 80 -50 30 -69 31 -89 31 -172 65 -87 92 -2 119 0 69 28 58 55 47 rrcurveto
          164 vlineto
          -72 -40 -52 -47 -34 -53 -38 -57 -19 -73 0 -89 0 -176 125 -132 250 -88 41 -15 43 -18 43 -21 109 -51 54 -67 0 -83 0 -85 -37 -61 -73 -34 rrcurveto
          -100 686 rmoveto
          664 vlineto
          0 19 -7 17 -14 13 -13 14 -17 7 -19 0 -19 0 -17 -7 -13 -14 -14 -13 -7 -17 0 -19 rrcurveto
          -603 vlineto
          41 -27 46 -20 53 -14 rrcurveto
          -70 -1086 rmoveto
          19 0 17 7 13 14 14 13 7 17 0 19 rrcurveto
          606 vlineto
          -25 17 -46 20 -69 23 rrcurveto
          -666 vlineto
          0 -19 7 -17 14 -13 13 -14 17 -7 19 0 rrcurveto
          340 1285 rmoveto
          38 0 19 23 0 45 0 9 -1 8 -3 8 -24 108 -75 71 -124 33 rrcurveto
          -164 vlineto
          55 -14 34 -27 14 -40 14 -40 23 -20 30 0 rrcurveto
          -510 -1041 rmoveto
          2 153 rlineto
          -25 10 -31 28 -38 45 -38 45 -30 22 -22 0 -20 0 -16 -7 -11 -14 -12 -15 -6 -16 0 -17 0 -14 2 -11 4 -9 25 -58 41 -47 55 -38 43 -28 40 -19 37 -10 rrcurveto
          endchar
        </CharString>
        <CharString name="dollar_alt">
          0 530 799 rmoveto
          -121 71 -61 81 -1 91 0 48 12 42 25 36 28 40 48 25 70 10 rrcurveto
          -121 -1208 rmoveto
          34 -16 41 -11 46 -5 rrcurveto
          -143 vlineto
          0 -19 7 -17 14 -13 13 -14 17 -7 19 0 19 0 17 7 13 14 14 13 7 17 0 19 rrcurveto
          145 vlineto
          62 8 40 7 15 6 66 27 56 43 46 58 42 54 21 67 0 80 0 133 -67 107 -134 82 -36 20 -49 22 -62 24 rrcurveto
          506 vlineto
          69 -6 47 -13 26 -19 31 -23 21 -26 9 -27 14 -40 22 -20 31 0 38 0 19 23 0 45 0 9 -1 8 -2 8 -23 96 -67 69 -111 42 -26 10 -41 8 -56 6 rrcurveto
          141 vlineto
          0 19 -7 17 -14 13 -13 14 -17 7 -19 0 -19 0 -17 -7 -13 -14 -14 -13 -7 -17 0 -19 rrcurveto
          -143 vlineto
          -51 -3 -40 -10 -29 -16 -130 -73 -65 -115 0 -159 0 -159 105 -124 210 -91 rrcurveto
          -476 vlineto
          -59 0 -47 17 -37 32 -27 23 -25 25 -23 29 -21 27 -21 13 -22 0 -20 0 -15 -7 -12 -15 -12 -14 -6 -19 0 -24 0 -9 2 -7 3 -7 28 -53 53 -55 79 -58 16 -11 20 -11 25 -12 rrcurveto
          405 173 rmoveto
          -30 -29 -48 -16 -66 -2 rrcurveto
          432 vlineto
          47 -23 rlineto
          109 -51 54 -67 0 -82 0 -65 -22 -54 -44 -43 rrcurveto
          endchar
        </CharString>
        <CharString name="downwardsarrow">
          0 598 hmoveto
          567 481 rlineto
          170 vlineto
          -345 -294 rlineto
          -59 -51 -37 -38 -16 -23 rrcurveto
          -45 hlineto
          4 28 3 29 2 30 2 30 1 29 0 29 rrcurveto
          1025 -150 -1025 vlineto
          0 -29 1 -29 3 -30 3 -30 2 -29 2 -28 rrcurveto
          -44 hlineto
          -8 12 -13 15 -18 18 -18 18 -24 22 -29 25 rrcurveto
          -347 295 rlineto
          -171 vlineto
          endchar
        </CharString>
        <CharString name="e">
          0 820 592 rmoveto
          -428 hlineto
          -47 0 -24 17 0 33 0 32 8 32 16 33 23 50 34 43 48 35 47 35 55 18 63 0 88 0 67 -29 46 -59 47 -59 23 -62 1 -65 0 -36 -22 -18 -45 0 rrcurveto
          -182 -602 rmoveto
          134 0 118 47 101 93 13 12 7 14 0 15 0 14 -6 15 -11 15 -11 15 -16 7 -19 0 -9 0 -8 -3 -9 -7 -81 -64 -92 -32 -103 0 -79 0 -75 26 -71 52 -71 52 -35 70 0 88 rrcurveto
          0 38 22 19 43 0 rrcurveto
          585 -2 rlineto
          19 0 15 7 12 15 12 14 6 17 0 19 -1 119 -17 95 -32 71 -33 71 -47 56 -61 41 -62 41 -74 20 -87 0 -81 0 -72 -21 -64 -42 -64 -41 -54 -59 -44 -77 -43 -76 -22 -98 0 -118 rrcurveto
          0 -217 67 -154 134 -90 76 -51 89 -26 101 0 rrcurveto
          endchar
        </CharString>
        <CharString name="eacute">
          0 820 592 rmoveto
          -428 hlineto
          -47 0 -24 17 0 33 0 32 8 32 16 33 23 50 34 43 48 35 47 35 55 18 63 0 88 0 67 -29 46 -59 47 -59 23 -62 1 -65 0 -36 -22 -18 -45 0 rrcurveto
          -182 -602 rmoveto
          134 0 118 47 101 93 13 12 7 14 0 15 0 14 -6 15 -11 15 -11 15 -16 7 -19 0 -9 0 -8 -3 -9 -7 -81 -64 -92 -32 -103 0 -79 0 -75 26 -71 52 -71 52 -35 70 0 88 rrcurveto
          0 38 22 19 43 0 rrcurveto
          585 -2 rlineto
          19 0 15 7 12 15 12 14 6 17 0 19 -1 119 -17 95 -32 71 -33 71 -47 56 -61 41 -62 41 -74 20 -87 0 -81 0 -72 -21 -64 -42 -64 -41 -54 -59 -44 -77 -43 -76 -22 -98 0 -118 rrcurveto
          0 -217 67 -154 134 -90 76 -51 89 -26 101 0 rrcurveto
          -177 1295 rmoveto
          6 0 4 1 7 3 rrcurveto
          283 109 rlineto
          29 11 14 23 0 29 0 13 -3 11 -7 12 -14 22 -20 10 -25 0 -13 0 -10 -3 -11 -6 rrcurveto
          -261 -153 rlineto
          -16 -9 -6 -12 0 -17 0 -8 2 -5 4 -8 8 -16 12 -7 17 0 rrcurveto
          endchar
        </CharString>
        <CharString name="ecircumflex">
          0 820 592 rmoveto
          -428 hlineto
          -47 0 -24 17 0 33 0 32 8 32 16 33 23 50 34 43 48 35 47 35 55 18 63 0 88 0 67 -29 46 -59 47 -59 23 -62 1 -65 0 -36 -22 -18 -45 0 rrcurveto
          -182 -602 rmoveto
          134 0 118 47 101 93 13 12 7 14 0 15 0 14 -6 15 -11 15 -11 15 -16 7 -19 0 -9 0 -8 -3 -9 -7 -81 -64 -92 -32 -103 0 -79 0 -75 26 -71 52 -71 52 -35 70 0 88 rrcurveto
          0 38 22 19 43 0 rrcurveto
          585 -2 rlineto
          19 0 15 7 12 15 12 14 6 17 0 19 -1 119 -17 95 -32 71 -33 71 -47 56 -61 41 -62 41 -74 20 -87 0 -81 0 -72 -21 -64 -42 -64 -41 -54 -59 -44 -77 -43 -76 -22 -98 0 -118 rrcurveto
          0 -217 67 -154 134 -90 76 -51 89 -26 101 0 rrcurveto
          -285 1305 rmoveto
          9 0 7 2 9 6 rrcurveto
          176 113 rlineto
          14 8 17 6 16 0 15 0 17 -6 14 -8 rrcurveto
          178 -113 rlineto
          8 -5 7 -2 9 0 15 0 10 4 10 12 9 10 3 8 0 12 0 15 -5 11 -12 10 rrcurveto
          -176 144 rlineto
          -29 24 -35 13 -38 0 -37 0 -35 -13 -29 -24 rrcurveto
          -177 -143 rlineto
          -12 -10 -5 -11 0 -15 0 -13 3 -9 9 -10 10 -11 10 -5 15 0 rrcurveto
          endchar
        </CharString>
        <CharString name="edieresis">
          0 820 592 rmoveto
          -428 hlineto
          -47 0 -24 17 0 33 0 32 8 32 16 33 23 50 34 43 48 35 47 35 55 18 63 0 88 0 67 -29 46 -59 47 -59 23 -62 1 -65 0 -36 -22 -18 -45 0 rrcurveto
          -182 -602 rmoveto
          134 0 118 47 101 93 13 12 7 14 0 15 0 14 -6 15 -11 15 -11 15 -16 7 -19 0 -9 0 -8 -3 -9 -7 -81 -64 -92 -32 -103 0 -79 0 -75 26 -71 52 -71 52 -35 70 0 88 rrcurveto
          0 38 22 19 43 0 rrcurveto
          585 -2 rlineto
          19 0 15 7 12 15 12 14 6 17 0 19 -1 119 -17 95 -32 71 -33 71 -47 56 -61 41 -62 41 -74 20 -87 0 -81 0 -72 -21 -64 -42 -64 -41 -54 -59 -44 -77 -43 -76 -22 -98 0 -118 rrcurveto
          0 -217 67 -154 134 -90 76 -51 89 -26 101 0 rrcurveto
          -253 1303 rmoveto
          28 0 24 10 19 18 19 19 10 23 0 28 0 29 -10 23 -19 19 -19 19 -24 9 -28 0 -29 0 -25 -9 -19 -19 -19 -19 -10 -23 0 -29 0 -28 10 -23 19 -19 19 -18 25 -10 29 0 rrcurveto
          431 hmoveto
          29 0 25 10 19 18 19 19 10 23 0 28 0 29 -10 23 -19 19 -19 19 -25 9 -29 0 -28 0 -24 -9 -19 -19 -20 -19 -9 -23 0 -29 0 -28 9 -23 20 -19 19 -18 24 -10 28 0 rrcurveto
          endchar
        </CharString>
        <CharString name="egrave">
          0 820 592 rmoveto
          -428 hlineto
          -47 0 -24 17 0 33 0 32 8 32 16 33 23 50 34 43 48 35 47 35 55 18 63 0 88 0 67 -29 46 -59 47 -59 23 -62 1 -65 0 -36 -22 -18 -45 0 rrcurveto
          -182 -602 rmoveto
          134 0 118 47 101 93 13 12 7 14 0 15 0 14 -6 15 -11 15 -11 15 -16 7 -19 0 -9 0 -8 -3 -9 -7 -81 -64 -92 -32 -103 0 -79 0 -75 26 -71 52 -71 52 -35 70 0 88 rrcurveto
          0 38 22 19 43 0 rrcurveto
          585 -2 rlineto
          19 0 15 7 12 15 12 14 6 17 0 19 -1 119 -17 95 -32 71 -33 71 -47 56 -61 41 -62 41 -74 20 -87 0 -81 0 -72 -21 -64 -42 -64 -41 -54 -59 -44 -77 -43 -76 -22 -98 0 -118 rrcurveto
          0 -217 67 -154 134 -90 76 -51 89 -26 101 0 rrcurveto
          123 1295 rmoveto
          17 0 12 7 8 16 4 8 2 5 0 8 0 17 -7 12 -15 9 rrcurveto
          -261 153 rlineto
          -12 6 -10 3 -12 0 -25 0 -20 -10 -14 -22 -7 -12 -3 -11 0 -13 0 -29 14 -23 29 -11 rrcurveto
          283 -109 rlineto
          6 -3 5 -1 6 0 rrcurveto
          endchar
        </CharString>
        <CharString name="eight">
          0 598 130 rmoveto
          -100 0 -72 21 -45 41 -45 42 -23 60 0 79 0 64 18 55 36 47 56 73 78 36 99 0 45 0 35 -5 23 -9 61 -26 45 -34 29 -41 29 -42 14 -53 0 -65 0 -79 -22 -60 -44 -42 rrcurveto
          -44 -41 -72 -21 -101 0 rrcurveto
          2 693 rmoveto
          -25 0 -22 3 -19 7 -60 21 -45 27 -32 35 -31 35 -16 45 0 56 0 68 23 53 46 39 46 39 60 19 75 0 75 0 60 -19 46 -38 46 -39 23 -53 0 -69 0 -55 -16 -44 -33 -36 rrcurveto
          -33 -35 -48 -28 -63 -23 -14 -5 -20 -3 -23 0 rrcurveto
          -833 vmoveto
          84 0 73 14 63 29 62 28 49 41 34 54 35 53 17 65 0 77 0 80 -18 69 -37 59 -37 59 -51 48 -65 37 -20 12 -10 12 0 11 0 11 10 10 19 11 121 73 61 96 0 120 rrcurveto
          0 104 -35 84 -69 65 -70 65 -95 33 -121 0 -121 0 -96 -33 -69 -65 -69 -65 -35 -84 0 -104 0 -120 60 -96 120 -73 19 -11 9 -11 0 -10 0 -12 -10 -12 -20 -11 -66 -37 -52 -48 -35 -59 rrcurveto
          -36 -59 -18 -69 0 -80 0 -115 36 -88 73 -63 72 -63 104 -32 134 0 rrcurveto
          endchar
        </CharString>
        <CharString name="ellipsis">
          0 200 5 rmoveto
          26 0 22 9 19 19 18 18 10 23 0 26 0 26 -10 23 -18 18 -19 19 -22 9 -26 0 -26 0 -23 -9 -18 -19 -18 -18 -10 -23 0 -26 0 -26 10 -23 18 -18 18 -19 23 -9 26 0 rrcurveto
          400 hmoveto
          26 0 22 9 19 19 18 18 10 23 0 26 0 26 -10 23 -18 18 -19 19 -22 9 -26 0 -26 0 -23 -9 -18 -19 -18 -18 -10 -23 0 -26 0 -26 10 -23 18 -18 18 -19 23 -9 26 0 rrcurveto
          400 hmoveto
          26 0 22 9 19 19 18 18 10 23 0 26 0 26 -10 23 -18 18 -19 19 -22 9 -26 0 -26 0 -23 -9 -18 -19 -18 -18 -10 -23 0 -26 0 -26 10 -23 18 -18 18 -19 23 -9 26 0 rrcurveto
          endchar
        </CharString>
        <CharString name="emdash">
          0 1140 530 rmoveto
          19 0 17 7 13 14 14 13 7 17 0 19 0 19 -7 17 -14 13 -13 14 -17 7 -19 0 rrcurveto
          -1080 hlineto
          -19 0 -17 -7 -13 -14 -14 -13 -7 -17 0 -19 0 -19 7 -17 14 -13 13 -14 17 -7 19 0 rrcurveto
          endchar
        </CharString>
        <CharString name="equal">
          0 940 730 rmoveto
          19 0 17 7 13 14 14 13 7 17 0 19 0 19 -7 17 -14 13 -13 14 -17 7 -19 0 rrcurveto
          -680 hlineto
          -19 0 -17 -7 -13 -14 -14 -13 -7 -17 0 -19 0 -19 7 -17 14 -13 13 -14 17 -7 19 0 rrcurveto
          680 -400 rmoveto
          19 0 17 7 13 14 14 13 7 17 0 19 0 19 -7 17 -14 13 -13 14 -17 7 -19 0 rrcurveto
          -680 hlineto
          -19 0 -17 -7 -13 -14 -14 -13 -7 -17 0 -19 0 -19 7 -17 14 -13 13 -14 17 -7 19 0 rrcurveto
          endchar
        </CharString>
        <CharString name="equal_equal">
          0 940 870 rmoveto
          -1880 hlineto
          -19 0 -17 -7 -13 -14 -14 -13 -7 -17 0 -19 0 -19 7 -17 14 -13 13 -14 17 -7 19 0 rrcurveto
          1880 hlineto
          19 0 17 7 13 14 14 13 7 17 0 19 0 19 -7 17 -14 13 -13 14 -17 7 -19 0 rrcurveto
          -400 vmoveto
          -1880 hlineto
          -19 0 -17 -7 -13 -14 -14 -13 -7 -17 0 -19 0 -19 7 -17 14 -13 13 -14 17 -7 19 0 rrcurveto
          1880 hlineto
          19 0 17 7 13 14 14 13 7 17 0 19 0 19 -7 17 -14 13 -13 14 -17 7 -19 0 rrcurveto
          endchar
        </CharString>
        <CharString name="equal_equal_equal">
          0 940 970 rmoveto
          -3080 hlineto
          -23 0 -17 -6 -12 -12 -12 -12 -6 -10 0 -10 0 -10 6 -10 12 -12 12 -12 17 -6 23 0 rrcurveto
          3080 hlineto
          23 0 17 6 12 12 12 12 6 10 0 10 0 10 -6 10 -12 12 -12 12 -17 6 -23 0 rrcurveto
          -640 vmoveto
          -3080 hlineto
          -23 0 -17 -6 -12 -12 -12 -12 -6 -10 0 -10 0 -10 6 -10 12 -12 12 -12 17 -6 23 0 rrcurveto
          3080 hlineto
          23 0 17 6 12 12 12 12 6 10 0 10 0 10 -6 10 -12 12 -12 12 -17 6 -23 0 rrcurveto
          320 vmoveto
          -3080 hlineto
          -23 0 -17 -6 -12 -12 -12 -12 -6 -10 0 -10 0 -10 6 -10 12 -12 12 -12 17 -6 23 0 rrcurveto
          3080 hlineto
          23 0 17 6 12 12 12 12 6 10 0 10 0 10 -6 10 -12 12 -12 12 -17 6 -23 0 rrcurveto
          endchar
        </CharString>
        <CharString name="eth">
          0 601 130 rmoveto
          -61 0 -51 15 -42 31 -42 31 -32 40 -21 50 -21 49 -10 53 0 57 0 86 22 67 43 48 43 49 63 24 83 0 28 0 30 -2 31 -5 74 -12 58 -35 43 -59 24 -38 12 -52 0 -67 rrcurveto
          0 -49 -10 -50 -20 -50 -19 -51 -31 -42 -40 -35 -41 -35 -51 -18 -62 0 rrcurveto
          36 1073 rmoveto
          76 -51 57 -63 37 -74 34 -72 17 -58 0 -45 0 -31 -13 -16 -25 0 -9 0 -8 2 -7 5 -27 19 -35 17 -42 13 -41 14 -44 7 -46 0 -72 0 -64 -14 -57 -27 -57 -27 -46 -42 -33 -57 rrcurveto
          -34 -58 -17 -74 0 -92 0 -92 16 -83 32 -74 31 -74 47 -58 62 -43 62 -43 78 -22 92 0 89 0 76 22 61 43 62 44 48 69 33 96 33 95 17 125 0 154 0 154 -24 135 -48 117 rrcurveto
          -44 104 -68 88 -95 71 rrcurveto
          61 62 rlineto
          15 16 8 18 0 18 0 17 -7 16 -14 15 -15 14 -17 7 -18 0 -18 0 -16 -7 -16 -15 rrcurveto
          -95 -94 rlineto
          -77 24 -81 12 -86 0 rrcurveto
          -39 hlineto
          -18 0 -16 -7 -13 -14 -13 -14 -6 -16 0 -17 0 -19 6 -17 13 -13 13 -13 15 -7 20 -1 33 0 56 -4 78 -9 rrcurveto
          -97 -98 rlineto
          -15 -16 -7 -16 0 -18 0 -18 7 -17 14 -16 15 -13 16 -7 17 0 18 0 18 8 16 15 rrcurveto
          endchar
        </CharString>
        <CharString name="exclam">
          0 600 489 rmoveto
          17 0 15 6 12 11 11 11 6 15 1 17 rrcurveto
          25 806 rlineto
          0 23 -8 20 -17 17 -17 17 -20 9 -25 0 -25 0 -20 -9 -17 -17 -17 -17 -8 -21 0 -24 rrcurveto
          25 -804 rlineto
          1 -17 6 -15 11 -11 12 -11 15 -6 17 0 rrcurveto
          4 -499 rmoveto
          37 0 33 14 27 29 27 28 14 34 0 39 0 41 -14 34 -27 28 -27 29 -33 14 -37 0 -41 0 -34 -14 -27 -29 -28 -28 -14 -34 0 -41 0 -39 14 -34 28 -28 27 -29 34 -14 41 0 rrcurveto
          endchar
        </CharString>
        <CharString name="exclam_exclam">
          0 -400 489 rmoveto
          17 0 15 6 12 11 11 11 6 15 1 17 rrcurveto
          25 806 rlineto
          0 23 -8 20 -17 17 -17 17 -20 9 -25 0 -25 0 -20 -9 -17 -17 -17 -17 -8 -21 0 -24 rrcurveto
          25 -804 rlineto
          1 -17 6 -15 11 -11 12 -11 15 -6 17 0 rrcurveto
          804 -499 rmoveto
          37 0 33 14 27 29 27 28 14 34 0 39 0 41 -14 34 -27 28 -27 29 -33 14 -37 0 -41 0 -34 -14 -27 -29 -28 -28 -14 -34 0 -41 0 -39 14 -34 28 -28 27 -29 34 -14 41 0 rrcurveto
          -4 499 rmoveto
          17 0 15 6 12 11 11 11 6 15 1 17 rrcurveto
          25 806 rlineto
          0 23 -8 20 -17 17 -17 17 -20 9 -25 0 -25 0 -20 -9 -17 -17 -17 -17 -8 -21 0 -24 rrcurveto
          25 -804 rlineto
          1 -17 6 -15 11 -11 12 -11 15 -6 17 0 rrcurveto
          -796 -499 rmoveto
          37 0 33 14 27 29 27 28 14 34 0 39 0 41 -14 34 -27 28 -27 29 -33 14 -37 0 -41 0 -34 -14 -27 -29 -28 -28 -14 -34 0 -41 0 -39 14 -34 28 -28 27 -29 34 -14 41 0 rrcurveto
          endchar
        </CharString>
        <CharString name="exclamdown">
          0 600 -470 rmoveto
          23 0 20 9 18 17 17 18 9 20 0 23 rrcurveto
          -25 804 rlineto
          -1 17 -7 15 -12 11 -12 12 -14 6 -16 0 -16 0 -14 -6 -12 -12 -12 -11 -7 -15 -1 -17 rrcurveto
          -25 -803 rlineto
          0 -23 9 -21 17 -17 17 -18 20 -9 24 0 rrcurveto
          4 1161 rmoveto
          38 0 32 14 27 29 27 28 14 34 0 41 0 39 -14 34 -27 28 -27 29 -32 14 -38 0 -41 0 -34 -14 -28 -29 -27 -28 -14 -34 0 -39 0 -41 14 -34 27 -28 28 -29 34 -14 41 0 rrcurveto
          endchar
        </CharString>
        <CharString name="f">
          0 513 -10 rmoveto
          20 0 17 7 13 14 14 13 7 17 0 19 rrcurveto
          748 vlineto
          0 17 6 14 12 13 12 12 14 6 18 0 rrcurveto
          356 hlineto
          19 0 17 7 13 14 14 13 7 17 0 19 0 19 -7 17 -14 13 -13 14 -17 7 -19 0 rrcurveto
          -356 hlineto
          -17 0 -15 6 -12 11 -12 12 -6 13 0 14 rrcurveto
          102 vlineto
          0 53 18 47 35 41 35 41 47 20 57 0 rrcurveto
          208 hlineto
          19 0 17 7 13 14 14 13 7 17 0 19 0 19 -7 17 -14 13 -13 14 -17 7 -19 0 rrcurveto
          -246 hlineto
          -57 0 -50 -14 -45 -28 -44 -28 -35 -37 -26 -46 -25 -46 -13 -50 0 -55 rrcurveto
          -140 vlineto
          0 -14 -6 -13 -12 -12 -12 -11 -15 -6 -17 0 rrcurveto
          -145 hlineto
          -19 0 -17 -7 -13 -14 -14 -13 -7 -17 0 -19 0 -19 7 -17 14 -13 13 -14 17 -7 19 0 rrcurveto
          145 hlineto
          18 0 14 -6 12 -12 12 -13 6 -14 0 -17 rrcurveto
          -748 vlineto
          0 -19 7 -17 14 -13 13 -14 17 -7 19 0 rrcurveto
          endchar
        </CharString>
        <CharString name="five">
          0 542 -10 rmoveto
          133 0 105 39 78 79 73 79 40 98 7 115 2 26 1 26 0 27 0 233 -167 116 -334 0 rrcurveto
          -60 hlineto
          -17 0 -16 6 -15 12 -15 12 -7 14 0 18 rrcurveto
          314 vlineto
          0 22 6 16 13 10 13 10 17 5 21 0 rrcurveto
          464 hlineto
          18 0 16 7 13 13 13 13 6 15 0 18 0 19 -6 15 -13 13 -13 13 -16 7 -18 0 rrcurveto
          -600 hlineto
          -23 0 -18 -7 -13 -13 -13 -13 -7 -18 0 -23 rrcurveto
          -558 vlineto
          0 -20 8 -17 15 -15 15 -15 17 -7 19 0 rrcurveto
          163 hlineto
          128 0 96 -21 64 -41 64 -41 32 -56 0 -70 0 -24 -1 -22 -3 -21 -27 -176 -97 -89 -168 -3 -121 0 -80 6 -37 12 -15 5 -18 2 -19 0 -8 0 -9 -2 -10 -5 -10 -5 -10 -8 -8 -12 rrcurveto
          -9 -11 -4 -16 0 -19 0 -17 6 -15 12 -12 30 -29 116 -14 201 0 rrcurveto
          endchar
        </CharString>
        <CharString name="four">
          0 697 465 rmoveto
          -345 hlineto
          -28 0 -13 9 0 17 0 5 1 5 2 3 rrcurveto
          377 576 rlineto
          5 8 7 4 9 0 16 0 8 -14 0 -27 rrcurveto
          -548 vlineto
          0 -25 -13 -13 -26 0 rrcurveto
          109 -475 rmoveto
          18 0 17 7 13 14 14 13 7 17 0 19 rrcurveto
          227 vlineto
          0 25 13 13 26 0 rrcurveto
          77 hlineto
          18 0 17 7 14 14 14 14 7 17 0 18 0 18 -7 17 -14 14 -14 14 -17 7 -18 0 rrcurveto
          -78 hlineto
          -25 0 -13 13 0 26 rrcurveto
          814 vlineto
          0 25 -8 21 -17 18 -16 19 -23 9 -28 0 -32 0 -26 -14 -20 -29 rrcurveto
          -578 -867 rlineto
          -12 -18 -6 -20 0 -24 0 -31 9 -26 18 -22 17 -23 29 -11 39 0 rrcurveto
          477 hlineto
          25 0 13 -13 0 -26 rrcurveto
          -226 vlineto
          0 -19 7 -17 14 -13 13 -14 17 -7 19 0 rrcurveto
          endchar
        </CharString>
        <CharString name="fullblock">
          0 -600 vmoveto
          1200 2640 -1200 hlineto
          endchar
        </CharString>
        <CharString name="g">
          0 568 148 rmoveto
          -89 0 -68 32 -47 63 -47 64 -24 91 0 119 5 254 93 130 181 4 68 0 61 -25 55 -50 55 -49 28 -67 0 -84 rrcurveto
          -211 vlineto
          0 -67 -27 -63 -55 -60 -52 -54 -63 -27 -74 0 rrcurveto
          -4 -608 rmoveto
          125 0 100 36 76 71 76 72 38 98 0 126 rrcurveto
          1044 vlineto
          0 23 -6 18 -12 13 -13 13 -15 6 -20 0 -39 0 -23 -19 -6 -37 -6 -35 -14 -17 -23 0 -12 0 -12 6 -11 11 -58 60 -76 30 -96 0 -121 0 -94 -46 -67 -91 -67 -91 -35 -141 -1 -190 rrcurveto
          0 -154 35 -123 70 -93 69 -93 94 -47 119 0 81 0 67 21 52 43 17 15 17 7 16 0 33 0 17 -19 0 -39 rrcurveto
          -2 -133 rlineto
          0 -54 -23 -48 -46 -44 -46 -43 -68 -23 -90 -1 -66 0 -55 10 -43 20 -44 19 -43 31 -43 41 -12 11 -14 6 -16 0 -17 0 -18 -11 -18 -22 -9 -11 -4 -12 0 -14 0 -16 6 -14 11 -14 rrcurveto
          95 -104 128 -52 162 0 rrcurveto
          endchar
        </CharString>
        <CharString name="germandbls">
          0 724 -5 rmoveto
          68 0 60 13 56 27 57 27 43 38 33 53 34 51 16 61 0 78 0 67 -12 53 -25 43 -26 44 -32 36 -38 30 -40 31 -39 27 -39 25 -41 24 -35 27 -28 25 -30 28 -18 38 0 39 rrcurveto
          0 36 15 35 25 26 23 23 27 25 30 25 28 23 24 26 23 31 21 29 9 35 0 47 0 82 -30 64 -64 54 -64 53 -81 26 -107 0 -129 0 -96 -35 -72 -73 -70 -73 -35 -103 0 -143 rrcurveto
          -995 vlineto
          0 -46 32 -32 46 0 47 0 32 32 0 47 rrcurveto
          1007 vlineto
          0 104 21 79 41 46 41 47 63 25 77 0 47 0 42 -10 29 -18 28 -19 23 -25 12 -28 13 -27 6 -29 0 -26 0 -42 -13 -38 -26 -29 -24 -27 -27 -25 -31 -25 -28 -23 -25 -25 -22 -30 rrcurveto
          -20 -28 -9 -34 0 -46 0 -50 11 -38 24 -32 25 -35 30 -27 37 -25 rrcurveto
          117 -78 rlineto
          40 -26 35 -32 28 -36 28 -37 15 -48 0 -54 0 -71 -21 -60 -40 -36 -39 -37 -59 -19 -67 0 -30 0 -31 5 -31 9 -9 2 -8 3 -6 2 -8 3 -5 1 -7 0 -23 0 -17 -10 -11 -21 rrcurveto
          -6 -9 -2 -9 0 -10 0 -26 13 -20 26 -9 rrcurveto
          35 -12 rlineto
          41 -10 46 -6 53 0 rrcurveto
          endchar
        </CharString>
        <CharString name="grave">
          0 756 1040 rmoveto
          19 0 16 7 13 13 14 16 7 17 0 18 0 18 -7 17 -15 15 rrcurveto
          -307 307 rlineto
          -15 15 -17 7 -18 0 -19 0 -17 -7 -14 -14 -14 -15 -7 -16 0 -17 0 -19 8 -17 15 -16 rrcurveto
          306 -306 rlineto
          16 -15 17 -8 19 0 rrcurveto
          endchar
        </CharString>
        <CharString name="greater">
          0 255 167 rmoveto
          10 0 10 2 10 5 rrcurveto
          691 363 rlineto
          27 15 13 21 0 27 0 13 -3 12 -7 12 -7 11 -9 9 -13 6 rrcurveto
          -690 355 rlineto
          -11 5 -11 3 -10 0 -18 0 -16 -7 -14 -14 -14 -13 -7 -17 0 -18 0 -27 14 -21 28 -18 rrcurveto
          472 -250 rlineto
          18 -10 9 -14 0 -17 0 -18 -9 -14 -17 -11 rrcurveto
          -475 -254 rlineto
          -28 -18 -14 -21 0 -27 0 -18 7 -17 15 -14 14 -14 16 -7 19 0 rrcurveto
          endchar
        </CharString>
        <CharString name="greater_equal">
          0 -459 407 rmoveto
          9 0 10 2 12 5 rrcurveto
          1020 423 rlineto
          25 11 12 21 1 31 0 31 -13 20 -25 12 rrcurveto
          -1019 414 rlineto
          -15 6 -11 3 -8 0 -19 0 -16 -5 -14 -11 -13 -11 -7 -18 0 -24 0 -32 13 -22 26 -10 rrcurveto
          802 -310 rlineto
          20 -9 10 -14 0 -20 0 -23 -10 -14 -19 -8 rrcurveto
          -803 -314 rlineto
          -26 -10 -13 -22 0 -32 0 -24 8 -18 15 -11 15 -11 16 -6 17 0 rrcurveto
          3 -487 rmoveto
          7 0 8 2 10 4 rrcurveto
          1020 464 rlineto
          27 13 14 21 0 29 0 12 -2 10 -4 8 -13 27 -22 14 -31 0 -9 0 -9 -2 -9 -4 rrcurveto
          -1020 -464 rlineto
          -27 -12 -14 -21 0 -30 0 -21 5 -17 11 -13 11 -14 19 -6 28 0 rrcurveto
          endchar
        </CharString>
        <CharString name="greater_greater">
          0 105 167 rmoveto
          10 0 10 2 10 5 rrcurveto
          692 362 rlineto
          26 16 13 21 0 27 0 29 -13 21 -26 14 rrcurveto
          -690 355 rlineto
          -11 5 -10 2 -11 0 -18 0 -16 -7 -14 -14 -14 -13 -7 -16 0 -19 0 -27 14 -22 27 -17 rrcurveto
          472 -250 rlineto
          19 -10 9 -14 0 -17 0 -18 -8 -14 -17 -11 rrcurveto
          -477 -254 rlineto
          -27 -17 -14 -22 0 -27 0 -19 7 -16 15 -14 14 -14 16 -7 19 0 rrcurveto
          -900 hmoveto
          10 0 10 2 10 5 rrcurveto
          692 362 rlineto
          26 16 13 21 0 27 0 29 -13 21 -26 14 rrcurveto
          -690 355 rlineto
          -11 5 -10 2 -11 0 -18 0 -16 -7 -14 -14 -14 -13 -7 -16 0 -19 0 -27 14 -22 27 -17 rrcurveto
          472 -250 rlineto
          19 -10 9 -14 0 -17 0 -18 -8 -14 -17 -11 rrcurveto
          -477 -254 rlineto
          -27 -17 -14 -22 0 -27 0 -19 7 -16 15 -14 14 -14 16 -7 19 0 rrcurveto
          endchar
        </CharString>
        <CharString name="greater_greater_greater">
          0 -945 167 rmoveto
          10 0 10 2 10 5 rrcurveto
          692 362 rlineto
          26 16 13 21 0 27 0 29 -13 21 -26 14 rrcurveto
          -690 355 rlineto
          -11 5 -10 2 -11 0 -18 0 -16 -7 -14 -14 -14 -13 -7 -16 0 -19 0 -27 14 -22 27 -17 rrcurveto
          472 -250 rlineto
          19 -10 9 -14 0 -17 0 -18 -8 -14 -17 -11 rrcurveto
          -477 -254 rlineto
          -27 -17 -14 -22 0 -27 0 -19 7 -16 15 -14 14 -14 16 -7 19 0 rrcurveto
          -900 hmoveto
          10 0 10 2 10 5 rrcurveto
          692 362 rlineto
          26 16 13 21 0 27 0 29 -13 21 -26 14 rrcurveto
          -690 355 rlineto
          -11 5 -10 2 -11 0 -18 0 -16 -7 -14 -14 -14 -13 -7 -16 0 -19 0 -27 14 -22 27 -17 rrcurveto
          472 -250 rlineto
          19 -10 9 -14 0 -17 0 -18 -8 -14 -17 -11 rrcurveto
          -477 -254 rlineto
          -27 -17 -14 -22 0 -27 0 -19 7 -16 15 -14 14 -14 16 -7 19 0 rrcurveto
          1800 hmoveto
          10 0 10 2 10 5 rrcurveto
          692 362 rlineto
          26 16 13 21 0 27 0 29 -13 21 -26 14 rrcurveto
          -690 355 rlineto
          -11 5 -10 2 -11 0 -18 0 -16 -7 -14 -14 -14 -13 -7 -16 0 -19 0 -27 14 -22 27 -17 rrcurveto
          472 -250 rlineto
          19 -10 9 -14 0 -17 0 -18 -8 -14 -17 -11 rrcurveto
          -477 -254 rlineto
          -27 -17 -14 -22 0 -27 0 -19 7 -16 15 -14 14 -14 16 -7 19 0 rrcurveto
          endchar
        </CharString>
        <CharString name="guillemotleft">
          0 517 144 rmoveto
          30 0 25 24 0 30 0 11 -3 8 -6 9 rrcurveto
          -205 323 rlineto
          -9 14 -6 20 0 17 0 16 6 20 9 14 rrcurveto
          205 324 rlineto
          6 10 3 8 0 11 0 32 -24 22 -30 0 -17 0 -13 -6 -12 -14 rrcurveto
          -273 -330 rlineto
          -25 -31 -13 -36 0 -41 0 -41 13 -37 26 -31 rrcurveto
          272 -327 rlineto
          12 -14 13 -5 16 0 rrcurveto
          437 hmoveto
          11 0 8 2 0 0 rrcurveto
          1 vlineto
          27 17 8 15 0 19 0 11 -3 8 -6 9 rrcurveto
          -205 323 rlineto
          -9 14 -6 20 0 17 0 16 6 20 9 14 rrcurveto
          205 324 rlineto
          6 10 3 8 0 11 0 28 -23 26 -32 0 -16 0 -13 -6 -12 -14 rrcurveto
          -275 -330 rlineto
          -25 -31 -14 -37 0 -40 0 -40 14 -38 26 -31 rrcurveto
          274 -327 rlineto
          12 -14 13 -5 17 0 rrcurveto
          endchar
        </CharString>
        <CharString name="guillemotright">
          0 685 144 rmoveto
          17 0 13 5 11 14 rrcurveto
          272 327 rlineto
          27 31 13 37 0 41 0 41 -13 36 -26 31 rrcurveto
          -273 330 rlineto
          -11 14 -13 6 -17 0 -30 0 -24 -22 0 -32 0 -11 2 -8 7 -10 rrcurveto
          204 -324 rlineto
          10 -14 6 -20 0 -16 0 -17 -6 -20 -10 -14 rrcurveto
          -205 -323 rlineto
          -6 -9 -2 -8 0 -11 0 -30 25 -24 29 0 rrcurveto
          -436 hmoveto
          17 0 13 5 11 14 rrcurveto
          274 327 rlineto
          27 31 14 38 0 40 0 40 -14 37 -26 31 rrcurveto
          -275 330 rlineto
          -11 14 -13 6 -17 0 -31 0 -23 -26 0 -28 0 -11 2 -8 7 -10 rrcurveto
          204 -324 rlineto
          10 -14 6 -20 0 -16 0 -17 -6 -20 -10 -14 rrcurveto
          -205 -323 rlineto
          -6 -9 -2 -8 0 -11 0 -19 7 -15 28 -17 rrcurveto
          -1 vlineto
          0 0 8 -2 11 0 rrcurveto
          endchar
        </CharString>
        <CharString name="h">
          0 939 -10 rmoveto
          23 0 17 7 11 13 11 13 6 18 0 23 rrcurveto
          581 vlineto
          0 151 -30 107 -61 65 -55 61 -82 31 -109 0 -91 -1 -87 -45 -84 -87 -12 -12 -11 -6 -11 0 -23 0 -12 15 0 29 rrcurveto
          481 vlineto
          0 22 -7 18 -15 14 -14 15 -17 7 -19 0 -19 0 -17 -7 -14 -15 -15 -14 -7 -18 0 -22 rrcurveto
          -1370 vlineto
          0 -23 7 -18 13 -13 13 -13 17 -7 22 0 23 0 17 7 11 13 11 13 6 18 0 23 rrcurveto
          548 vlineto
          0 96 40 76 79 55 63 40 63 22 65 1 145 0 74 -90 3 -179 rrcurveto
          -569 vlineto
          0 -22 7 -18 13 -14 14 -13 17 -7 21 0 rrcurveto
          endchar
        </CharString>
        <CharString name="hyphen">
          0 840 530 rmoveto
          19 0 17 7 13 14 14 13 7 17 0 19 0 19 -7 17 -14 13 -13 14 -17 7 -19 0 rrcurveto
          -480 hlineto
          -19 0 -17 -7 -13 -14 -14 -13 -7 -17 0 -19 0 -19 7 -17 14 -13 13 -14 17 -7 19 0 rrcurveto
          endchar
        </CharString>
        <CharString name="hyphenminus">
          0 940 530 rmoveto
          20 0 17 7 13 13 13 13 7 16 0 21 0 20 -7 17 -13 13 -13 13 -17 7 -20 0 rrcurveto
          -680 hlineto
          -21 0 -16 -7 -13 -13 -13 -13 -7 -17 0 -20 0 -21 7 -16 13 -13 13 -13 16 -7 21 0 rrcurveto
          endchar
        </CharString>
        <CharString name="i">
          0 1015 -3 rmoveto
          18 0 16 7 15 13 15 13 7 17 0 21 0 24 -7 18 -15 13 -15 13 -16 6 -18 0 rrcurveto
          -241 hlineto
          -41 0 -21 21 0 43 rrcurveto
          636 vlineto
          0 47 -16 39 -33 33 -32 33 -39 16 -45 0 rrcurveto
          -283 hlineto
          -18 0 -16 -7 -13 -13 -13 -13 -7 -18 0 -22 0 -22 7 -17 14 -13 13 -13 16 -7 17 0 rrcurveto
          199 hlineto
          29 0 26 -10 22 -21 21 -21 11 -27 0 -32 rrcurveto
          -548 vlineto
          0 -43 -21 -21 -43 0 rrcurveto
          -242 hlineto
          -16 0 -15 -6 -14 -13 -15 -13 -7 -18 0 -24 0 -21 7 -17 15 -13 14 -13 15 -7 16 0 rrcurveto
          323 1278 rmoveto
          33 0 29 12 24 25 25 25 12 30 0 35 0 36 -12 30 -25 25 -24 25 -29 12 -33 0 -35 0 -29 -12 -24 -25 -24 -25 -12 -30 0 -36 0 -35 12 -30 24 -25 24 -25 29 -12 35 0 rrcurveto
          endchar
        </CharString>
        <CharString name="i_alt">
          0 815 -10 rmoveto
          178 0 89 38 0 75 0 16 -4 13 -7 10 -7 10 -8 7 -10 4 -10 4 -9 2 -8 0 -6 0 -7 -3 -9 -5 -39 -21 -55 -10 -69 0 -125 0 -62 95 0 191 rrcurveto
          10 416 rlineto
          0 52 -17 42 -33 34 -33 33 -45 17 -56 0 rrcurveto
          -242 hlineto
          -19 0 -16 -6 -14 -13 -14 -13 -7 -18 0 -24 0 -21 7 -16 14 -11 13 -12 17 -6 19 0 rrcurveto
          158 hlineto
          42 0 31 -11 22 -23 22 -23 11 -29 0 -37 rrcurveto
          -9 -376 rlineto
          0 -254 102 -127 205 0 rrcurveto
          -251 1285 rmoveto
          33 0 29 12 24 25 25 25 12 30 0 35 0 36 -12 30 -25 25 -24 25 -29 12 -33 0 -35 0 -29 -12 -24 -25 -24 -25 -12 -30 0 -36 0 -35 12 -30 24 -25 24 -25 29 -12 35 0 rrcurveto
          endchar
        </CharString>
        <CharString name="iacute">
          0 1015 17 rmoveto
          18 0 16 7 15 13 15 13 7 17 0 21 0 24 -7 18 -15 13 -15 13 -16 6 -18 0 rrcurveto
          -241 hlineto
          -41 0 -21 21 0 43 rrcurveto
          616 vlineto
          0 47 -16 39 -33 33 -32 33 -39 16 -45 0 rrcurveto
          -283 hlineto
          -18 0 -16 -7 -13 -13 -13 -13 -7 -18 0 -22 0 -22 7 -17 14 -13 13 -13 16 -7 17 0 rrcurveto
          199 hlineto
          29 0 26 -10 22 -21 21 -21 11 -27 0 -32 rrcurveto
          -528 vlineto
          0 -43 -21 -21 -43 0 rrcurveto
          -242 hlineto
          -16 0 -15 -6 -14 -13 -15 -13 -7 -18 0 -24 0 -21 7 -17 15 -13 14 -13 15 -7 16 0 rrcurveto
          195 1268 rmoveto
          6 0 4 1 7 3 rrcurveto
          283 109 rlineto
          29 11 14 23 0 29 0 13 -3 11 -7 12 -14 22 -20 10 -25 0 -13 0 -10 -3 -11 -6 rrcurveto
          -261 -153 rlineto
          -16 -9 -6 -12 0 -17 0 -8 2 -5 4 -8 8 -16 12 -7 17 0 rrcurveto
          endchar
        </CharString>
        <CharString name="iacute_alt">
          0 461 1285 rmoveto
          6 0 4 1 7 3 rrcurveto
          283 109 rlineto
          29 11 14 23 0 29 0 13 -3 11 -7 12 -14 22 -20 10 -25 0 -13 0 -10 -3 -11 -6 rrcurveto
          -261 -153 rlineto
          -16 -9 -6 -12 0 -17 0 -8 2 -5 4 -8 8 -16 12 -7 17 0 rrcurveto
          354 -1295 rmoveto
          178 0 89 38 0 75 0 16 -4 13 -7 10 -7 10 -8 7 -10 4 -10 4 -9 2 -8 0 -6 0 -7 -3 -9 -5 -39 -21 -55 -10 -69 0 -125 0 -62 95 0 191 rrcurveto
          10 416 rlineto
          0 52 -17 42 -33 34 -33 33 -45 17 -56 0 rrcurveto
          -242 hlineto
          -19 0 -16 -6 -14 -13 -14 -13 -7 -18 0 -24 0 -21 7 -16 14 -11 13 -12 17 -6 19 0 rrcurveto
          158 hlineto
          42 0 31 -11 22 -23 22 -23 11 -29 0 -37 rrcurveto
          -9 -376 rlineto
          0 -254 102 -127 205 0 rrcurveto
          endchar
        </CharString>
        <CharString name="icircumflex">
          0 1015 17 rmoveto
          18 0 16 7 15 13 15 13 7 17 0 21 0 24 -7 18 -15 13 -15 13 -16 6 -18 0 rrcurveto
          -241 hlineto
          -41 0 -21 21 0 43 rrcurveto
          616 vlineto
          0 47 -16 39 -33 33 -32 33 -39 16 -45 0 rrcurveto
          -283 hlineto
          -18 0 -16 -7 -13 -13 -13 -13 -7 -18 0 -22 0 -22 7 -17 14 -13 13 -13 16 -7 17 0 rrcurveto
          199 hlineto
          29 0 26 -10 22 -21 21 -21 11 -27 0 -32 rrcurveto
          -528 vlineto
          0 -43 -21 -21 -43 0 rrcurveto
          -242 hlineto
          -16 0 -15 -6 -14 -13 -15 -13 -7 -18 0 -24 0 -21 7 -17 15 -13 14 -13 15 -7 16 0 rrcurveto
          87 1278 rmoveto
          9 0 7 2 9 6 rrcurveto
          176 113 rlineto
          14 8 17 6 16 0 15 0 17 -6 14 -8 rrcurveto
          178 -113 rlineto
          8 -5 7 -2 9 0 15 0 10 4 10 12 9 10 3 8 0 12 0 15 -5 11 -12 10 rrcurveto
          -176 144 rlineto
          -29 24 -35 13 -38 0 -37 0 -35 -13 -29 -24 rrcurveto
          -177 -143 rlineto
          -12 -10 -5 -11 0 -15 0 -13 3 -9 9 -10 10 -11 10 -5 15 0 rrcurveto
          endchar
        </CharString>
        <CharString name="icircumflex_alt">
          0 353 1295 rmoveto
          9 0 7 2 9 6 rrcurveto
          176 113 rlineto
          14 8 17 6 16 0 15 0 17 -6 14 -8 rrcurveto
          178 -113 rlineto
          8 -5 7 -2 9 0 15 0 10 4 10 12 9 10 3 8 0 12 0 15 -5 11 -12 10 rrcurveto
          -176 144 rlineto
          -29 24 -35 13 -38 0 -37 0 -35 -13 -29 -24 rrcurveto
          -177 -143 rlineto
          -12 -10 -5 -11 0 -15 0 -13 3 -9 9 -10 10 -11 10 -5 15 0 rrcurveto
          462 -1305 rmoveto
          178 0 89 38 0 75 0 16 -4 13 -7 10 -7 10 -8 7 -10 4 -10 4 -9 2 -8 0 -6 0 -7 -3 -9 -5 -39 -21 -55 -10 -69 0 -125 0 -62 95 0 191 rrcurveto
          10 416 rlineto
          0 52 -17 42 -33 34 -33 33 -45 17 -56 0 rrcurveto
          -242 hlineto
          -19 0 -16 -6 -14 -13 -14 -13 -7 -18 0 -24 0 -21 7 -16 14 -11 13 -12 17 -6 19 0 rrcurveto
          158 hlineto
          42 0 31 -11 22 -23 22 -23 11 -29 0 -37 rrcurveto
          -9 -376 rlineto
          0 -254 102 -127 205 0 rrcurveto
          endchar
        </CharString>
        <CharString name="idieresis">
          0 1015 17 rmoveto
          18 0 16 7 15 13 15 13 7 17 0 21 0 24 -7 18 -15 13 -15 13 -16 6 -18 0 rrcurveto
          -241 hlineto
          -41 0 -21 21 0 43 rrcurveto
          616 vlineto
          0 47 -16 39 -33 33 -32 33 -39 16 -45 0 rrcurveto
          -283 hlineto
          -18 0 -16 -7 -13 -13 -13 -13 -7 -18 0 -22 0 -22 7 -17 14 -13 13 -13 16 -7 17 0 rrcurveto
          199 hlineto
          29 0 26 -10 22 -21 21 -21 11 -27 0 -32 rrcurveto
          -528 vlineto
          0 -43 -21 -21 -43 0 rrcurveto
          -242 hlineto
          -16 0 -15 -6 -14 -13 -15 -13 -7 -18 0 -24 0 -21 7 -17 15 -13 14 -13 15 -7 16 0 rrcurveto
          119 1276 rmoveto
          28 0 24 10 19 18 19 19 10 23 0 28 0 29 -10 23 -19 19 -19 19 -24 9 -28 0 -29 0 -25 -9 -19 -19 -19 -19 -10 -23 0 -29 0 -28 10 -23 19 -19 19 -18 25 -10 29 0 rrcurveto
          431 hmoveto
          29 0 25 10 19 18 19 19 10 23 0 28 0 29 -10 23 -19 19 -19 19 -25 9 -29 0 -28 0 -24 -9 -19 -19 -20 -19 -9 -23 0 -29 0 -28 9 -23 20 -19 19 -18 24 -10 28 0 rrcurveto
          endchar
        </CharString>
        <CharString name="idieresis_alt">
          0 385 1293 rmoveto
          28 0 24 10 19 18 19 19 10 23 0 28 0 29 -10 23 -19 19 -19 19 -24 9 -28 0 -29 0 -25 -9 -19 -19 -19 -19 -10 -23 0 -29 0 -28 10 -23 19 -19 19 -18 25 -10 29 0 rrcurveto
          431 hmoveto
          29 0 25 10 19 18 19 19 10 23 0 28 0 29 -10 23 -19 19 -19 19 -25 9 -29 0 -28 0 -24 -9 -19 -19 -20 -19 -9 -23 0 -29 0 -28 9 -23 20 -19 19 -18 24 -10 28 0 rrcurveto
          -1 -1303 rmoveto
          178 0 89 38 0 75 0 16 -4 13 -7 10 -7 10 -8 7 -10 4 -10 4 -9 2 -8 0 -6 0 -7 -3 -9 -5 -39 -21 -55 -10 -69 0 -125 0 -62 95 0 191 rrcurveto
          10 416 rlineto
          0 52 -17 42 -33 34 -33 33 -45 17 -56 0 rrcurveto
          -242 hlineto
          -19 0 -16 -6 -14 -13 -14 -13 -7 -18 0 -24 0 -21 7 -16 14 -11 13 -12 17 -6 19 0 rrcurveto
          158 hlineto
          42 0 31 -11 22 -23 22 -23 11 -29 0 -37 rrcurveto
          -9 -376 rlineto
          0 -254 102 -127 205 0 rrcurveto
          endchar
        </CharString>
        <CharString name="igrave">
          0 1015 17 rmoveto
          18 0 16 7 15 13 15 13 7 17 0 21 0 24 -7 18 -15 13 -15 13 -16 6 -18 0 rrcurveto
          -241 hlineto
          -41 0 -21 21 0 43 rrcurveto
          616 vlineto
          0 47 -16 39 -33 33 -32 33 -39 16 -45 0 rrcurveto
          -283 hlineto
          -18 0 -16 -7 -13 -13 -13 -13 -7 -18 0 -22 0 -22 7 -17 14 -13 13 -13 16 -7 17 0 rrcurveto
          199 hlineto
          29 0 26 -10 22 -21 21 -21 11 -27 0 -32 rrcurveto
          -528 vlineto
          0 -43 -21 -21 -43 0 rrcurveto
          -242 hlineto
          -16 0 -15 -6 -14 -13 -15 -13 -7 -18 0 -24 0 -21 7 -17 15 -13 14 -13 15 -7 16 0 rrcurveto
          495 1268 rmoveto
          17 0 12 7 8 16 4 8 2 5 0 8 0 17 -7 12 -15 9 rrcurveto
          -261 153 rlineto
          -12 6 -10 3 -12 0 -25 0 -20 -10 -14 -22 -7 -12 -3 -11 0 -13 0 -29 14 -23 29 -11 rrcurveto
          283 -109 rlineto
          6 -3 5 -1 6 0 rrcurveto
          endchar
        </CharString>
        <CharString name="igrave_alt">
          0 761 1285 rmoveto
          17 0 12 7 8 16 4 8 2 5 0 8 0 17 -7 12 -15 9 rrcurveto
          -261 153 rlineto
          -12 6 -10 3 -12 0 -25 0 -20 -10 -14 -22 -7 -12 -3 -11 0 -13 0 -29 14 -23 29 -11 rrcurveto
          283 -109 rlineto
          6 -3 5 -1 6 0 rrcurveto
          54 -1295 rmoveto
          178 0 89 38 0 75 0 16 -4 13 -7 10 -7 10 -8 7 -10 4 -10 4 -9 2 -8 0 -6 0 -7 -3 -9 -5 -39 -21 -55 -10 -69 0 -125 0 -62 95 0 191 rrcurveto
          10 416 rlineto
          0 52 -17 42 -33 34 -33 33 -45 17 -56 0 rrcurveto
          -242 hlineto
          -19 0 -16 -6 -14 -13 -14 -13 -7 -18 0 -24 0 -21 7 -16 14 -11 13 -12 17 -6 19 0 rrcurveto
          158 hlineto
          42 0 31 -11 22 -23 22 -23 11 -29 0 -37 rrcurveto
          -9 -376 rlineto
          0 -254 102 -127 205 0 rrcurveto
          endchar
        </CharString>
        <CharString name="j">
          0 466 -460 rmoveto
          125 0 100 36 76 72 74 65 37 88 2 110 rrcurveto
          930 vlineto
          0 45 -16 40 -31 34 -32 33 -37 17 -43 0 rrcurveto
          -370 hlineto
          -19 0 -16 -7 -14 -15 -13 -15 -7 -17 0 -20 0 -20 7 -17 13 -15 14 -14 16 -7 19 0 rrcurveto
          285 hlineto
          32 0 25 -10 19 -21 19 -21 9 -25 0 -29 rrcurveto
          -1 -872 rlineto
          0 -54 -23 -48 -46 -44 -46 -43 -68 -23 -90 -1 -40 0 -39 10 -37 20 -38 20 -40 30 -43 41 -12 11 -14 6 -16 0 -17 0 -18 -11 -18 -22 -9 -11 -4 -12 0 -14 0 -16 6 -14 11 -14 rrcurveto
          94 -104 109 -52 125 0 rrcurveto
          294 1739 rmoveto
          32 0 28 12 24 25 24 25 12 30 0 35 0 34 -12 29 -24 24 -24 25 -28 12 -32 0 -34 0 -28 -12 -24 -25 -23 -24 -12 -29 0 -34 0 -35 12 -30 23 -25 24 -25 28 -12 34 0 rrcurveto
          endchar
        </CharString>
        <CharString name="k">
          0 987 -10 rmoveto
          51 1 25 24 0 46 0 17 -4 14 -7 11 rrcurveto
          -318 460 rlineto
          -13 17 -6 17 0 18 0 24 10 23 20 21 rrcurveto
          229 255 rlineto
          14 14 7 18 0 20 0 21 -7 17 -14 13 -15 13 -18 6 -22 0 -21 0 -19 -10 -19 -21 rrcurveto
          -393 -422 rlineto
          -23 -25 -21 -13 -20 0 -27 0 -13 27 0 54 rrcurveto
          784 vlineto
          0 21 -7 18 -14 15 -14 15 -17 7 -21 0 -18 0 -16 -7 -14 -14 -13 -14 -7 -18 0 -21 rrcurveto
          -1366 vlineto
          0 -24 6 -20 13 -14 13 -15 18 -7 22 0 20 0 17 8 13 15 13 15 6 19 0 23 rrcurveto
          148 vlineto
          0 41 16 36 31 32 rrcurveto
          130 138 rlineto
          12 11 15 5 20 0 18 0 16 -10 14 -19 rrcurveto
          283 -425 rlineto
          16 -25 23 -12 30 0 rrcurveto
          endchar
        </CharString>
        <CharString name="l">
          0 815 -10 rmoveto
          100 1 67 22 34 42 11 14 5 16 0 18 0 16 -4 13 -7 10 -7 10 -8 7 -10 4 -10 4 -9 2 -8 0 -6 0 -7 -2 -9 -5 -36 -21 -37 -11 -40 0 -141 0 -71 103 0 205 rrcurveto
          885 vlineto
          0 57 -17 45 -33 34 -33 34 -45 17 -56 0 rrcurveto
          -217 hlineto
          -19 0 -16 -6 -14 -13 -14 -13 -7 -18 0 -24 0 -21 7 -16 14 -11 13 -12 17 -6 19 0 rrcurveto
          133 hlineto
          42 0 32 -12 21 -24 22 -23 11 -32 0 -39 rrcurveto
          -838 vlineto
          1 -275 111 -137 221 0 rrcurveto
          endchar
        </CharString>
        <CharString name="lamda-grek">
          0 223 1510 rmoveto
          -47 0 -23 -21 0 -41 0 -45 29 -22 57 0 77 0 65 -33 53 -65 59 -75 29 -64 0 -53 0 -15 -2 -15 -5 -15 -235 -648 -117 -328 0 -7 0 -19 7 -17 15 -15 14 -15 17 -7 20 0 rrcurveto
          35 0 23 16 12 32 rrcurveto
          254 718 rlineto
          7 18 13 9 20 0 21 0 13 -9 7 -18 rrcurveto
          254 -718 rlineto
          12 -32 23 -16 35 0 20 0 17 7 15 15 14 15 7 17 0 19 0 6 -113 328 -225 649 -67 181 -62 117 -58 54 -80 75 -97 37 -113 0 rrcurveto
          endchar
        </CharString>
        <CharString name="left_arrow_double_long">
          0 -1683 71 rmoveto
          19 0 17 7 13 14 14 13 7 17 0 19 0 19 -8 17 -17 17 -16 16 -18 19 -20 20 -9 9 -4 11 0 12 0 13 5 12 10 10 10 10 11 5 13 0 rrcurveto
          2496 hlineto
          18 0 16 7 14 14 15 13 7 17 0 19 0 20 -7 17 -14 13 -14 13 -16 7 -19 0 rrcurveto
          -2544 hlineto
          -19 0 -16 -7 -16 -15 rrcurveto
          -33 -33 rlineto
          -10 -9 -12 -5 -13 0 -13 0 -12 5 -10 9 rrcurveto
          -149 148 rlineto
          -9 10 -5 12 0 13 0 13 5 12 9 10 rrcurveto
          151 150 rlineto
          10 9 12 5 13 0 13 0 12 -5 10 -9 rrcurveto
          32 -33 rlineto
          16 -14 17 -7 18 0 rrcurveto
          2543 hlineto
          18 0 16 7 14 14 15 13 7 17 0 19 0 20 -7 17 -14 13 -14 13 -16 7 -19 0 rrcurveto
          -2494 hlineto
          -13 0 -11 5 -10 9 -9 10 -5 11 0 13 0 6 1 6 2 6 2 6 22 23 41 41 14 17 7 17 0 17 0 20 -7 17 -14 13 -13 13 -17 7 -19 0 -17 0 -16 -7 -17 -14 rrcurveto
          -455 -458 rlineto
          -15 -14 -7 -16 0 -19 0 -19 7 -17 15 -16 rrcurveto
          455 -455 rlineto
          17 -14 16 -7 17 0 rrcurveto
          endchar
        </CharString>
        <CharString name="left_arrow_double_long_alt">
          0 840 870 rmoveto
          -2610 hlineto
          136 137 rlineto
          14 16 7 17 0 17 0 20 -7 16 -14 14 -13 13 -17 7 -19 0 -17 0 -16 -7 -16 -14 rrcurveto
          -457 -457 rlineto
          -14 -15 -7 -16 0 -19 0 -19 7 -17 14 -15 rrcurveto
          457 -456 rlineto
          16 -14 16 -7 17 0 19 0 17 7 13 14 14 13 7 17 0 19 0 19 -7 16 -14 15 rrcurveto
          -140 140 rlineto
          2614 hlineto
          18 0 16 7 14 14 15 14 7 16 0 19 0 20 -7 16 -14 14 -14 13 -16 7 -19 0 rrcurveto
          -2754 hlineto
          -93 92 rlineto
          -9 11 -5 12 0 13 0 14 5 11 10 10 rrcurveto
          96 96 rlineto
          2750 hlineto
          18 0 16 7 14 14 15 14 7 16 0 19 0 20 -7 16 -14 14 -14 13 -16 7 -19 0 rrcurveto
          endchar
        </CharString>
        <CharString name="left_arrow_single">
          0 -581 458 rmoveto
          -13 0 -12 5 -10 9 rrcurveto
          -91 90 rlineto
          -9 10 -5 12 0 13 0 13 5 12 9 10 rrcurveto
          91 90 rlineto
          10 9 12 5 13 0 13 0 12 -5 10 -9 rrcurveto
          88 -89 rlineto
          11 -10 6 -12 0 -14 0 -13 -5 -12 -10 -11 rrcurveto
          -90 -89 rlineto
          -10 -9 -12 -5 -13 0 rrcurveto
          198 -387 rmoveto
          20 0 17 7 13 13 13 13 7 17 0 20 0 17 -7 16 -14 17 rrcurveto
          -113 113 rlineto
          -9 10 -5 12 0 13 0 13 5 12 9 10 rrcurveto
          114 119 rlineto
          11 10 15 9 18 7 17 7 16 4 15 0 rrcurveto
          1181 hlineto
          19 0 17 7 13 14 14 13 7 17 0 19 0 19 -7 17 -14 13 -13 14 -17 7 -19 0 rrcurveto
          -1180 hlineto
          -15 0 -17 4 -17 7 -17 7 -14 9 -11 10 rrcurveto
          -116 116 rlineto
          -9 10 -5 12 0 13 0 13 5 11 9 10 rrcurveto
          113 113 rlineto
          14 17 7 17 0 17 0 21 -7 17 -14 13 -15 13 -16 7 -18 0 -17 0 -16 -7 -17 -14 rrcurveto
          -455 -457 rlineto
          -15 -16 -7 -16 0 -19 0 -17 7 -18 15 -17 rrcurveto
          455 -455 rlineto
          16 -13 17 -7 17 0 rrcurveto
          endchar
        </CharString>
        <CharString name="left_arrow_single_alt">
          0 -483 71 rmoveto
          22 0 14 5 14 15 15 14 5 14 0 22 0 18 -5 14 -16 17 rrcurveto
          -265 266 rlineto
          -8 7 -5 14 0 9 0 19 19 25 24 0 rrcurveto
          1509 hlineto
          21 0 14 5 15 15 15 15 5 14 0 21 0 20 -5 14 -15 15 -15 15 -14 6 -21 0 rrcurveto
          -1503 hlineto
          -23 0 -20 24 0 20 0 9 5 13 8 8 rrcurveto
          259 262 rlineto
          16 17 5 14 0 19 0 22 -6 14 -15 14 -15 15 -14 6 -20 0 -18 0 -14 -6 -17 -15 rrcurveto
          -457 -458 rlineto
          -15 -16 -6 -14 0 -20 0 -19 6 -15 16 -17 rrcurveto
          456 -456 rlineto
          16 -15 15 -5 18 0 rrcurveto
          endchar
        </CharString>
        <CharString name="left_right_arrow_double">
          0 523 402 rmoveto
          -13 0 -12 5 -10 9 rrcurveto
          -33 33 rlineto
          -16 15 -16 7 -19 0 rrcurveto
          -2008 hlineto
          -19 0 -16 -7 -16 -15 rrcurveto
          -33 -33 rlineto
          -10 -9 -12 -5 -13 0 -13 0 -12 5 -10 9 rrcurveto
          -149 148 rlineto
          -9 10 -5 12 0 13 0 13 5 12 9 10 rrcurveto
          151 150 rlineto
          10 9 12 5 13 0 13 0 12 -5 10 -9 rrcurveto
          32 -33 rlineto
          17 -14 17 -7 17 0 rrcurveto
          2006 hlineto
          18 0 17 7 16 14 rrcurveto
          32 33 rlineto
          10 9 12 5 13 0 13 0 12 -5 10 -9 rrcurveto
          151 -150 rlineto
          9 -10 5 -12 0 -13 0 -13 -5 -12 -9 -10 rrcurveto
          -149 -148 rlineto
          -10 -9 -12 -5 -13 0 rrcurveto
          -140 -331 rmoveto
          17 0 16 7 17 14 rrcurveto
          455 455 rlineto
          15 16 7 17 0 19 0 19 -7 16 -15 14 rrcurveto
          -455 458 rlineto
          -17 14 -16 7 -17 0 -19 0 -17 -7 -13 -13 -14 -13 -7 -17 0 -20 0 -17 7 -17 14 -17 41 -41 22 -23 2 -6 2 -6 1 -6 0 -6 0 -13 -5 -11 -9 -10 -10 -9 -11 -5 -13 0 rrcurveto
          -1908 hlineto
          -13 0 -11 5 -10 9 -9 10 -5 11 0 13 0 14 4 12 9 9 rrcurveto
          55 53 rlineto
          14 17 7 17 0 17 0 20 -7 17 -14 13 -13 13 -17 7 -19 0 -17 0 -16 -7 -17 -14 rrcurveto
          -455 -458 rlineto
          -15 -14 -7 -16 0 -19 0 -19 7 -17 15 -16 rrcurveto
          455 -455 rlineto
          17 -14 16 -7 17 0 19 0 17 7 13 14 14 13 7 17 0 19 0 19 -8 17 -17 17 -16 16 -18 19 -20 20 -9 9 -4 11 0 12 0 13 5 12 10 10 11 10 11 5 12 0 rrcurveto
          1912 hlineto
          13 0 11 -5 10 -10 10 -10 5 -12 0 -13 0 -12 -4 -11 -9 -9 -20 -20 -18 -19 -16 -16 -17 -17 -8 -17 0 -19 0 -19 7 -17 14 -13 13 -14 17 -7 19 0 rrcurveto
          endchar
        </CharString>
        <CharString name="left_right_arrow_double_alt">
          0 614 471 rmoveto
          -2428 hlineto
          -93 92 rlineto
          -9 11 -5 12 0 13 0 14 5 11 10 10 rrcurveto
          96 96 rlineto
          2420 hlineto
          96 -96 rlineto
          10 -10 5 -11 0 -14 0 -13 -5 -12 -9 -11 rrcurveto
          -237 307 rmoveto
          -2140 hlineto
          136 137 rlineto
          14 16 7 17 0 17 0 20 -7 16 -14 14 -13 13 -17 7 -19 0 -17 0 -16 -7 -16 -14 rrcurveto
          -457 -457 rlineto
          -14 -15 -7 -16 0 -19 0 -19 7 -17 14 -15 rrcurveto
          457 -456 rlineto
          16 -14 16 -7 17 0 19 0 17 7 13 14 14 13 7 17 0 19 0 19 -7 16 -14 15 rrcurveto
          -140 140 rlineto
          2148 hlineto
          -84 -84 -46 -47 -9 -9 -15 -15 -7 -17 0 -18 0 -19 7 -17 14 -13 13 -14 17 -7 19 0 17 0 16 7 16 14 rrcurveto
          457 456 rlineto
          14 15 7 17 0 19 0 19 -7 16 -14 15 rrcurveto
          -457 457 rlineto
          -16 14 -16 7 -17 0 -19 0 -17 -7 -13 -13 -14 -14 -7 -16 0 -20 0 -17 7 -17 14 -16 rrcurveto
          endchar
        </CharString>
        <CharString name="left_right_arrow_double_long">
          0 523 402 rmoveto
          -13 0 -12 5 -10 9 rrcurveto
          -33 33 rlineto
          -16 15 -16 7 -19 0 rrcurveto
          -3208 hlineto
          -19 0 -16 -7 -16 -15 rrcurveto
          -33 -33 rlineto
          -10 -9 -12 -5 -13 0 -13 0 -12 5 -10 9 rrcurveto
          -149 148 rlineto
          -9 10 -5 12 0 13 0 13 5 12 9 10 rrcurveto
          151 150 rlineto
          10 9 12 5 13 0 13 0 12 -5 10 -9 rrcurveto
          32 -33 rlineto
          17 -14 17 -7 17 0 rrcurveto
          3206 hlineto
          18 0 17 7 16 14 rrcurveto
          32 33 rlineto
          10 9 12 5 13 0 13 0 12 -5 10 -9 rrcurveto
          151 -150 rlineto
          9 -10 5 -12 0 -13 0 -13 -5 -12 -9 -10 rrcurveto
          -149 -148 rlineto
          -10 -9 -12 -5 -13 0 rrcurveto
          -140 -331 rmoveto
          17 0 16 7 17 14 rrcurveto
          455 455 rlineto
          15 16 7 17 0 19 0 19 -7 16 -15 14 rrcurveto
          -455 458 rlineto
          -17 14 -16 7 -17 0 -19 0 -17 -7 -13 -13 -14 -13 -7 -17 0 -20 0 -17 7 -17 14 -17 41 -41 22 -23 2 -6 2 -6 1 -6 0 -6 0 -13 -5 -11 -9 -10 -10 -9 -11 -5 -13 0 rrcurveto
          -3108 hlineto
          -13 0 -11 5 -10 9 -9 10 -5 11 0 13 0 14 4 12 9 9 rrcurveto
          55 53 rlineto
          14 17 7 17 0 17 0 20 -7 17 -14 13 -13 13 -17 7 -19 0 -17 0 -16 -7 -17 -14 rrcurveto
          -455 -458 rlineto
          -15 -14 -7 -16 0 -19 0 -19 7 -17 15 -16 rrcurveto
          455 -455 rlineto
          17 -14 16 -7 17 0 19 0 17 7 13 14 14 13 7 17 0 19 0 19 -8 17 -17 17 -16 16 -18 19 -20 20 -9 9 -4 11 0 12 0 13 5 12 10 10 11 10 11 5 12 0 rrcurveto
          3112 hlineto
          13 0 11 -5 10 -10 10 -10 5 -12 0 -13 0 -12 -4 -11 -9 -9 -20 -20 -18 -19 -16 -16 -17 -17 -8 -17 0 -19 0 -19 7 -17 14 -13 13 -14 17 -7 19 0 rrcurveto
          endchar
        </CharString>
        <CharString name="left_right_arrow_double_long_alt">
          0 -2874 331 rmoveto
          3348 hlineto
          -84 -84 -46 -47 -9 -9 -15 -15 -7 -17 0 -18 0 -19 7 -17 14 -13 13 -14 17 -7 19 0 17 0 16 7 16 14 rrcurveto
          457 456 rlineto
          14 15 7 17 0 19 0 19 -7 16 -14 15 rrcurveto
          -457 457 rlineto
          -16 14 -16 7 -17 0 -19 0 -17 -7 -13 -13 -14 -14 -7 -16 0 -20 0 -17 7 -17 14 -16 rrcurveto
          136 -137 rlineto
          -3340 hlineto
          136 137 rlineto
          14 16 7 17 0 17 0 20 -7 16 -14 14 -13 13 -17 7 -19 0 -17 0 -16 -7 -16 -14 rrcurveto
          -457 -457 rlineto
          -14 -15 -7 -16 0 -19 0 -19 7 -17 14 -15 rrcurveto
          457 -456 rlineto
          16 -14 16 -7 17 0 19 0 17 7 13 14 14 13 7 17 0 19 0 19 -7 16 -14 15 rrcurveto
          3348 280 rmoveto
          -3628 hlineto
          -93 92 rlineto
          -9 11 -5 12 0 13 0 14 5 11 10 10 rrcurveto
          96 96 rlineto
          3620 hlineto
          96 -96 rlineto
          10 -10 5 -11 0 -14 0 -13 -5 -12 -9 -11 rrcurveto
          endchar
        </CharString>
        <CharString name="left_right_arrow_single">
          0 -1781 458 rmoveto
          -13 0 -12 5 -10 9 rrcurveto
          -91 90 rlineto
          -9 10 -5 12 0 13 0 13 5 12 9 10 rrcurveto
          91 90 rlineto
          10 9 12 5 13 0 13 0 12 -5 10 -9 rrcurveto
          88 -89 rlineto
          11 -10 6 -12 0 -14 0 -13 -5 -12 -10 -11 rrcurveto
          -90 -89 rlineto
          -10 -9 -12 -5 -13 0 rrcurveto
          198 -387 rmoveto
          20 0 17 7 13 13 13 13 7 17 0 20 0 17 -7 16 -14 17 rrcurveto
          -113 113 rlineto
          -9 10 -5 12 0 13 0 13 5 12 9 10 rrcurveto
          114 119 rlineto
          11 10 15 9 18 7 17 7 16 4 15 0 rrcurveto
          2381 hlineto
          19 0 17 7 13 14 14 13 7 17 0 19 0 19 -7 17 -14 13 -13 14 -17 7 -19 0 rrcurveto
          -2380 hlineto
          -15 0 -17 4 -17 7 -17 7 -14 9 -11 10 rrcurveto
          -116 116 rlineto
          -9 10 -5 12 0 13 0 13 5 11 9 10 rrcurveto
          113 113 rlineto
          14 17 7 17 0 17 0 21 -7 17 -14 13 -15 13 -16 7 -18 0 -17 0 -16 -7 -17 -14 rrcurveto
          -455 -457 rlineto
          -15 -16 -7 -16 0 -19 0 -17 7 -18 15 -17 rrcurveto
          455 -455 rlineto
          16 -13 17 -7 17 0 rrcurveto
          endchar
        </CharString>
        <CharString name="left_right_arrow_single_alt">
          0 563 670 rmoveto
          -2326 hlineto
          -12 0 -11 4 -8 9 -8 9 -4 10 0 12 0 10 4 10 8 10 rrcurveto
          260 262 rlineto
          14 16 7 16 0 18 0 20 -7 17 -14 14 -14 13 -16 7 -19 0 -17 0 -16 -7 -16 -14 rrcurveto
          -457 -458 rlineto
          -14 -15 -7 -16 0 -19 0 -18 7 -17 15 -16 rrcurveto
          456 -456 rlineto
          15 -13 17 -7 17 0 20 0 17 7 13 13 13 13 7 17 0 20 0 17 -7 16 -14 16 rrcurveto
          -266 266 rlineto
          -8 10 -4 10 0 10 0 11 4 10 7 9 8 9 10 5 14 0 rrcurveto
          2338 hlineto
          14 0 10 -5 8 -9 7 -9 4 -10 0 -11 0 -10 -4 -10 -8 -10 rrcurveto
          -266 -266 rlineto
          -14 -16 -7 -16 0 -17 0 -20 7 -17 13 -13 13 -13 17 -7 20 0 17 0 17 7 15 13 rrcurveto
          456 456 rlineto
          15 16 7 17 0 18 0 19 -7 16 -14 15 rrcurveto
          -457 458 rlineto
          -16 14 -16 7 -17 0 -19 0 -16 -7 -14 -13 -14 -14 -7 -17 0 -20 0 -18 7 -16 14 -16 rrcurveto
          260 -262 rlineto
          8 -10 4 -10 0 -10 0 -12 -4 -10 -8 -9 -8 -9 -11 -4 -12 0 rrcurveto
          endchar
        </CharString>
        <CharString name="left_right_arrow_single_long">
          0 581 458 rmoveto
          -13 0 -12 5 -10 9 rrcurveto
          -91 90 rlineto
          -9 10 -5 12 0 13 0 13 5 12 9 10 rrcurveto
          91 90 rlineto
          10 9 12 5 13 0 13 0 12 -5 10 -9 rrcurveto
          88 -89 rlineto
          11 -10 6 -12 0 -14 0 -13 -5 -12 -10 -11 rrcurveto
          -90 -89 rlineto
          -10 -9 -12 -5 -13 0 rrcurveto
          -3562 hmoveto
          -13 0 -12 5 -10 9 rrcurveto
          -90 89 rlineto
          -10 11 -5 12 0 13 0 14 6 12 11 10 rrcurveto
          88 89 rlineto
          10 9 12 5 13 0 13 0 12 -5 10 -9 rrcurveto
          91 -90 rlineto
          9 -10 5 -12 0 -13 0 -13 -5 -12 -9 -10 rrcurveto
          -91 -90 rlineto
          -10 -9 -12 -5 -13 0 rrcurveto
          3364 -387 rmoveto
          17 0 17 7 16 13 rrcurveto
          455 455 rlineto
          15 17 7 18 0 17 0 19 -7 16 -15 16 rrcurveto
          -455 457 rlineto
          -17 14 -16 7 -17 0 -18 0 -16 -7 -15 -13 -14 -13 -7 -17 0 -21 0 -17 7 -17 14 -17 rrcurveto
          113 -113 rlineto
          9 -10 5 -11 0 -13 0 -13 -5 -12 -9 -10 rrcurveto
          -116 -116 rlineto
          -11 -10 -14 -9 -17 -7 -17 -7 -17 -4 -15 0 rrcurveto
          -2880 hlineto
          -15 0 -17 4 -17 7 -17 7 -14 9 -11 10 rrcurveto
          -116 116 rlineto
          -9 10 -5 12 0 13 0 13 5 11 9 10 rrcurveto
          113 113 rlineto
          14 17 7 17 0 17 0 21 -7 17 -14 13 -15 13 -16 7 -18 0 -17 0 -16 -7 -17 -14 rrcurveto
          -455 -457 rlineto
          -15 -16 -7 -16 0 -19 0 -17 7 -18 15 -17 rrcurveto
          455 -455 rlineto
          16 -13 17 -7 17 0 20 0 17 7 13 13 13 13 7 17 0 20 0 17 -7 16 -14 17 rrcurveto
          -113 113 rlineto
          -9 10 -5 12 0 13 0 13 5 12 9 10 rrcurveto
          114 119 rlineto
          11 10 15 9 18 7 17 7 16 4 15 0 rrcurveto
          2881 hlineto
          15 0 17 -4 17 -7 17 -7 14 -9 12 -10 rrcurveto
          115 -119 rlineto
          9 -10 5 -12 0 -13 0 -13 -5 -12 -9 -10 rrcurveto
          -113 -113 rlineto
          -14 -17 -7 -16 0 -17 0 -20 7 -17 13 -13 13 -13 17 -7 20 0 rrcurveto
          endchar
        </CharString>
</ttFont>
